WenQuanYiZenHei-01.ufo3
<glyph name="exclam" format="2">
  <advance width="307" height="307"/>
  <unicode hex="0021"/>
  <outline>
    <contour>
      <point x="210" y="702" type="line"/>
      <point x="170" y="175" type="line"/>
      <point x="126" y="175" type="line"/>
      <point x="89" y="702" type="line"/>
    </contour>
    <contour>
      <point x="203" y="0" type="line"/>
      <point x="95" y="0" type="line"/>
      <point x="95" y="110" type="line"/>
      <point x="203" y="110" type="line"/>
    </contour>
  </outline>
</glyph>
<glyph name="parenleft" format="2">
  <advance width="307" height="307"/>
  <unicode hex="0028"/>
  <outline>
    <contour>
      <point x="257" y="-175" type="qcurve"/>
      <point x="204" y="-175" type="line"/>
      <point x="76" y="-16"/>
      <point x="54" y="197" type="qcurve" smooth="yes"/>
      <point x="51" y="230"/>
      <point x="51" y="265" type="qcurve" smooth="yes"/>
      <point x="51" y="485"/>
      <point x="185" y="679" type="qcurve" smooth="yes"/>
      <point x="194" y="690"/>
      <point x="203" y="702" type="qcurve"/>
      <point x="256" y="702" type="line"/>
      <point x="129" y="507"/>
      <point x="127" y="269" type="qcurve" smooth="yes"/>
      <point x="127" y="30"/>
    </contour>
  </outline>
</glyph>
<glyph name="parenright" format="2">
  <advance width="307" height="307"/>
  <unicode hex="0029"/>
  <outline>
    <contour>
      <point x="256" y="265" type="qcurve" smooth="yes"/>
      <point x="256" y="49"/>
      <point x="139" y="-126" type="qcurve" smooth="yes"/>
      <point x="123" y="-152"/>
      <point x="103" y="-175" type="qcurve"/>
      <point x="50" y="-175" type="line"/>
      <point x="180" y="30"/>
      <point x="180" y="269" type="qcurve" smooth="yes"/>
      <point x="180" y="507"/>
      <point x="54" y="698" type="qcurve" smooth="yes"/>
      <point x="52" y="700"/>
      <point x="51" y="702" type="qcurve"/>
      <point x="104" y="702" type="line"/>
      <point x="244" y="517"/>
      <point x="255" y="298" type="qcurve" smooth="yes"/>
      <point x="256" y="282"/>
    </contour>
  </outline>
</glyph>
<glyph name="eight" format="2">
  <advance width="614" height="614"/>
  <unicode hex="0038"/>
  <outline>
    <contour>
      <point x="579" y="188" type="qcurve" smooth="yes"/>
      <point x="579" y="69"/>
      <point x="456" y="16" type="qcurve" smooth="yes"/>
      <point x="391" y="-10"/>
      <point x="311" y="-10" type="qcurve" smooth="yes"/>
      <point x="197" y="-10"/>
      <point x="116" y="43" type="qcurve" smooth="yes"/>
      <point x="36" y="95"/>
      <point x="36" y="180" type="qcurve" smooth="yes"/>
      <point x="36" y="301"/>
      <point x="203" y="365" type="qcurve"/>
      <point x="115" y="397"/>
      <point x="83" y="470" type="qcurve" smooth="yes"/>
      <point x="71" y="499"/>
      <point x="71" y="531" type="qcurve" smooth="yes"/>
      <point x="71" y="640"/>
      <point x="183" y="687" type="qcurve" smooth="yes"/>
      <point x="243" y="713"/>
      <point x="314" y="713" type="qcurve" smooth="yes"/>
      <point x="427" y="713"/>
      <point x="495" y="655" type="qcurve" smooth="yes"/>
      <point x="548" y="610"/>
      <point x="548" y="539" type="qcurve" smooth="yes"/>
      <point x="548" y="422"/>
      <point x="412" y="377" type="qcurve"/>
      <point x="517" y="329"/>
      <point x="552" y="276" type="qcurve" smooth="yes"/>
      <point x="579" y="238"/>
    </contour>
    <contour>
      <point x="471" y="535" type="qcurve" smooth="yes"/>
      <point x="471" y="625"/>
      <point x="366" y="643" type="qcurve" smooth="yes"/>
      <point x="342" y="647"/>
      <point x="315" y="647" type="qcurve" smooth="yes"/>
      <point x="230" y="647"/>
      <point x="186" y="604" type="qcurve" smooth="yes"/>
      <point x="160" y="578"/>
      <point x="160" y="540" type="qcurve" smooth="yes"/>
      <point x="160" y="468"/>
      <point x="255" y="426" type="qcurve" smooth="yes"/>
      <point x="281" y="414"/>
      <point x="309" y="408" type="qcurve"/>
      <point x="413" y="436"/>
      <point x="446" y="473" type="qcurve" smooth="yes"/>
      <point x="471" y="500"/>
    </contour>
    <contour>
      <point x="492" y="175" type="qcurve" smooth="yes"/>
      <point x="492" y="278"/>
      <point x="300" y="328" type="qcurve"/>
      <point x="175" y="301"/>
      <point x="136" y="234" type="qcurve" smooth="yes"/>
      <point x="122" y="210"/>
      <point x="122" y="181" type="qcurve" smooth="yes"/>
      <point x="122" y="91"/>
      <point x="233" y="65" type="qcurve" smooth="yes"/>
      <point x="269" y="55"/>
      <point x="311" y="55" type="qcurve" smooth="yes"/>
      <point x="403" y="55"/>
      <point x="456" y="99" type="qcurve" smooth="yes"/>
      <point x="492" y="130"/>
    </contour>
  </outline>
</glyph>
<glyph name="question" format="2">
  <advance width="552" height="552"/>
  <unicode hex="003F"/>
  <outline>
    <contour>
      <point x="516" y="515" type="qcurve" smooth="yes"/>
      <point x="516" y="401"/>
      <point x="385" y="331" type="qcurve" smooth="yes"/>
      <point x="330" y="303"/>
      <point x="317" y="288" type="qcurve" smooth="yes"/>
      <point x="298" y="265"/>
      <point x="301" y="195" type="qcurve" smooth="yes"/>
      <point x="301" y="174" type="line"/>
      <point x="227" y="174" type="line"/>
      <point x="227" y="218" type="line" smooth="yes"/>
      <point x="227" y="293"/>
      <point x="246" y="323" type="qcurve" smooth="yes"/>
      <point x="261" y="346"/>
      <point x="294" y="366" type="qcurve" smooth="yes"/>
      <point x="364" y="406"/>
      <point x="378" y="418" type="qcurve" smooth="yes"/>
      <point x="425" y="457"/>
      <point x="425" y="514" type="qcurve" smooth="yes"/>
      <point x="425" y="594"/>
      <point x="352" y="626" type="qcurve" smooth="yes"/>
      <point x="319" y="640"/>
      <point x="281" y="640" type="qcurve" smooth="yes"/>
      <point x="179" y="640"/>
      <point x="138" y="546" type="qcurve"/>
      <point x="126" y="507" type="line" smooth="yes"/>
      <point x="124" y="499"/>
      <point x="123" y="489" type="qcurve"/>
      <point x="46" y="506" type="line"/>
      <point x="69" y="650"/>
      <point x="186" y="695" type="qcurve" smooth="yes"/>
      <point x="231" y="713"/>
      <point x="287" y="713" type="qcurve" smooth="yes"/>
      <point x="399" y="713"/>
      <point x="465" y="645" type="qcurve"/>
      <point x="486" y="620" type="line"/>
      <point x="515" y="575"/>
    </contour>
    <contour>
      <point x="319" y="0" type="line"/>
      <point x="215" y="0" type="line"/>
      <point x="215" y="100" type="line"/>
      <point x="319" y="100" type="line"/>
    </contour>
  </outline>
</glyph>
<glyph name="C" format="2">
  <advance width="634" height="634"/>
  <unicode hex="0043"/>
  <outline>
    <contour>
      <point x="589" y="219" type="line"/>
      <point x="542" y="26"/>
      <point x="386" y="-5" type="qcurve" smooth="yes"/>
      <point x="358" y="-10"/>
      <point x="329" y="-10" type="qcurve" smooth="yes"/>
      <point x="172" y="-10"/>
      <point x="94" y="135" type="qcurve" smooth="yes"/>
      <point x="43" y="231"/>
      <point x="43" y="358" type="qcurve" smooth="yes"/>
      <point x="43" y="527"/>
      <point x="131" y="626" type="qcurve" smooth="yes"/>
      <point x="209" y="713"/>
      <point x="336" y="713" type="qcurve" smooth="yes"/>
      <point x="485" y="713"/>
      <point x="555" y="582" type="qcurve" smooth="yes"/>
      <point x="578" y="540"/>
      <point x="589" y="488" type="qcurve"/>
      <point x="506" y="473" type="line"/>
      <point x="465" y="623"/>
      <point x="359" y="637" type="qcurve" smooth="yes"/>
      <point x="346" y="639"/>
      <point x="333" y="639" type="qcurve" smooth="yes"/>
      <point x="205" y="639"/>
      <point x="159" y="492" type="qcurve" smooth="yes"/>
      <point x="139" y="428"/>
      <point x="139" y="351" type="qcurve" smooth="yes"/>
      <point x="139" y="216"/>
      <point x="197" y="134" type="qcurve" smooth="yes"/>
      <point x="247" y="63"/>
      <point x="329" y="63" type="qcurve" smooth="yes"/>
      <point x="462" y="63"/>
      <point x="506" y="225" type="qcurve" smooth="yes"/>
      <point x="508" y="231"/>
      <point x="509" y="237" type="qcurve"/>
    </contour>
  </outline>
</glyph>
<glyph name="F" format="2">
  <advance width="491" height="491"/>
  <unicode hex="0046"/>
  <outline>
    <contour>
      <point x="514" y="627" type="line"/>
      <point x="172" y="627" type="line"/>
      <point x="172" y="403" type="line"/>
      <point x="456" y="403" type="line"/>
      <point x="456" y="333" type="line"/>
      <point x="172" y="333" type="line"/>
      <point x="172" y="0" type="line"/>
      <point x="84" y="0" type="line"/>
      <point x="84" y="702" type="line"/>
      <point x="514" y="702" type="line"/>
    </contour>
  </outline>
</glyph>
<glyph name="G" format="2">
  <advance width="675" height="675"/>
  <unicode hex="0047"/>
  <outline>
    <contour>
      <point x="614" y="-5" type="line"/>
      <point x="560" y="-5" type="line"/>
      <point x="537" y="82" type="line"/>
      <point x="477" y="-5"/>
      <point x="355" y="-10" type="qcurve" smooth="yes"/>
      <point x="348" y="-10"/>
      <point x="342" y="-10" type="qcurve" smooth="yes"/>
      <point x="184" y="-10"/>
      <point x="104" y="125" type="qcurve" smooth="yes"/>
      <point x="49" y="218"/>
      <point x="49" y="344" type="qcurve" smooth="yes"/>
      <point x="49" y="506"/>
      <point x="133" y="610" type="qcurve" smooth="yes"/>
      <point x="216" y="713"/>
      <point x="353" y="713" type="qcurve" smooth="yes"/>
      <point x="509" y="713"/>
      <point x="579" y="585" type="qcurve" smooth="yes"/>
      <point x="597" y="552"/>
      <point x="607" y="511" type="qcurve"/>
      <point x="524" y="490" type="line"/>
      <point x="506" y="584"/>
      <point x="428" y="622" type="qcurve" smooth="yes"/>
      <point x="391" y="639"/>
      <point x="347" y="639" type="qcurve" smooth="yes"/>
      <point x="211" y="639"/>
      <point x="164" y="488" type="qcurve" smooth="yes"/>
      <point x="144" y="426"/>
      <point x="144" y="348" type="qcurve" smooth="yes"/>
      <point x="144" y="202"/>
      <point x="212" y="123" type="qcurve" smooth="yes"/>
      <point x="264" y="61"/>
      <point x="348" y="61" type="qcurve" smooth="yes"/>
      <point x="453" y="61"/>
      <point x="500" y="141" type="qcurve" smooth="yes"/>
      <point x="524" y="184"/>
      <point x="524" y="242" type="qcurve" smooth="yes"/>
      <point x="524" y="281" type="line"/>
      <point x="349" y="281" type="line"/>
      <point x="349" y="354" type="line"/>
      <point x="614" y="354" type="line"/>
    </contour>
  </outline>
</glyph>
<glyph name="L" format="2">
  <advance width="512" height="512"/>
  <unicode hex="004C"/>
  <outline>
    <contour>
      <point x="501" y="0" type="line"/>
      <point x="86" y="0" type="line"/>
      <point x="86" y="702" type="line"/>
      <point x="174" y="702" type="line"/>
      <point x="174" y="78" type="line"/>
      <point x="501" y="78" type="line"/>
    </contour>
  </outline>
</glyph>
<glyph name="O" format="2">
  <advance width="675" height="675"/>
  <unicode hex="004F"/>
  <outline>
    <contour>
      <point x="623" y="359" type="qcurve" smooth="yes"/>
      <point x="623" y="208"/>
      <point x="548" y="102" type="qcurve" smooth="yes"/>
      <point x="469" y="-10"/>
      <point x="335" y="-10" type="qcurve" smooth="yes"/>
      <point x="177" y="-10"/>
      <point x="98" y="128" type="qcurve" smooth="yes"/>
      <point x="45" y="220"/>
      <point x="45" y="346" type="qcurve" smooth="yes"/>
      <point x="45" y="506"/>
      <point x="124" y="609" type="qcurve" smooth="yes"/>
      <point x="202" y="713"/>
      <point x="334" y="713" type="qcurve" smooth="yes"/>
      <point x="486" y="713"/>
      <point x="566" y="580" type="qcurve" smooth="yes"/>
      <point x="623" y="485"/>
    </contour>
    <contour>
      <point x="530" y="354" type="qcurve" smooth="yes"/>
      <point x="530" y="496"/>
      <point x="468" y="575" type="qcurve" smooth="yes"/>
      <point x="419" y="640"/>
      <point x="337" y="640" type="qcurve" smooth="yes"/>
      <point x="207" y="640"/>
      <point x="159" y="492" type="qcurve" smooth="yes"/>
      <point x="137" y="426"/>
      <point x="137" y="345" type="qcurve" smooth="yes"/>
      <point x="137" y="214"/>
      <point x="197" y="133" type="qcurve" smooth="yes"/>
      <point x="249" y="61"/>
      <point x="335" y="61" type="qcurve" smooth="yes"/>
      <point x="458" y="61"/>
      <point x="507" y="203" type="qcurve" smooth="yes"/>
      <point x="530" y="271"/>
    </contour>
  </outline>
</glyph>
<glyph name="Q" format="2">
  <advance width="675" height="675"/>
  <unicode hex="0051"/>
  <outline>
    <contour>
      <point x="626" y="351" type="qcurve" smooth="yes"/>
      <point x="626" y="191"/>
      <point x="546" y="91" type="qcurve" smooth="yes"/>
      <point x="490" y="23"/>
      <point x="407" y="1" type="qcurve"/>
      <point x="407" y="-14" type="line" smooth="yes"/>
      <point x="407" y="-76"/>
      <point x="461" y="-88" type="qcurve" smooth="yes"/>
      <point x="472" y="-91"/>
      <point x="485" y="-91" type="qcurve" smooth="yes"/>
      <point x="508" y="-91"/>
      <point x="580" y="-84" type="qcurve"/>
      <point x="580" y="-154" type="line"/>
      <point x="540" y="-167"/>
      <point x="504" y="-167" type="qcurve" smooth="yes"/>
      <point x="366" y="-167"/>
      <point x="340" y="-55" type="qcurve" smooth="yes"/>
      <point x="335" y="-34"/>
      <point x="335" y="-10" type="qcurve"/>
      <point x="168" y="-6"/>
      <point x="91" y="135" type="qcurve" smooth="yes"/>
      <point x="42" y="225"/>
      <point x="42" y="346" type="qcurve" smooth="yes"/>
      <point x="42" y="511"/>
      <point x="124" y="613" type="qcurve" smooth="yes"/>
      <point x="203" y="713"/>
      <point x="334" y="713" type="qcurve" smooth="yes"/>
      <point x="494" y="713"/>
      <point x="572" y="572" type="qcurve" smooth="yes"/>
      <point x="626" y="478"/>
    </contour>
    <contour>
      <point x="530" y="349" type="qcurve" smooth="yes"/>
      <point x="530" y="548"/>
      <point x="428" y="610" type="qcurve" smooth="yes"/>
      <point x="388" y="635"/>
      <point x="333" y="635" type="qcurve" smooth="yes"/>
      <point x="184" y="635"/>
      <point x="147" y="459" type="qcurve" smooth="yes"/>
      <point x="136" y="407"/>
      <point x="136" y="344" type="qcurve" smooth="yes"/>
      <point x="136" y="186"/>
      <point x="207" y="112" type="qcurve" smooth="yes"/>
      <point x="254" y="62"/>
      <point x="327" y="62" type="qcurve" smooth="yes"/>
      <point x="474" y="62"/>
      <point x="516" y="225" type="qcurve" smooth="yes"/>
      <point x="530" y="282"/>
    </contour>
  </outline>
</glyph>
<glyph name="S" format="2">
  <advance width="634" height="634"/>
  <unicode hex="0053"/>
  <outline>
    <contour>
      <point x="590" y="201" type="qcurve" smooth="yes"/>
      <point x="590" y="71"/>
      <point x="469" y="17" type="qcurve" smooth="yes"/>
      <point x="407" y="-10"/>
      <point x="328" y="-10" type="qcurve" smooth="yes"/>
      <point x="112" y="-10"/>
      <point x="43" y="189" type="qcurve"/>
      <point x="122" y="207" type="line"/>
      <point x="154" y="98"/>
      <point x="266" y="72" type="qcurve" smooth="yes"/>
      <point x="296" y="65"/>
      <point x="330" y="65" type="qcurve" smooth="yes"/>
      <point x="432" y="65"/>
      <point x="476" y="120" type="qcurve" smooth="yes"/>
      <point x="499" y="148"/>
      <point x="499" y="189" type="qcurve" smooth="yes"/>
      <point x="499" y="261"/>
      <point x="408" y="296" type="qcurve"/>
      <point x="343" y="314" type="line" smooth="yes"/>
      <point x="225" y="344"/>
      <point x="214" y="348" type="qcurve" smooth="yes"/>
      <point x="162" y="365"/>
      <point x="135" y="389" type="qcurve" smooth="yes"/>
      <point x="78" y="440"/>
      <point x="78" y="519" type="qcurve" smooth="yes"/>
      <point x="78" y="639"/>
      <point x="189" y="688" type="qcurve" smooth="yes"/>
      <point x="246" y="713"/>
      <point x="316" y="713" type="qcurve" smooth="yes"/>
      <point x="461" y="713"/>
      <point x="534" y="608" type="qcurve"/>
      <point x="554" y="571" type="line" smooth="yes"/>
      <point x="561" y="557"/>
      <point x="566" y="541" type="qcurve"/>
      <point x="486" y="519" type="line"/>
      <point x="473" y="588"/>
      <point x="398" y="624" type="qcurve" smooth="yes"/>
      <point x="358" y="643"/>
      <point x="314" y="643" type="qcurve" smooth="yes"/>
      <point x="241" y="643"/>
      <point x="195" y="601" type="qcurve" smooth="yes"/>
      <point x="164" y="572"/>
      <point x="164" y="531" type="qcurve" smooth="yes"/>
      <point x="164" y="462"/>
      <point x="250" y="430" type="qcurve" smooth="yes"/>
      <point x="271" y="423"/>
      <point x="383" y="397" type="qcurve" smooth="yes"/>
      <point x="483" y="374"/>
      <point x="524" y="340" type="qcurve" smooth="yes"/>
      <point x="590" y="287"/>
    </contour>
  </outline>
</glyph>
<glyph name="W" format="2">
  <advance width="839" height="839"/>
  <unicode hex="0057"/>
  <outline>
    <contour>
      <point x="831" y="702" type="line"/>
      <point x="663" y="0" type="line"/>
      <point x="574" y="0" type="line"/>
      <point x="422" y="545" type="line"/>
      <point x="279" y="0" type="line"/>
      <point x="189" y="0" type="line"/>
      <point x="11" y="702" type="line"/>
      <point x="101" y="702" type="line"/>
      <point x="242" y="133" type="line"/>
      <point x="244" y="133" type="line"/>
      <point x="392" y="702" type="line"/>
      <point x="463" y="702" type="line"/>
      <point x="623" y="133" type="line"/>
      <point x="625" y="133" type="line"/>
      <point x="755" y="702" type="line"/>
    </contour>
  </outline>
</glyph>
<glyph name="X" format="2">
  <advance width="552" height="552"/>
  <unicode hex="0058"/>
  <outline>
    <contour>
      <point x="552" y="0" type="line"/>
      <point x="453" y="0" type="line"/>
      <point x="275" y="299" type="line"/>
      <point x="91" y="0" type="line"/>
      <point x="9" y="0" type="line"/>
      <point x="234" y="364" type="line"/>
      <point x="34" y="702" type="line"/>
      <point x="132" y="702" type="line"/>
      <point x="287" y="442" type="line"/>
      <point x="443" y="702" type="line"/>
      <point x="524" y="702" type="line"/>
      <point x="328" y="381" type="line"/>
    </contour>
  </outline>
</glyph>
<glyph name="Y" format="2">
  <advance width="573" height="573"/>
  <unicode hex="0059"/>
  <outline>
    <contour>
      <point x="568" y="702" type="line"/>
      <point x="334" y="296" type="line"/>
      <point x="334" y="0" type="line"/>
      <point x="246" y="0" type="line"/>
      <point x="246" y="296" type="line"/>
      <point x="11" y="702" type="line"/>
      <point x="114" y="702" type="line"/>
      <point x="300" y="379" type="line"/>
      <point x="488" y="702" type="line"/>
    </contour>
  </outline>
</glyph>
<glyph name="c" format="2">
  <advance width="491" height="491"/>
  <unicode hex="0063"/>
  <outline>
    <contour>
      <point x="457" y="172" type="line"/>
      <point x="436" y="56"/>
      <point x="349" y="11" type="qcurve" smooth="yes"/>
      <point x="307" y="-10"/>
      <point x="256" y="-10" type="qcurve" smooth="yes"/>
      <point x="126" y="-10"/>
      <point x="68" y="108" type="qcurve" smooth="yes"/>
      <point x="35" y="174"/>
      <point x="35" y="260" type="qcurve" smooth="yes"/>
      <point x="35" y="393"/>
      <point x="106" y="470" type="qcurve" smooth="yes"/>
      <point x="165" y="534"/>
      <point x="257" y="534" type="qcurve" smooth="yes"/>
      <point x="379" y="534"/>
      <point x="432" y="431" type="qcurve" smooth="yes"/>
      <point x="450" y="396"/>
      <point x="457" y="353" type="qcurve"/>
      <point x="383" y="340" type="line"/>
      <point x="375" y="421"/>
      <point x="315" y="453" type="qcurve" smooth="yes"/>
      <point x="297" y="463"/>
      <point x="273" y="465" type="qcurve" smooth="yes"/>
      <point x="266" y="466"/>
      <point x="259" y="466" type="qcurve" smooth="yes"/>
      <point x="163" y="466"/>
      <point x="131" y="353" type="qcurve" smooth="yes"/>
      <point x="120" y="312"/>
      <point x="120" y="265" type="qcurve" smooth="yes"/>
      <point x="120" y="138"/>
      <point x="179" y="85" type="qcurve" smooth="yes"/>
      <point x="210" y="58"/>
      <point x="254" y="58" type="qcurve" smooth="yes"/>
      <point x="351" y="58"/>
      <point x="380" y="171" type="qcurve" smooth="yes"/>
      <point x="382" y="178"/>
      <point x="383" y="185" type="qcurve"/>
    </contour>
  </outline>
</glyph>
<glyph name="d" format="2">
  <advance width="552" height="552"/>
  <unicode hex="0064"/>
  <outline>
    <contour>
      <point x="484" y="0" type="line"/>
      <point x="412" y="0" type="line"/>
      <point x="412" y="92" type="line"/>
      <point x="410" y="92" type="line"/>
      <point x="359" y="-10"/>
      <point x="247" y="-10" type="qcurve" smooth="yes"/>
      <point x="129" y="-10"/>
      <point x="73" y="106" type="qcurve" smooth="yes"/>
      <point x="39" y="175"/>
      <point x="39" y="260" type="qcurve" smooth="yes"/>
      <point x="39" y="388"/>
      <point x="106" y="467" type="qcurve" smooth="yes"/>
      <point x="164" y="534"/>
      <point x="254" y="534" type="qcurve" smooth="yes"/>
      <point x="345" y="534"/>
      <point x="404" y="450" type="qcurve"/>
      <point x="404" y="702" type="line"/>
      <point x="484" y="702" type="line"/>
    </contour>
    <contour>
      <point x="404" y="225" type="qcurve" smooth="yes"/>
      <point x="404" y="308" type="line" smooth="yes"/>
      <point x="404" y="408"/>
      <point x="339" y="450" type="qcurve" smooth="yes"/>
      <point x="306" y="470"/>
      <point x="261" y="470" type="qcurve" smooth="yes"/>
      <point x="172" y="470"/>
      <point x="139" y="364" type="qcurve" smooth="yes"/>
      <point x="125" y="319"/>
      <point x="125" y="269" type="qcurve" smooth="yes"/>
      <point x="125" y="124"/>
      <point x="194" y="76" type="qcurve" smooth="yes"/>
      <point x="221" y="56"/>
      <point x="259" y="56" type="qcurve" smooth="yes"/>
      <point x="339" y="56"/>
      <point x="381" y="131" type="qcurve" smooth="yes"/>
      <point x="404" y="174"/>
    </contour>
  </outline>
</glyph>
<glyph name="f" format="2">
  <advance width="307" height="307"/>
  <unicode hex="0066"/>
  <outline>
    <contour>
      <point x="334" y="641" type="line"/>
      <point x="291" y="649"/>
      <point x="268" y="649" type="qcurve" smooth="yes"/>
      <point x="200" y="649"/>
      <point x="186" y="593" type="qcurve" smooth="yes"/>
      <point x="182" y="573"/>
      <point x="182" y="541" type="qcurve" smooth="yes"/>
      <point x="182" y="520" type="line"/>
      <point x="303" y="520" type="line"/>
      <point x="303" y="457" type="line"/>
      <point x="182" y="457" type="line"/>
      <point x="182" y="0" type="line"/>
      <point x="102" y="0" type="line"/>
      <point x="102" y="457" type="line"/>
      <point x="10" y="457" type="line"/>
      <point x="10" y="520" type="line"/>
      <point x="102" y="520" type="line"/>
      <point x="102" y="536" type="line" smooth="yes"/>
      <point x="102" y="687"/>
      <point x="205" y="710" type="qcurve" smooth="yes"/>
      <point x="222" y="714"/>
      <point x="241" y="714" type="qcurve" smooth="yes"/>
      <point x="252" y="714"/>
      <point x="334" y="706" type="qcurve"/>
    </contour>
  </outline>
</glyph>
<glyph name="j" format="2">
  <advance width="225" height="225"/>
  <unicode hex="006A"/>
  <outline>
    <contour>
      <point x="152" y="612" type="line"/>
      <point x="63" y="612" type="line"/>
      <point x="63" y="702" type="line"/>
      <point x="152" y="702" type="line"/>
    </contour>
    <contour>
      <point x="146" y="-9" type="line" smooth="yes"/>
      <point x="146" y="-157"/>
      <point x="45" y="-179" type="qcurve" smooth="yes"/>
      <point x="24" y="-184"/>
      <point x="-2" y="-184" type="qcurve" smooth="yes"/>
      <point x="-37" y="-184"/>
      <point x="-78" y="-174" type="qcurve"/>
      <point x="-78" y="-110" type="line"/>
      <point x="-47" y="-118"/>
      <point x="-19" y="-118" type="qcurve" smooth="yes"/>
      <point x="47" y="-118"/>
      <point x="61" y="-68" type="qcurve" smooth="yes"/>
      <point x="67" y="-48"/>
      <point x="67" y="-9" type="qcurve" smooth="yes"/>
      <point x="67" y="520" type="line"/>
      <point x="146" y="520" type="line"/>
    </contour>
  </outline>
</glyph>
<glyph name="p" format="2">
  <advance width="552" height="552"/>
  <unicode hex="0070"/>
  <outline>
    <contour>
      <point x="521" y="264" type="qcurve" smooth="yes"/>
      <point x="521" y="134"/>
      <point x="457" y="56" type="qcurve" smooth="yes"/>
      <point x="402" y="-10"/>
      <point x="315" y="-10" type="qcurve" smooth="yes"/>
      <point x="215" y="-10"/>
      <point x="160" y="82" type="qcurve"/>
      <point x="160" y="-170" type="line"/>
      <point x="80" y="-170" type="line"/>
      <point x="80" y="520" type="line"/>
      <point x="153" y="520" type="line"/>
      <point x="153" y="420" type="line"/>
      <point x="155" y="420" type="line"/>
      <point x="187" y="506"/>
      <point x="270" y="527" type="qcurve" smooth="yes"/>
      <point x="292" y="534"/>
      <point x="315" y="534" type="qcurve" smooth="yes"/>
      <point x="434" y="534"/>
      <point x="489" y="416" type="qcurve" smooth="yes"/>
      <point x="521" y="348"/>
    </contour>
    <contour>
      <point x="431" y="261" type="qcurve" smooth="yes"/>
      <point x="431" y="387"/>
      <point x="371" y="437" type="qcurve"/>
      <point x="349" y="452" type="line" smooth="yes"/>
      <point x="326" y="463"/>
      <point x="297" y="463" type="qcurve" smooth="yes"/>
      <point x="227" y="463"/>
      <point x="184" y="394" type="qcurve" smooth="yes"/>
      <point x="177" y="384"/>
      <point x="172" y="372" type="qcurve" smooth="yes"/>
      <point x="160" y="347"/>
      <point x="160" y="336" type="qcurve" smooth="yes"/>
      <point x="160" y="204" type="line" smooth="yes"/>
      <point x="160" y="140"/>
      <point x="211" y="93" type="qcurve" smooth="yes"/>
      <point x="250" y="57"/>
      <point x="297" y="57" type="qcurve" smooth="yes"/>
      <point x="404" y="57"/>
      <point x="427" y="198" type="qcurve" smooth="yes"/>
      <point x="431" y="227"/>
    </contour>
  </outline>
</glyph>
<glyph name="braceleft" format="2">
  <advance width="307" height="307"/>
  <unicode hex="007B"/>
  <outline>
    <contour>
      <point x="272" y="-175" type="line"/>
      <point x="198" y="-172" type="line" smooth="yes"/>
      <point x="156" y="-170"/>
      <point x="128" y="-115" type="qcurve" smooth="yes"/>
      <point x="114" y="-85"/>
      <point x="114" y="-58" type="qcurve" smooth="yes"/>
      <point x="115" y="104" type="line"/>
      <point x="115" y="105" type="line" smooth="yes"/>
      <point x="115" y="187"/>
      <point x="83" y="215" type="qcurve" smooth="yes"/>
      <point x="65" y="231"/>
      <point x="34" y="238" type="qcurve"/>
      <point x="34" y="301" type="line"/>
      <point x="98" y="313"/>
      <point x="111" y="374" type="qcurve" smooth="yes"/>
      <point x="115" y="395"/>
      <point x="115" y="436" type="qcurve" smooth="yes"/>
      <point x="114" y="595" type="line"/>
      <point x="114" y="596" type="line" smooth="yes"/>
      <point x="114" y="641"/>
      <point x="146" y="681" type="qcurve" smooth="yes"/>
      <point x="170" y="709"/>
      <point x="198" y="710" type="qcurve" smooth="yes"/>
      <point x="272" y="713" type="line"/>
      <point x="272" y="650" type="line"/>
      <point x="220" y="646"/>
      <point x="211" y="642" type="qcurve" smooth="yes"/>
      <point x="201" y="634" type="line"/>
      <point x="194" y="617" type="line"/>
      <point x="190" y="586" type="line"/>
      <point x="191" y="421" type="line"/>
      <point x="191" y="420" type="line" smooth="yes"/>
      <point x="191" y="322"/>
      <point x="121" y="272" type="qcurve" smooth="yes"/>
      <point x="119" y="270"/>
      <point x="117" y="269" type="qcurve"/>
      <point x="191" y="213"/>
      <point x="191" y="118" type="qcurve" smooth="yes"/>
      <point x="190" y="-49" type="line" smooth="yes"/>
      <point x="190" y="-96"/>
      <point x="216" y="-105" type="qcurve" smooth="yes"/>
      <point x="222" y="-109"/>
      <point x="272" y="-115" type="qcurve"/>
    </contour>
  </outline>
</glyph>
<glyph name="asciitilde" format="2">
  <advance width="614" height="614"/>
  <unicode hex="007E"/>
  <outline>
    <contour>
      <point x="555" y="354" type="line"/>
      <point x="556" y="340" type="line"/>
      <point x="556" y="339" type="line" smooth="yes"/>
      <point x="556" y="279"/>
      <point x="511" y="233" type="qcurve" smooth="yes"/>
      <point x="478" y="199"/>
      <point x="436" y="199" type="qcurve" smooth="yes"/>
      <point x="387" y="199"/>
      <point x="294" y="256" type="qcurve" smooth="yes"/>
      <point x="216" y="303"/>
      <point x="193" y="307" type="qcurve" smooth="yes"/>
      <point x="186" y="308"/>
      <point x="182" y="308" type="qcurve" smooth="yes"/>
      <point x="135" y="308"/>
      <point x="128" y="234" type="qcurve" smooth="yes"/>
      <point x="127" y="225"/>
      <point x="127" y="216" type="qcurve"/>
      <point x="57" y="216" type="line"/>
      <point x="61" y="299"/>
      <point x="105" y="346" type="qcurve" smooth="yes"/>
      <point x="136" y="378"/>
      <point x="178" y="378" type="qcurve" smooth="yes"/>
      <point x="219" y="378"/>
      <point x="307" y="325" type="qcurve" smooth="yes"/>
      <point x="389" y="274"/>
      <point x="419" y="269" type="qcurve" smooth="yes"/>
      <point x="427" y="267"/>
      <point x="434" y="267" type="qcurve" smooth="yes"/>
      <point x="485" y="267"/>
      <point x="485" y="354" type="qcurve"/>
    </contour>
  </outline>
</glyph>
<glyph name="sterling" format="2">
  <advance width="614" height="614"/>
  <unicode hex="00A3"/>
  <outline>
    <contour>
      <point x="612" y="113" type="line"/>
      <point x="558" y="0"/>
      <point x="418" y="0" type="qcurve" smooth="yes"/>
      <point x="3" y="0" type="line"/>
      <point x="3" y="77" type="line"/>
      <point x="82" y="77"/>
      <point x="111" y="87" type="qcurve" smooth="yes"/>
      <point x="131" y="93"/>
      <point x="147" y="105" type="qcurve" smooth="yes"/>
      <point x="207" y="146"/>
      <point x="207" y="230" type="qcurve" smooth="yes"/>
      <point x="207" y="239"/>
      <point x="198" y="332" type="qcurve"/>
      <point x="85" y="332" type="line"/>
      <point x="85" y="392" type="line"/>
      <point x="191" y="392" type="line"/>
      <point x="182" y="481" type="line"/>
      <point x="182" y="487" type="line" smooth="yes"/>
      <point x="182" y="600"/>
      <point x="248" y="665" type="qcurve" smooth="yes"/>
      <point x="298" y="713"/>
      <point x="372" y="713" type="qcurve" smooth="yes"/>
      <point x="475" y="713"/>
      <point x="543" y="617" type="qcurve"/>
      <point x="484" y="573" type="line"/>
      <point x="439" y="633"/>
      <point x="395" y="640" type="qcurve" smooth="yes"/>
      <point x="386" y="642"/>
      <point x="377" y="642" type="qcurve" smooth="yes"/>
      <point x="321" y="642"/>
      <point x="290" y="591" type="qcurve" smooth="yes"/>
      <point x="273" y="563"/>
      <point x="273" y="531" type="qcurve" smooth="yes"/>
      <point x="273" y="514"/>
      <point x="285" y="392" type="qcurve"/>
      <point x="435" y="392" type="line"/>
      <point x="435" y="332" type="line"/>
      <point x="291" y="332" type="line"/>
      <point x="296" y="260"/>
      <point x="296" y="247" type="qcurve" smooth="yes"/>
      <point x="296" y="138"/>
      <point x="213" y="77" type="qcurve"/>
      <point x="365" y="77" type="line" smooth="yes"/>
      <point x="461" y="77"/>
      <point x="503" y="106" type="qcurve" smooth="yes"/>
      <point x="528" y="125"/>
      <point x="545" y="157" type="qcurve"/>
    </contour>
  </outline>
</glyph>
<glyph name="section" format="2">
  <advance width="614" height="614"/>
  <unicode hex="00A7"/>
  <outline>
    <contour>
      <point x="548" y="-1" type="qcurve" smooth="yes"/>
      <point x="548" y="-104"/>
      <point x="450" y="-158" type="qcurve" smooth="yes"/>
      <point x="387" y="-193"/>
      <point x="310" y="-193" type="qcurve" smooth="yes"/>
      <point x="172" y="-193"/>
      <point x="101" y="-103" type="qcurve" smooth="yes"/>
      <point x="80" y="-76"/>
      <point x="68" y="-41" type="qcurve"/>
      <point x="158" y="-28" type="line"/>
      <point x="183" y="-92"/>
      <point x="258" y="-117" type="qcurve" smooth="yes"/>
      <point x="286" y="-126"/>
      <point x="314" y="-126" type="qcurve" smooth="yes"/>
      <point x="387" y="-126"/>
      <point x="432" y="-84" type="qcurve" smooth="yes"/>
      <point x="463" y="-55"/>
      <point x="463" y="-15" type="qcurve" smooth="yes"/>
      <point x="463" y="45"/>
      <point x="382" y="77" type="qcurve" smooth="yes"/>
      <point x="367" y="82"/>
      <point x="259" y="111" type="qcurve" smooth="yes"/>
      <point x="147" y="140"/>
      <point x="113" y="187" type="qcurve" smooth="yes"/>
      <point x="89" y="218"/>
      <point x="89" y="263" type="qcurve" smooth="yes"/>
      <point x="89" y="351"/>
      <point x="184" y="414" type="qcurve" smooth="yes"/>
      <point x="186" y="416"/>
      <point x="188" y="417" type="qcurve"/>
      <point x="104" y="463"/>
      <point x="104" y="554" type="qcurve" smooth="yes"/>
      <point x="104" y="651"/>
      <point x="199" y="692" type="qcurve" smooth="yes"/>
      <point x="245" y="713"/>
      <point x="301" y="713" type="qcurve" smooth="yes"/>
      <point x="419" y="713"/>
      <point x="480" y="641" type="qcurve" smooth="yes"/>
      <point x="505" y="612"/>
      <point x="515" y="575" type="qcurve"/>
      <point x="437" y="567" type="line"/>
      <point x="412" y="636"/>
      <point x="334" y="650" type="qcurve" smooth="yes"/>
      <point x="318" y="653"/>
      <point x="302" y="653" type="qcurve" smooth="yes"/>
      <point x="231" y="653"/>
      <point x="199" y="613" type="qcurve" smooth="yes"/>
      <point x="182" y="593"/>
      <point x="182" y="565" type="qcurve" smooth="yes"/>
      <point x="182" y="503"/>
      <point x="260" y="471" type="qcurve" smooth="yes"/>
      <point x="273" y="465"/>
      <point x="373" y="435" type="qcurve" smooth="yes"/>
      <point x="476" y="406"/>
      <point x="509" y="358" type="qcurve"/>
      <point x="522" y="334" type="line" smooth="yes"/>
      <point x="531" y="310"/>
      <point x="531" y="282" type="qcurve" smooth="yes"/>
      <point x="531" y="209"/>
      <point x="449" y="141" type="qcurve"/>
      <point x="520" y="112"/>
      <point x="542" y="43" type="qcurve" smooth="yes"/>
      <point x="548" y="22"/>
    </contour>
    <contour>
      <point x="457" y="260" type="qcurve" smooth="yes"/>
      <point x="457" y="327"/>
      <point x="352" y="359" type="qcurve" smooth="yes"/>
      <point x="251" y="391" type="line"/>
      <point x="170" y="350"/>
      <point x="170" y="291" type="qcurve" smooth="yes"/>
      <point x="170" y="228"/>
      <point x="253" y="199" type="qcurve" smooth="yes"/>
      <point x="267" y="194"/>
      <point x="294" y="186" type="qcurve" smooth="yes"/>
      <point x="383" y="162" type="line"/>
      <point x="427" y="180"/>
      <point x="447" y="223" type="qcurve" smooth="yes"/>
      <point x="457" y="242"/>
    </contour>
  </outline>
</glyph>
<glyph name="copyright" format="2">
  <advance width="778" height="778"/>
  <unicode hex="00A9"/>
  <outline>
    <contour>
      <point x="761" y="353" type="qcurve" smooth="yes"/>
      <point x="761" y="206"/>
      <point x="656" y="100" type="qcurve" smooth="yes"/>
      <point x="555" y="-2"/>
      <point x="411" y="-9" type="qcurve" smooth="yes"/>
      <point x="400" y="-10"/>
      <point x="390" y="-10" type="qcurve" smooth="yes"/>
      <point x="243" y="-10"/>
      <point x="135" y="88" type="qcurve" smooth="yes"/>
      <point x="27" y="187"/>
      <point x="18" y="333" type="qcurve" smooth="yes"/>
      <point x="17" y="343"/>
      <point x="17" y="353" type="qcurve" smooth="yes"/>
      <point x="17" y="501"/>
      <point x="125" y="605" type="qcurve" smooth="yes"/>
      <point x="227" y="706"/>
      <point x="372" y="713" type="qcurve"/>
      <point x="372" y="713"/>
      <point x="390" y="713" type="qcurve" smooth="yes"/>
      <point x="537" y="713"/>
      <point x="643" y="615" type="qcurve" smooth="yes"/>
      <point x="752" y="517"/>
      <point x="760" y="374" type="qcurve" smooth="yes"/>
      <point x="761" y="364"/>
    </contour>
    <contour>
      <point x="690" y="353" type="qcurve" smooth="yes"/>
      <point x="690" y="479"/>
      <point x="595" y="564" type="qcurve" smooth="yes"/>
      <point x="509" y="642"/>
      <point x="390" y="642" type="qcurve" smooth="yes"/>
      <point x="264" y="642"/>
      <point x="176" y="557" type="qcurve" smooth="yes"/>
      <point x="88" y="473"/>
      <point x="88" y="353" type="qcurve" smooth="yes"/>
      <point x="88" y="224"/>
      <point x="183" y="138" type="qcurve" smooth="yes"/>
      <point x="270" y="60"/>
      <point x="390" y="60" type="qcurve" smooth="yes"/>
      <point x="517" y="60"/>
      <point x="605" y="148" type="qcurve" smooth="yes"/>
      <point x="690" y="233"/>
    </contour>
    <contour>
      <point x="579" y="286" type="line"/>
      <point x="570" y="206"/>
      <point x="496" y="167" type="qcurve" smooth="yes"/>
      <point x="455" y="145"/>
      <point x="407" y="145" type="qcurve" smooth="yes"/>
      <point x="299" y="145"/>
      <point x="241" y="225" type="qcurve" smooth="yes"/>
      <point x="201" y="281"/>
      <point x="201" y="355" type="qcurve" smooth="yes"/>
      <point x="201" y="470"/>
      <point x="282" y="527" type="qcurve" smooth="yes"/>
      <point x="333" y="562"/>
      <point x="403" y="562" type="qcurve" smooth="yes"/>
      <point x="502" y="562"/>
      <point x="551" y="496" type="qcurve" smooth="yes"/>
      <point x="572" y="466"/>
      <point x="579" y="427" type="qcurve"/>
      <point x="510" y="427" type="line"/>
      <point x="499" y="489"/>
      <point x="436" y="504" type="qcurve"/>
      <point x="407" y="507" type="line"/>
      <point x="297" y="507"/>
      <point x="276" y="400" type="qcurve" smooth="yes"/>
      <point x="272" y="379"/>
      <point x="272" y="353" type="qcurve" smooth="yes"/>
      <point x="272" y="252"/>
      <point x="342" y="215" type="qcurve" smooth="yes"/>
      <point x="371" y="201"/>
      <point x="409" y="201" type="qcurve" smooth="yes"/>
      <point x="476" y="201"/>
      <point x="501" y="254" type="qcurve" smooth="yes"/>
      <point x="508" y="268"/>
      <point x="510" y="286" type="qcurve"/>
    </contour>
  </outline>
</glyph>
<glyph name="uni00B2" format="2">
  <advance width="368" height="368"/>
  <unicode hex="00B2"/>
  <outline>
    <contour>
      <point x="346" y="285" type="line"/>
      <point x="22" y="285" type="line"/>
      <point x="22" y="333" type="line"/>
      <point x="201" y="463" type="line" smooth="yes"/>
      <point x="273" y="516"/>
      <point x="282" y="568" type="qcurve" smooth="yes"/>
      <point x="284" y="578"/>
      <point x="284" y="587" type="qcurve" smooth="yes"/>
      <point x="284" y="641"/>
      <point x="225" y="660" type="qcurve" smooth="yes"/>
      <point x="206" y="667"/>
      <point x="184" y="667" type="qcurve" smooth="yes"/>
      <point x="134" y="667"/>
      <point x="100" y="629" type="qcurve"/>
      <point x="87" y="608" type="line" smooth="yes"/>
      <point x="81" y="597"/>
      <point x="80" y="585" type="qcurve" smooth="yes"/>
      <point x="79" y="580"/>
      <point x="79" y="574" type="qcurve"/>
      <point x="22" y="589" type="line"/>
      <point x="42" y="677"/>
      <point x="126" y="703" type="qcurve" smooth="yes"/>
      <point x="154" y="713"/>
      <point x="186" y="713" type="qcurve" smooth="yes"/>
      <point x="264" y="713"/>
      <point x="311" y="666" type="qcurve" smooth="yes"/>
      <point x="345" y="633"/>
      <point x="345" y="587" type="qcurve" smooth="yes"/>
      <point x="345" y="499"/>
      <point x="250" y="435" type="qcurve" smooth="yes"/>
      <point x="98" y="333" type="line"/>
      <point x="346" y="333" type="line"/>
    </contour>
  </outline>
</glyph>
<glyph name="uni00B5" format="2">
  <advance width="552" height="552"/>
  <unicode hex="00B5"/>
  <outline>
    <contour>
      <point x="479" y="0" type="line"/>
      <point x="407" y="0" type="line"/>
      <point x="407" y="103" type="line"/>
      <point x="404" y="103" type="line"/>
      <point x="377" y="35"/>
      <point x="310" y="4" type="qcurve" smooth="yes"/>
      <point x="279" y="-10"/>
      <point x="245" y="-10" type="qcurve" smooth="yes"/>
      <point x="195" y="-10"/>
      <point x="151" y="14" type="qcurve"/>
      <point x="151" y="-170" type="line"/>
      <point x="71" y="-170" type="line"/>
      <point x="71" y="520" type="line"/>
      <point x="151" y="520" type="line"/>
      <point x="151" y="204" type="line" smooth="yes"/>
      <point x="151" y="68"/>
      <point x="242" y="59" type="qcurve"/>
      <point x="242" y="59"/>
      <point x="252" y="59" type="qcurve" smooth="yes"/>
      <point x="341" y="59"/>
      <point x="380" y="148" type="qcurve" smooth="yes"/>
      <point x="399" y="191"/>
      <point x="399" y="244" type="qcurve" smooth="yes"/>
      <point x="399" y="520" type="line"/>
      <point x="479" y="520" type="line"/>
    </contour>
  </outline>
</glyph>
<glyph name="guillemotright" format="2">
  <advance width="409" height="409"/>
  <unicode hex="00BB"/>
  <outline>
    <contour>
      <point x="339" y="263" type="line"/>
      <point x="250" y="114" type="line"/>
      <point x="205" y="114" type="line"/>
      <point x="259" y="263" type="line"/>
      <point x="205" y="409" type="line"/>
      <point x="251" y="409" type="line"/>
    </contour>
    <contour>
      <point x="205" y="263" type="line"/>
      <point x="116" y="114" type="line"/>
      <point x="71" y="114" type="line"/>
      <point x="125" y="263" type="line"/>
      <point x="71" y="409" type="line"/>
      <point x="117" y="409" type="line"/>
    </contour>
  </outline>
</glyph>
<glyph name="Adieresis" format="2">
  <advance width="573" height="573"/>
  <unicode hex="00C4"/>
  <outline>
    <contour>
      <point x="378" y="844" type="line" smooth="yes"/>
      <point x="378" y="809"/>
      <point x="346" y="796" type="qcurve" smooth="yes"/>
      <point x="335" y="791"/>
      <point x="324" y="791" type="qcurve" smooth="yes"/>
      <point x="290" y="791"/>
      <point x="275" y="822" type="qcurve" smooth="yes"/>
      <point x="271" y="833"/>
      <point x="271" y="844" type="qcurve" smooth="yes"/>
      <point x="271" y="879"/>
      <point x="304" y="891" type="qcurve" smooth="yes"/>
      <point x="314" y="895"/>
      <point x="325" y="895" type="qcurve" smooth="yes"/>
      <point x="356" y="895"/>
      <point x="372" y="866" type="qcurve"/>
      <point x="378" y="848" type="line"/>
    </contour>
    <contour>
      <point x="219" y="844" type="line" smooth="yes"/>
      <point x="219" y="809"/>
      <point x="187" y="796" type="qcurve" smooth="yes"/>
      <point x="176" y="791"/>
      <point x="165" y="791" type="qcurve" smooth="yes"/>
      <point x="131" y="791"/>
      <point x="117" y="822" type="qcurve" smooth="yes"/>
      <point x="113" y="833"/>
      <point x="113" y="844" type="qcurve" smooth="yes"/>
      <point x="113" y="879"/>
      <point x="145" y="891" type="qcurve" smooth="yes"/>
      <point x="156" y="895"/>
      <point x="166" y="895" type="qcurve" smooth="yes"/>
      <point x="198" y="895"/>
      <point x="213" y="866" type="qcurve"/>
      <point x="219" y="848" type="line"/>
    </contour>
    <contour>
      <point x="568" y="0" type="line"/>
      <point x="478" y="0" type="line"/>
      <point x="408" y="205" type="line"/>
      <point x="147" y="205" type="line"/>
      <point x="85" y="0" type="line"/>
      <point x="11" y="0" type="line"/>
      <point x="239" y="702" type="line"/>
      <point x="340" y="702" type="line"/>
    </contour>
    <contour>
      <point x="388" y="271" type="line"/>
      <point x="281" y="608" type="line"/>
      <point x="172" y="271" type="line"/>
    </contour>
  </outline>
</glyph>
<glyph name="Igrave" format="2">
  <advance width="266" height="266"/>
  <unicode hex="00CC"/>
  <outline>
    <contour>
      <point x="209" y="794" type="line"/>
      <point x="188" y="753" type="line"/>
      <point x="-32" y="849" type="line"/>
      <point x="3" y="915" type="line"/>
    </contour>
    <contour>
      <point x="176" y="0" type="line"/>
      <point x="88" y="0" type="line"/>
      <point x="88" y="702" type="line"/>
      <point x="176" y="702" type="line"/>
    </contour>
  </outline>
</glyph>
<glyph name="Ntilde" format="2">
  <advance width="675" height="675"/>
  <unicode hex="00D1"/>
  <outline>
    <contour>
      <point x="521" y="847" type="line"/>
      <point x="474" y="800"/>
      <point x="415" y="800" type="qcurve" smooth="yes"/>
      <point x="387" y="800"/>
      <point x="333" y="826" type="qcurve" smooth="yes"/>
      <point x="294" y="842" type="line" smooth="yes"/>
      <point x="279" y="847"/>
      <point x="263" y="847" type="qcurve" smooth="yes"/>
      <point x="228" y="847"/>
      <point x="199" y="815" type="qcurve"/>
      <point x="155" y="847" type="line"/>
      <point x="202" y="902"/>
      <point x="269" y="905" type="qcurve" smooth="yes"/>
      <point x="300" y="905"/>
      <point x="362" y="878" type="qcurve" smooth="yes"/>
      <point x="401" y="860"/>
      <point x="422" y="860" type="qcurve" smooth="yes"/>
      <point x="442" y="860"/>
      <point x="484" y="886" type="qcurve"/>
    </contour>
    <contour>
      <point x="601" y="0" type="line"/>
      <point x="515" y="0" type="line"/>
      <point x="158" y="612" type="line"/>
      <point x="158" y="0" type="line"/>
      <point x="84" y="0" type="line"/>
      <point x="84" y="702" type="line"/>
      <point x="195" y="702" type="line"/>
      <point x="527" y="130" type="line"/>
      <point x="527" y="702" type="line"/>
      <point x="601" y="702" type="line"/>
    </contour>
  </outline>
</glyph>
<glyph name="germandbls" format="2">
  <advance width="593" height="593"/>
  <unicode hex="00DF"/>
  <outline>
    <contour>
      <point x="555" y="176" type="qcurve" smooth="yes"/>
      <point x="555" y="77"/>
      <point x="464" y="24" type="qcurve" smooth="yes"/>
      <point x="407" y="-10"/>
      <point x="335" y="-10" type="qcurve" smooth="yes"/>
      <point x="290" y="-10"/>
      <point x="219" y="5" type="qcurve"/>
      <point x="242" y="61" type="line"/>
      <point x="308" y="51"/>
      <point x="323" y="51" type="qcurve" smooth="yes"/>
      <point x="392" y="51"/>
      <point x="436" y="94" type="qcurve" smooth="yes"/>
      <point x="467" y="125"/>
      <point x="467" y="166" type="qcurve" smooth="yes"/>
      <point x="467" y="229"/>
      <point x="380" y="270" type="qcurve" smooth="yes"/>
      <point x="246" y="327" type="line" smooth="yes"/>
      <point x="182" y="357"/>
      <point x="182" y="400" type="qcurve" smooth="yes"/>
      <point x="182" y="425"/>
      <point x="199" y="452" type="qcurve" smooth="yes"/>
      <point x="209" y="467"/>
      <point x="230" y="469" type="qcurve" smooth="yes"/>
      <point x="239" y="469" type="line"/>
      <point x="346" y="478"/>
      <point x="384" y="526" type="qcurve" smooth="yes"/>
      <point x="399" y="546"/>
      <point x="399" y="570" type="qcurve" smooth="yes"/>
      <point x="399" y="624"/>
      <point x="339" y="643" type="qcurve" smooth="yes"/>
      <point x="317" y="650"/>
      <point x="295" y="650" type="qcurve" smooth="yes"/>
      <point x="173" y="650"/>
      <point x="152" y="526" type="qcurve" smooth="yes"/>
      <point x="147" y="502"/>
      <point x="147" y="474" type="qcurve" smooth="yes"/>
      <point x="147" y="-33" type="line"/>
      <point x="65" y="-33" type="line"/>
      <point x="65" y="397" type="line"/>
      <point x="10" y="397" type="line"/>
      <point x="10" y="460" type="line"/>
      <point x="65" y="460" type="line"/>
      <point x="69" y="608"/>
      <point x="162" y="674" type="qcurve" smooth="yes"/>
      <point x="216" y="713"/>
      <point x="295" y="713" type="qcurve" smooth="yes"/>
      <point x="377" y="713"/>
      <point x="436" y="667" type="qcurve" smooth="yes"/>
      <point x="487" y="626"/>
      <point x="487" y="567" type="qcurve" smooth="yes"/>
      <point x="487" y="471"/>
      <point x="371" y="439" type="qcurve" smooth="yes"/>
      <point x="328" y="427"/>
      <point x="278" y="427" type="qcurve" smooth="yes"/>
      <point x="260" y="427"/>
      <point x="260" y="419" type="qcurve" smooth="yes"/>
      <point x="260" y="403"/>
      <point x="318" y="383" type="qcurve" smooth="yes"/>
      <point x="420" y="348"/>
      <point x="456" y="329" type="qcurve" smooth="yes"/>
      <point x="555" y="271"/>
    </contour>
  </outline>
</glyph>
<glyph name="agrave" format="2">
  <advance width="552" height="552"/>
  <unicode hex="00E0"/>
  <outline>
    <contour>
      <point x="393" y="611" type="line"/>
      <point x="373" y="570" type="line"/>
      <point x="153" y="667" type="line"/>
      <point x="187" y="733" type="line"/>
    </contour>
    <contour>
      <point x="509" y="0" type="qcurve"/>
      <point x="429" y="0" type="line"/>
      <point x="420" y="97" type="line"/>
      <point x="367" y="-10"/>
      <point x="238" y="-10" type="qcurve" smooth="yes"/>
      <point x="137" y="-10"/>
      <point x="87" y="53" type="qcurve" smooth="yes"/>
      <point x="56" y="92"/>
      <point x="56" y="147" type="qcurve" smooth="yes"/>
      <point x="56" y="224"/>
      <point x="122" y="273" type="qcurve" smooth="yes"/>
      <point x="136" y="285"/>
      <point x="153" y="292" type="qcurve" smooth="yes"/>
      <point x="220" y="324"/>
      <point x="375" y="323" type="qcurve" smooth="yes"/>
      <point x="420" y="323" type="line"/>
      <point x="420" y="345" type="line" smooth="yes"/>
      <point x="420" y="441"/>
      <point x="352" y="463" type="qcurve"/>
      <point x="316" y="470" type="line" smooth="yes"/>
      <point x="303" y="471"/>
      <point x="288" y="471" type="qcurve" smooth="yes"/>
      <point x="164" y="471"/>
      <point x="145" y="379" type="qcurve"/>
      <point x="71" y="391" type="line"/>
      <point x="84" y="492"/>
      <point x="205" y="522" type="qcurve" smooth="yes"/>
      <point x="247" y="534"/>
      <point x="295" y="534" type="qcurve" smooth="yes"/>
      <point x="428" y="534"/>
      <point x="469" y="463" type="qcurve" smooth="yes"/>
      <point x="498" y="415"/>
      <point x="498" y="311" type="qcurve" smooth="yes"/>
      <point x="498" y="110" type="line" smooth="yes"/>
      <point x="498" y="39"/>
    </contour>
    <contour>
      <point x="420" y="228" type="qcurve" smooth="yes"/>
      <point x="420" y="262" type="line"/>
      <point x="353" y="262" type="line" smooth="yes"/>
      <point x="142" y="262"/>
      <point x="142" y="143" type="qcurve" smooth="yes"/>
      <point x="142" y="78"/>
      <point x="211" y="58" type="qcurve" smooth="yes"/>
      <point x="231" y="52"/>
      <point x="255" y="52" type="qcurve" smooth="yes"/>
      <point x="340" y="52"/>
      <point x="388" y="123" type="qcurve" smooth="yes"/>
      <point x="420" y="170"/>
    </contour>
  </outline>
</glyph>
<glyph name="ae" format="2">
  <advance width="921" height="921"/>
  <unicode hex="00E6"/>
  <outline>
    <contour>
      <point x="868" y="254" type="qcurve"/>
      <point x="493" y="254" type="line"/>
      <point x="493" y="238" type="line" smooth="yes"/>
      <point x="493" y="134"/>
      <point x="557" y="85" type="qcurve" smooth="yes"/>
      <point x="595" y="56"/>
      <point x="648" y="56" type="qcurve" smooth="yes"/>
      <point x="735" y="56"/>
      <point x="778" y="139" type="qcurve" smooth="yes"/>
      <point x="783" y="147"/>
      <point x="786" y="156" type="qcurve"/>
      <point x="859" y="142" type="line"/>
      <point x="831" y="52"/>
      <point x="741" y="11" type="qcurve" smooth="yes"/>
      <point x="694" y="-9"/>
      <point x="642" y="-9" type="qcurve" smooth="yes"/>
      <point x="499" y="-9"/>
      <point x="432" y="122" type="qcurve"/>
      <point x="395" y="23"/>
      <point x="296" y="-3" type="qcurve" smooth="yes"/>
      <point x="268" y="-10"/>
      <point x="238" y="-10" type="qcurve" smooth="yes"/>
      <point x="136" y="-10"/>
      <point x="86" y="52" type="qcurve" smooth="yes"/>
      <point x="56" y="90"/>
      <point x="56" y="144" type="qcurve" smooth="yes"/>
      <point x="56" y="232"/>
      <point x="135" y="281" type="qcurve"/>
      <point x="135" y="281"/>
      <point x="150" y="289" type="qcurve" smooth="yes"/>
      <point x="214" y="322"/>
      <point x="380" y="321" type="qcurve" smooth="yes"/>
      <point x="415" y="321" type="line"/>
      <point x="415" y="356" type="line" smooth="yes"/>
      <point x="415" y="473"/>
      <point x="283" y="473" type="qcurve" smooth="yes"/>
      <point x="202" y="473"/>
      <point x="166" y="419" type="qcurve" smooth="yes"/>
      <point x="156" y="402"/>
      <point x="152" y="383" type="qcurve"/>
      <point x="76" y="396" type="line"/>
      <point x="98" y="500"/>
      <point x="224" y="526" type="qcurve" smooth="yes"/>
      <point x="259" y="534"/>
      <point x="298" y="534" type="qcurve" smooth="yes"/>
      <point x="421" y="534"/>
      <point x="474" y="460" type="qcurve"/>
      <point x="531" y="525"/>
      <point x="624" y="532" type="qcurve" smooth="yes"/>
      <point x="633" y="534"/>
      <point x="641" y="534" type="qcurve" smooth="yes"/>
      <point x="779" y="534"/>
      <point x="838" y="409" type="qcurve" smooth="yes"/>
      <point x="869" y="342"/>
    </contour>
    <contour>
      <point x="780" y="313" type="line"/>
      <point x="778" y="410"/>
      <point x="716" y="451" type="qcurve"/>
      <point x="689" y="464" type="line"/>
      <point x="657" y="470" type="line" smooth="yes"/>
      <point x="650" y="471"/>
      <point x="642" y="471" type="qcurve" smooth="yes"/>
      <point x="561" y="471"/>
      <point x="519" y="398" type="qcurve" smooth="yes"/>
      <point x="498" y="360"/>
      <point x="496" y="313" type="qcurve"/>
    </contour>
    <contour>
      <point x="413" y="260" type="line"/>
      <point x="324" y="260" type="line" smooth="yes"/>
      <point x="185" y="260"/>
      <point x="153" y="190" type="qcurve" smooth="yes"/>
      <point x="143" y="172"/>
      <point x="143" y="150" type="qcurve" smooth="yes"/>
      <point x="143" y="89"/>
      <point x="197" y="65" type="qcurve" smooth="yes"/>
      <point x="218" y="54"/>
      <point x="245" y="54" type="qcurve" smooth="yes"/>
      <point x="340" y="54"/>
      <point x="386" y="135" type="qcurve" smooth="yes"/>
      <point x="413" y="182"/>
      <point x="413" y="242" type="qcurve" smooth="yes"/>
    </contour>
  </outline>
</glyph>
<glyph name="edieresis" format="2">
  <advance width="552" height="552"/>
  <unicode hex="00EB"/>
  <outline>
    <contour>
      <point x="429" y="682" type="line" smooth="yes"/>
      <point x="429" y="647"/>
      <point x="397" y="634" type="qcurve" smooth="yes"/>
      <point x="386" y="629"/>
      <point x="375" y="629" type="qcurve" smooth="yes"/>
      <point x="341" y="629"/>
      <point x="327" y="660" type="qcurve" smooth="yes"/>
      <point x="323" y="671"/>
      <point x="323" y="682" type="qcurve" smooth="yes"/>
      <point x="323" y="717"/>
      <point x="355" y="729" type="qcurve" smooth="yes"/>
      <point x="366" y="733"/>
      <point x="376" y="733" type="qcurve" smooth="yes"/>
      <point x="408" y="733"/>
      <point x="423" y="705" type="qcurve"/>
      <point x="429" y="686" type="line"/>
    </contour>
    <contour>
      <point x="270" y="682" type="line" smooth="yes"/>
      <point x="270" y="647"/>
      <point x="239" y="634" type="qcurve" smooth="yes"/>
      <point x="227" y="629"/>
      <point x="216" y="629" type="qcurve" smooth="yes"/>
      <point x="182" y="629"/>
      <point x="168" y="660" type="qcurve" smooth="yes"/>
      <point x="164" y="671"/>
      <point x="164" y="682" type="qcurve" smooth="yes"/>
      <point x="164" y="717"/>
      <point x="197" y="729" type="qcurve" smooth="yes"/>
      <point x="207" y="733"/>
      <point x="217" y="733" type="qcurve" smooth="yes"/>
      <point x="249" y="733"/>
      <point x="264" y="705" type="qcurve"/>
      <point x="270" y="686" type="line"/>
    </contour>
    <contour>
      <point x="506" y="254" type="line"/>
      <point x="128" y="254" type="line"/>
      <point x="127" y="154"/>
      <point x="174" y="101" type="qcurve" smooth="yes"/>
      <point x="213" y="57"/>
      <point x="283" y="57" type="qcurve" smooth="yes"/>
      <point x="370" y="57"/>
      <point x="411" y="133" type="qcurve" smooth="yes"/>
      <point x="417" y="144"/>
      <point x="422" y="158" type="qcurve"/>
      <point x="498" y="142" type="line"/>
      <point x="469" y="52"/>
      <point x="378" y="11" type="qcurve" smooth="yes"/>
      <point x="330" y="-10"/>
      <point x="276" y="-10" type="qcurve" smooth="yes"/>
      <point x="142" y="-10"/>
      <point x="78" y="100" type="qcurve" smooth="yes"/>
      <point x="38" y="168"/>
      <point x="38" y="260" type="qcurve" smooth="yes"/>
      <point x="38" y="389"/>
      <point x="116" y="468" type="qcurve" smooth="yes"/>
      <point x="180" y="534"/>
      <point x="279" y="534" type="qcurve" smooth="yes"/>
      <point x="414" y="534"/>
      <point x="473" y="417" type="qcurve" smooth="yes"/>
      <point x="506" y="352"/>
      <point x="506" y="266" type="qcurve" smooth="yes"/>
    </contour>
    <contour>
      <point x="418" y="313" type="line"/>
      <point x="419" y="398"/>
      <point x="366" y="442" type="qcurve" smooth="yes"/>
      <point x="330" y="472"/>
      <point x="279" y="472" type="qcurve" smooth="yes"/>
      <point x="200" y="472"/>
      <point x="158" y="400" type="qcurve" smooth="yes"/>
      <point x="134" y="361"/>
      <point x="132" y="313" type="qcurve"/>
    </contour>
  </outline>
</glyph>
<glyph name="ntilde" format="2">
  <advance width="552" height="552"/>
  <unicode hex="00F1"/>
  <outline>
    <contour>
      <point x="460" y="675" type="line"/>
      <point x="413" y="628"/>
      <point x="353" y="628" type="qcurve" smooth="yes"/>
      <point x="326" y="628"/>
      <point x="271" y="654" type="qcurve" smooth="yes"/>
      <point x="232" y="670" type="line" smooth="yes"/>
      <point x="217" y="675"/>
      <point x="202" y="675" type="qcurve" smooth="yes"/>
      <point x="167" y="675"/>
      <point x="137" y="643" type="qcurve"/>
      <point x="93" y="675" type="line"/>
      <point x="140" y="730"/>
      <point x="208" y="733" type="qcurve" smooth="yes"/>
      <point x="239" y="733"/>
      <point x="301" y="706" type="qcurve" smooth="yes"/>
      <point x="340" y="688"/>
      <point x="360" y="688" type="qcurve" smooth="yes"/>
      <point x="381" y="688"/>
      <point x="423" y="714" type="qcurve"/>
    </contour>
    <contour>
      <point x="482" y="0" type="line"/>
      <point x="402" y="0" type="line"/>
      <point x="402" y="322" type="line" smooth="yes"/>
      <point x="402" y="388"/>
      <point x="391" y="412" type="qcurve" smooth="yes"/>
      <point x="390" y="415"/>
      <point x="388" y="418" type="qcurve" smooth="yes"/>
      <point x="366" y="457"/>
      <point x="313" y="464" type="qcurve" smooth="yes"/>
      <point x="306" y="465"/>
      <point x="299" y="465" type="qcurve" smooth="yes"/>
      <point x="202" y="465"/>
      <point x="166" y="366" type="qcurve" smooth="yes"/>
      <point x="151" y="323"/>
      <point x="151" y="272" type="qcurve" smooth="yes"/>
      <point x="151" y="0" type="line"/>
      <point x="71" y="0" type="line"/>
      <point x="71" y="520" type="line"/>
      <point x="146" y="520" type="line"/>
      <point x="146" y="424" type="line"/>
      <point x="148" y="424" type="line"/>
      <point x="185" y="504"/>
      <point x="263" y="526" type="qcurve" smooth="yes"/>
      <point x="286" y="534"/>
      <point x="310" y="534" type="qcurve" smooth="yes"/>
      <point x="407" y="534"/>
      <point x="455" y="457" type="qcurve"/>
      <point x="458" y="453" type="line"/>
      <point x="482" y="411"/>
      <point x="482" y="309" type="qcurve" smooth="yes"/>
    </contour>
  </outline>
</glyph>
<glyph name="odieresis" format="2">
  <advance width="552" height="552"/>
  <unicode hex="00F6"/>
  <outline>
    <contour>
      <point x="429" y="682" type="line" smooth="yes"/>
      <point x="429" y="647"/>
      <point x="397" y="634" type="qcurve" smooth="yes"/>
      <point x="386" y="629"/>
      <point x="375" y="629" type="qcurve" smooth="yes"/>
      <point x="341" y="629"/>
      <point x="327" y="660" type="qcurve" smooth="yes"/>
      <point x="323" y="671"/>
      <point x="323" y="682" type="qcurve" smooth="yes"/>
      <point x="323" y="717"/>
      <point x="355" y="729" type="qcurve" smooth="yes"/>
      <point x="366" y="733"/>
      <point x="376" y="733" type="qcurve" smooth="yes"/>
      <point x="408" y="733"/>
      <point x="423" y="705" type="qcurve"/>
      <point x="429" y="686" type="line"/>
    </contour>
    <contour>
      <point x="270" y="682" type="line" smooth="yes"/>
      <point x="270" y="647"/>
      <point x="239" y="634" type="qcurve" smooth="yes"/>
      <point x="227" y="629"/>
      <point x="216" y="629" type="qcurve" smooth="yes"/>
      <point x="182" y="629"/>
      <point x="168" y="660" type="qcurve" smooth="yes"/>
      <point x="164" y="671"/>
      <point x="164" y="682" type="qcurve" smooth="yes"/>
      <point x="164" y="717"/>
      <point x="197" y="729" type="qcurve" smooth="yes"/>
      <point x="207" y="733"/>
      <point x="217" y="733" type="qcurve" smooth="yes"/>
      <point x="249" y="733"/>
      <point x="264" y="705" type="qcurve"/>
      <point x="270" y="686" type="line"/>
    </contour>
    <contour>
      <point x="508" y="263" type="qcurve" smooth="yes"/>
      <point x="508" y="130"/>
      <point x="429" y="53" type="qcurve" smooth="yes"/>
      <point x="365" y="-10"/>
      <point x="266" y="-10" type="qcurve" smooth="yes"/>
      <point x="137" y="-10"/>
      <point x="77" y="105" type="qcurve" smooth="yes"/>
      <point x="41" y="174"/>
      <point x="41" y="264" type="qcurve" smooth="yes"/>
      <point x="41" y="399"/>
      <point x="122" y="475" type="qcurve" smooth="yes"/>
      <point x="184" y="534"/>
      <point x="280" y="534" type="qcurve" smooth="yes"/>
      <point x="404" y="534"/>
      <point x="467" y="425" type="qcurve" smooth="yes"/>
      <point x="508" y="355"/>
    </contour>
    <contour>
      <point x="419" y="264" type="qcurve" smooth="yes"/>
      <point x="419" y="397"/>
      <point x="349" y="446" type="qcurve" smooth="yes"/>
      <point x="317" y="468"/>
      <point x="273" y="468" type="qcurve" smooth="yes"/>
      <point x="171" y="468"/>
      <point x="140" y="350" type="qcurve" smooth="yes"/>
      <point x="130" y="310"/>
      <point x="130" y="264" type="qcurve" smooth="yes"/>
      <point x="130" y="120"/>
      <point x="206" y="74" type="qcurve" smooth="yes"/>
      <point x="234" y="56"/>
      <point x="273" y="56" type="qcurve" smooth="yes"/>
      <point x="384" y="56"/>
      <point x="412" y="187" type="qcurve" smooth="yes"/>
      <point x="419" y="223"/>
    </contour>
  </outline>
</glyph>
<glyph name="ij" format="2">
  <advance width="513" height="513"/>
  <unicode hex="0133"/>
  <outline>
    <contour>
      <point x="438" y="633" type="line"/>
      <point x="328" y="633" type="line"/>
      <point x="328" y="737" type="line"/>
      <point x="438" y="737" type="line"/>
    </contour>
    <contour>
      <point x="183" y="633" type="line"/>
      <point x="73" y="633" type="line"/>
      <point x="73" y="737" type="line"/>
      <point x="183" y="737" type="line"/>
    </contour>
    <contour>
      <point x="431" y="-54" type="line" smooth="yes"/>
      <point x="431" y="-170"/>
      <point x="350" y="-194" type="qcurve"/>
      <point x="313" y="-200" type="line" smooth="yes"/>
      <point x="304" y="-201"/>
      <point x="294" y="-201" type="qcurve" smooth="yes"/>
      <point x="244" y="-197" type="line"/>
      <point x="243" y="-197" type="line"/>
      <point x="243" y="-127" type="line"/>
      <point x="305" y="-127"/>
      <point x="322" y="-108" type="qcurve" smooth="yes"/>
      <point x="336" y="-90"/>
      <point x="336" y="-51" type="qcurve" smooth="yes"/>
      <point x="336" y="515" type="line"/>
      <point x="431" y="515" type="line"/>
    </contour>
    <contour>
      <point x="176" y="0" type="line"/>
      <point x="81" y="0" type="line"/>
      <point x="81" y="514" type="line"/>
      <point x="176" y="514" type="line"/>
    </contour>
  </outline>
</glyph>
<glyph name="oe" format="2">
  <advance width="959" height="959"/>
  <unicode hex="0153"/>
  <outline>
    <contour>
      <point x="910" y="304" type="qcurve" smooth="yes"/>
      <point x="910" y="262"/>
      <point x="908" y="242" type="qcurve"/>
      <point x="544" y="242" type="line"/>
      <point x="544" y="200" type="line" smooth="yes"/>
      <point x="544" y="109"/>
      <point x="615" y="73" type="qcurve" smooth="yes"/>
      <point x="646" y="57"/>
      <point x="687" y="57" type="qcurve" smooth="yes"/>
      <point x="770" y="57"/>
      <point x="800" y="115" type="qcurve" smooth="yes"/>
      <point x="811" y="137"/>
      <point x="811" y="165" type="qcurve"/>
      <point x="901" y="165" type="line"/>
      <point x="900" y="57"/>
      <point x="804" y="12" type="qcurve"/>
      <point x="765" y="-2" type="line" smooth="yes"/>
      <point x="731" y="-11"/>
      <point x="693" y="-11" type="qcurve" smooth="yes"/>
      <point x="560" y="-11"/>
      <point x="496" y="74" type="qcurve"/>
      <point x="416" y="-10"/>
      <point x="292" y="-11" type="qcurve" smooth="yes"/>
      <point x="135" y="-11"/>
      <point x="78" y="112" type="qcurve" smooth="yes"/>
      <point x="51" y="169"/>
      <point x="51" y="247" type="qcurve" smooth="yes"/>
      <point x="51" y="413"/>
      <point x="154" y="484" type="qcurve" smooth="yes"/>
      <point x="213" y="526"/>
      <point x="301" y="526" type="qcurve" smooth="yes"/>
      <point x="426" y="526"/>
      <point x="501" y="437" type="qcurve"/>
      <point x="570" y="526"/>
      <point x="685" y="526" type="qcurve" smooth="yes"/>
      <point x="818" y="526"/>
      <point x="878" y="432" type="qcurve" smooth="yes"/>
      <point x="910" y="379"/>
    </contour>
    <contour>
      <point x="813" y="309" type="line"/>
      <point x="813" y="321" type="line" smooth="yes"/>
      <point x="813" y="403"/>
      <point x="757" y="441" type="qcurve" smooth="yes"/>
      <point x="727" y="462"/>
      <point x="686" y="462" type="qcurve" smooth="yes"/>
      <point x="602" y="462"/>
      <point x="565" y="389" type="qcurve" smooth="yes"/>
      <point x="547" y="353"/>
      <point x="547" y="309" type="qcurve"/>
    </contour>
    <contour>
      <point x="456" y="259" type="qcurve" smooth="yes"/>
      <point x="456" y="384"/>
      <point x="387" y="435" type="qcurve"/>
      <point x="361" y="451" type="line"/>
      <point x="335" y="462"/>
      <point x="302" y="462" type="qcurve" smooth="yes"/>
      <point x="203" y="462"/>
      <point x="165" y="355" type="qcurve" smooth="yes"/>
      <point x="147" y="308"/>
      <point x="147" y="252" type="qcurve" smooth="yes"/>
      <point x="147" y="116"/>
      <point x="229" y="74" type="qcurve" smooth="yes"/>
      <point x="260" y="57"/>
      <point x="301" y="57" type="qcurve" smooth="yes"/>
      <point x="406" y="57"/>
      <point x="441" y="165" type="qcurve" smooth="yes"/>
      <point x="456" y="208"/>
    </contour>
  </outline>
</glyph>
<glyph name="tbar" format="2">
  <advance width="333" height="333"/>
  <unicode hex="0167"/>
  <outline>
    <contour>
      <point x="339" y="230" type="line"/>
      <point x="197" y="230" type="line"/>
      <point x="197" y="131" type="line" smooth="yes"/>
      <point x="197" y="82"/>
      <point x="218" y="72" type="qcurve" smooth="yes"/>
      <point x="231" y="66"/>
      <point x="261" y="66" type="qcurve" smooth="yes"/>
      <point x="283" y="66"/>
      <point x="309" y="73" type="qcurve"/>
      <point x="309" y="1" type="line"/>
      <point x="260" y="-10"/>
      <point x="227" y="-10" type="qcurve" smooth="yes"/>
      <point x="131" y="-10"/>
      <point x="110" y="48" type="qcurve" smooth="yes"/>
      <point x="102" y="69"/>
      <point x="102" y="97" type="qcurve" smooth="yes"/>
      <point x="102" y="230" type="line"/>
      <point x="-17" y="230" type="line"/>
      <point x="-17" y="285" type="line"/>
      <point x="102" y="285" type="line"/>
      <point x="102" y="446" type="line"/>
      <point x="15" y="446" type="line"/>
      <point x="15" y="514" type="line"/>
      <point x="102" y="514" type="line"/>
      <point x="102" y="620" type="line"/>
      <point x="197" y="651" type="line"/>
      <point x="197" y="514" type="line"/>
      <point x="311" y="514" type="line"/>
      <point x="311" y="446" type="line"/>
      <point x="197" y="446" type="line"/>
      <point x="197" y="285" type="line"/>
      <point x="339" y="285" type="line"/>
    </contour>
  </outline>
</glyph>
<glyph name="uni01D8" format="2">
  <advance width="552" height="552"/>
  <unicode hex="01D8"/>
  <outline>
    <contour>
      <point x="388" y="788" type="line"/>
      <point x="168" y="692" type="line"/>
      <point x="147" y="733" type="line"/>
      <point x="353" y="855" type="line"/>
    </contour>
    <contour>
      <point x="402" y="559" type="line"/>
      <point x="311" y="559" type="line"/>
      <point x="311" y="664" type="line"/>
      <point x="402" y="664" type="line"/>
    </contour>
    <contour>
      <point x="238" y="559" type="line"/>
      <point x="146" y="559" type="line"/>
      <point x="146" y="664" type="line"/>
      <point x="238" y="664" type="line"/>
    </contour>
    <contour>
      <point x="479" y="0" type="line"/>
      <point x="407" y="0" type="line"/>
      <point x="407" y="103" type="line"/>
      <point x="404" y="103" type="line"/>
      <point x="377" y="35"/>
      <point x="310" y="4" type="qcurve" smooth="yes"/>
      <point x="279" y="-10"/>
      <point x="245" y="-10" type="qcurve" smooth="yes"/>
      <point x="93" y="-10"/>
      <point x="74" y="156" type="qcurve" smooth="yes"/>
      <point x="71" y="178"/>
      <point x="71" y="204" type="qcurve" smooth="yes"/>
      <point x="71" y="520" type="line"/>
      <point x="151" y="520" type="line"/>
      <point x="151" y="204" type="line" smooth="yes"/>
      <point x="151" y="68"/>
      <point x="242" y="59" type="qcurve"/>
      <point x="252" y="59" type="line" smooth="yes"/>
      <point x="341" y="59"/>
      <point x="380" y="148" type="qcurve" smooth="yes"/>
      <point x="399" y="191"/>
      <point x="399" y="244" type="qcurve" smooth="yes"/>
      <point x="399" y="520" type="line"/>
      <point x="479" y="520" type="line"/>
    </contour>
  </outline>
</glyph>
<glyph name="uni0251" format="2">
  <advance width="590" height="590"/>
  <unicode hex="0251"/>
  <outline>
    <contour>
      <point x="122" y="163"/>
      <point x="208" y="51"/>
      <point x="281" y="51" type="qcurve" smooth="yes"/>
      <point x="351" y="51"/>
      <point x="437" y="161"/>
      <point x="437" y="259" type="qcurve" smooth="yes"/>
      <point x="437" y="273" type="line" smooth="yes"/>
      <point x="437" y="370"/>
      <point x="350" y="481"/>
      <point x="281" y="481" type="qcurve" smooth="yes"/>
      <point x="206" y="481"/>
      <point x="122" y="370"/>
    </contour>
    <contour>
      <point x="48" y="266" type="qcurve" smooth="yes"/>
      <point x="48" y="400"/>
      <point x="163" y="543"/>
      <point x="263" y="543" type="qcurve" smooth="yes"/>
      <point x="380" y="543"/>
      <point x="438" y="445" type="qcurve"/>
      <point x="440" y="445" type="line"/>
      <point x="440" y="532" type="line"/>
      <point x="512" y="532" type="line"/>
      <point x="512" y="0" type="line"/>
      <point x="440" y="0" type="line"/>
      <point x="439" y="90" type="line"/>
      <point x="437" y="90" type="line"/>
      <point x="381" y="-10"/>
      <point x="263" y="-10" type="qcurve" smooth="yes"/>
      <point x="165" y="-10"/>
      <point x="48" y="134"/>
    </contour>
  </outline>
</glyph>
<glyph name="uni0253" format="2">
  <advance width="590" height="590"/>
  <unicode hex="0253"/>
  <outline>
    <contour>
      <point x="154" y="581" type="qcurve" smooth="yes"/>
      <point x="154" y="445" type="line"/>
      <point x="156" y="445" type="line"/>
      <point x="213" y="542"/>
      <point x="328" y="543" type="qcurve" smooth="yes"/>
      <point x="428" y="543"/>
      <point x="543" y="400"/>
      <point x="543" y="266" type="qcurve" smooth="yes"/>
      <point x="543" y="134"/>
      <point x="426" y="-10"/>
      <point x="328" y="-10" type="qcurve" smooth="yes"/>
      <point x="210" y="-10"/>
      <point x="154" y="90" type="qcurve"/>
      <point x="152" y="90" type="line"/>
      <point x="151" y="0" type="line"/>
      <point x="79" y="0" type="line"/>
      <point x="79" y="581" type="line" smooth="yes"/>
      <point x="79" y="758"/>
      <point x="248" y="758" type="qcurve" smooth="yes"/>
      <point x="295" y="758"/>
      <point x="344" y="742" type="qcurve"/>
      <point x="328" y="681" type="line"/>
      <point x="294" y="696"/>
      <point x="255" y="696" type="qcurve" smooth="yes"/>
      <point x="200" y="696"/>
      <point x="154" y="644"/>
    </contour>
    <contour>
      <point x="469" y="370"/>
      <point x="385" y="481"/>
      <point x="311" y="481" type="qcurve" smooth="yes"/>
      <point x="240" y="481"/>
      <point x="154" y="371"/>
      <point x="154" y="273" type="qcurve" smooth="yes"/>
      <point x="154" y="259" type="line" smooth="yes"/>
      <point x="154" y="161"/>
      <point x="242" y="51"/>
      <point x="311" y="51" type="qcurve" smooth="yes"/>
      <point x="384" y="51"/>
      <point x="469" y="163"/>
    </contour>
  </outline>
</glyph>
<glyph name="uni0257" format="2">
  <advance width="595" height="595"/>
  <unicode hex="0257"/>
  <outline>
    <contour>
      <point x="437" y="445" type="line"/>
      <point x="437" y="581" type="line" smooth="yes"/>
      <point x="437" y="758"/>
      <point x="606" y="758" type="qcurve" smooth="yes"/>
      <point x="653" y="758"/>
      <point x="702" y="742" type="qcurve"/>
      <point x="686" y="681" type="line"/>
      <point x="650" y="696"/>
      <point x="613" y="696" type="qcurve" smooth="yes"/>
      <point x="558" y="696"/>
      <point x="512" y="644"/>
      <point x="512" y="581" type="qcurve" smooth="yes"/>
      <point x="512" y="0" type="line"/>
      <point x="440" y="0" type="line"/>
      <point x="439" y="90" type="line"/>
      <point x="437" y="90" type="line"/>
      <point x="381" y="-10"/>
      <point x="263" y="-10" type="qcurve" smooth="yes"/>
      <point x="165" y="-10"/>
      <point x="48" y="134"/>
      <point x="48" y="266" type="qcurve" smooth="yes"/>
      <point x="48" y="400"/>
      <point x="163" y="543"/>
      <point x="263" y="543" type="qcurve" smooth="yes"/>
      <point x="380" y="543"/>
      <point x="435" y="445" type="qcurve"/>
    </contour>
    <contour>
      <point x="122" y="163"/>
      <point x="208" y="51"/>
      <point x="281" y="51" type="qcurve" smooth="yes"/>
      <point x="351" y="51"/>
      <point x="437" y="161"/>
      <point x="437" y="259" type="qcurve" smooth="yes"/>
      <point x="437" y="273" type="line" smooth="yes"/>
      <point x="437" y="370"/>
      <point x="350" y="481"/>
      <point x="281" y="481" type="qcurve" smooth="yes"/>
      <point x="206" y="481"/>
      <point x="122" y="370"/>
    </contour>
  </outline>
</glyph>
<glyph name="uni025B" format="2">
  <advance width="540" height="540"/>
  <unicode hex="025B"/>
  <outline>
    <contour>
      <point x="189" y="284" type="qcurve"/>
      <point x="189" y="286" type="line"/>
      <point x="124" y="300"/>
      <point x="56" y="370"/>
      <point x="56" y="412" type="qcurve" smooth="yes"/>
      <point x="56" y="469"/>
      <point x="181" y="543"/>
      <point x="291" y="543" type="qcurve" smooth="yes"/>
      <point x="390" y="543"/>
      <point x="486" y="505" type="qcurve"/>
      <point x="467" y="447" type="line"/>
      <point x="381" y="483"/>
      <point x="297" y="483" type="qcurve" smooth="yes"/>
      <point x="217" y="483"/>
      <point x="135" y="439"/>
      <point x="135" y="401" type="qcurve" smooth="yes"/>
      <point x="135" y="314"/>
      <point x="352" y="314" type="qcurve" smooth="yes"/>
      <point x="396" y="314" type="line"/>
      <point x="396" y="254" type="line"/>
      <point x="352" y="254" type="line" smooth="yes"/>
      <point x="232" y="254"/>
      <point x="127" y="203"/>
      <point x="127" y="152" type="qcurve" smooth="yes"/>
      <point x="127" y="52"/>
      <point x="294" y="51" type="qcurve" smooth="yes"/>
      <point x="381" y="51"/>
      <point x="474" y="85" type="qcurve"/>
      <point x="493" y="28" type="line"/>
      <point x="392" y="-10"/>
      <point x="291" y="-10" type="qcurve" smooth="yes"/>
      <point x="173" y="-10"/>
      <point x="48" y="72"/>
      <point x="48" y="143" type="qcurve" smooth="yes"/>
      <point x="48" y="192"/>
      <point x="118" y="272"/>
    </contour>
  </outline>
</glyph>
<glyph name="uni025D" format="2">
  <advance width="803" height="803"/>
  <unicode hex="025D"/>
  <outline>
    <contour>
      <point x="67" y="85" type="line"/>
      <point x="162" y="51"/>
      <point x="247" y="51" type="qcurve" smooth="yes"/>
      <point x="415" y="51"/>
      <point x="415" y="152" type="qcurve" smooth="yes"/>
      <point x="415" y="203"/>
      <point x="308" y="254"/>
      <point x="189" y="254" type="qcurve" smooth="yes"/>
      <point x="144" y="254" type="line"/>
      <point x="144" y="314" type="line"/>
      <point x="189" y="314" type="line" smooth="yes"/>
      <point x="405" y="314"/>
      <point x="406" y="401" type="qcurve" smooth="yes"/>
      <point x="406" y="439"/>
      <point x="325" y="483"/>
      <point x="244" y="483" type="qcurve" smooth="yes"/>
      <point x="161" y="483"/>
      <point x="74" y="447" type="qcurve"/>
      <point x="55" y="505" type="line"/>
      <point x="150" y="543"/>
      <point x="251" y="543" type="qcurve" smooth="yes"/>
      <point x="359" y="543"/>
      <point x="481" y="473"/>
      <point x="484" y="417" type="qcurve"/>
      <point x="580" y="474" type="line"/>
      <point x="645" y="474" type="line"/>
      <point x="645" y="338" type="line" smooth="yes"/>
      <point x="645" y="285"/>
      <point x="671" y="248"/>
      <point x="702" y="248" type="qcurve" smooth="yes"/>
      <point x="729" y="248"/>
      <point x="755" y="257" type="qcurve"/>
      <point x="766" y="199" type="line"/>
      <point x="731" y="187"/>
      <point x="691" y="186" type="qcurve" smooth="yes"/>
      <point x="632" y="186"/>
      <point x="580" y="252"/>
      <point x="580" y="331" type="qcurve" smooth="yes"/>
      <point x="580" y="407" type="line"/>
      <point x="467" y="337"/>
      <point x="382" y="292"/>
      <point x="351" y="286" type="qcurve"/>
      <point x="351" y="284" type="line"/>
      <point x="422" y="272"/>
      <point x="493" y="193"/>
      <point x="493" y="143" type="qcurve" smooth="yes"/>
      <point x="493" y="71"/>
      <point x="368" y="-10"/>
      <point x="251" y="-10" type="qcurve" smooth="yes"/>
      <point x="150" y="-10"/>
      <point x="48" y="28" type="qcurve"/>
    </contour>
  </outline>
</glyph>
<glyph name="uni0263" format="2">
  <advance width="573" height="573"/>
  <unicode hex="0263"/>
  <outline>
    <contour>
      <point x="223" y="-236"/>
      <point x="154" y="-170"/>
      <point x="154" y="-111" type="qcurve" smooth="yes"/>
      <point x="154" y="-39"/>
      <point x="247" y="124" type="qcurve"/>
      <point x="38" y="532" type="line"/>
      <point x="122" y="532" type="line"/>
      <point x="287" y="189" type="line"/>
      <point x="455" y="532" type="line"/>
      <point x="537" y="532" type="line"/>
      <point x="327" y="124" type="line"/>
      <point x="420" y="-37"/>
      <point x="420" y="-111" type="qcurve" smooth="yes"/>
      <point x="420" y="-170"/>
      <point x="350" y="-236"/>
    </contour>
    <contour>
      <point x="287" y="-181" type="qcurve" smooth="yes"/>
      <point x="320" y="-181"/>
      <point x="355" y="-144"/>
      <point x="355" y="-112" type="qcurve" smooth="yes"/>
      <point x="355" y="-58"/>
      <point x="287" y="65" type="qcurve"/>
      <point x="219" y="-58"/>
      <point x="219" y="-112" type="qcurve" smooth="yes"/>
      <point x="219" y="-145"/>
      <point x="255" y="-181"/>
    </contour>
  </outline>
</glyph>
<glyph name="uni0264" format="2">
  <advance width="659" height="659"/>
  <unicode hex="0264"/>
  <outline>
    <contour>
      <point x="525" y="479" type="qcurve" smooth="yes"/>
      <point x="483" y="479"/>
      <point x="417" y="426"/>
      <point x="371" y="347" type="qcurve"/>
      <point x="463" y="187"/>
      <point x="463" y="115" type="qcurve" smooth="yes"/>
      <point x="463" y="56"/>
      <point x="393" y="-10"/>
      <point x="266" y="-10"/>
      <point x="197" y="55"/>
      <point x="197" y="115" type="qcurve" smooth="yes"/>
      <point x="197" y="188"/>
      <point x="289" y="347" type="qcurve"/>
      <point x="243" y="426"/>
      <point x="176" y="479"/>
      <point x="134" y="479" type="qcurve" smooth="yes"/>
      <point x="96" y="479"/>
      <point x="56" y="465" type="qcurve"/>
      <point x="43" y="527" type="line"/>
      <point x="90" y="542"/>
      <point x="137" y="543" type="qcurve" smooth="yes"/>
      <point x="194" y="543"/>
      <point x="280" y="481"/>
      <point x="330" y="400" type="qcurve"/>
      <point x="380" y="481"/>
      <point x="465" y="543"/>
      <point x="522" y="543" type="qcurve" smooth="yes"/>
      <point x="569" y="543"/>
      <point x="616" y="527" type="qcurve"/>
      <point x="603" y="465" type="line"/>
      <point x="563" y="479"/>
    </contour>
    <contour>
      <point x="362" y="44"/>
      <point x="398" y="81"/>
      <point x="398" y="114" type="qcurve" smooth="yes"/>
      <point x="398" y="168"/>
      <point x="330" y="290" type="qcurve"/>
      <point x="261" y="168"/>
      <point x="261" y="114" type="qcurve" smooth="yes"/>
      <point x="261" y="81"/>
      <point x="297" y="44"/>
    </contour>
  </outline>
</glyph>
<glyph name="uni026C" format="2">
  <advance width="585" height="585"/>
  <unicode hex="026C"/>
  <outline>
    <contour>
      <point x="345" y="294" type="line"/>
      <point x="345" y="0" type="line"/>
      <point x="266" y="0" type="line"/>
      <point x="266" y="294" type="line"/>
      <point x="215" y="294" type="line" smooth="yes"/>
      <point x="38" y="294"/>
      <point x="38" y="415" type="qcurve" smooth="yes"/>
      <point x="38" y="463"/>
      <point x="97" y="520"/>
      <point x="148" y="520" type="qcurve" smooth="yes"/>
      <point x="180" y="520"/>
      <point x="233" y="496"/>
      <point x="266" y="461" type="qcurve"/>
      <point x="266" y="768" type="line"/>
      <point x="345" y="768" type="line"/>
      <point x="345" y="355" type="line"/>
      <point x="527" y="355" type="line"/>
      <point x="527" y="294" type="line"/>
    </contour>
    <contour>
      <point x="266" y="355" type="line"/>
      <point x="266" y="367" type="line"/>
      <point x="223" y="426"/>
      <point x="178" y="460"/>
      <point x="156" y="460" type="qcurve" smooth="yes"/>
      <point x="132" y="460"/>
      <point x="105" y="435"/>
      <point x="105" y="415" type="qcurve" smooth="yes"/>
      <point x="105" y="356"/>
      <point x="209" y="355" type="qcurve" smooth="yes"/>
    </contour>
  </outline>
</glyph>
<glyph name="uni0273" format="2">
  <advance width="587" height="587"/>
  <unicode hex="0273"/>
  <outline>
    <contour>
      <point x="512" y="-58" type="line" smooth="yes"/>
      <point x="512" y="-121"/>
      <point x="558" y="-174"/>
      <point x="613" y="-174" type="qcurve" smooth="yes"/>
      <point x="652" y="-174"/>
      <point x="686" y="-159" type="qcurve"/>
      <point x="702" y="-220" type="line"/>
      <point x="653" y="-235"/>
      <point x="606" y="-236" type="qcurve" smooth="yes"/>
      <point x="519" y="-236"/>
      <point x="438" y="-152"/>
      <point x="438" y="-58" type="qcurve" smooth="yes"/>
      <point x="438" y="304" type="line" smooth="yes"/>
      <point x="438" y="403"/>
      <point x="381" y="480"/>
      <point x="311" y="480" type="qcurve" smooth="yes"/>
      <point x="251" y="480"/>
      <point x="154" y="364"/>
      <point x="154" y="285" type="qcurve" smooth="yes"/>
      <point x="154" y="0" type="line"/>
      <point x="79" y="0" type="line"/>
      <point x="79" y="532" type="line"/>
      <point x="151" y="532" type="line"/>
      <point x="152" y="437" type="line"/>
      <point x="154" y="437" type="line"/>
      <point x="185" y="486"/>
      <point x="281" y="543"/>
      <point x="335" y="543" type="qcurve" smooth="yes"/>
      <point x="425" y="543"/>
      <point x="512" y="431"/>
      <point x="512" y="310" type="qcurve" smooth="yes"/>
    </contour>
  </outline>
</glyph>
<glyph name="uni0279" format="2">
  <advance width="467" height="467"/>
  <unicode hex="0279"/>
  <outline>
    <contour>
      <point x="316" y="0" type="line"/>
      <point x="315" y="114" type="line"/>
      <point x="313" y="114" type="line"/>
      <point x="223" y="-10"/>
      <point x="58" y="-10" type="qcurve"/>
      <point x="58" y="54" type="line"/>
      <point x="172" y="54"/>
      <point x="313" y="179"/>
      <point x="313" y="279" type="qcurve" smooth="yes"/>
      <point x="313" y="532" type="line"/>
      <point x="389" y="532" type="line"/>
      <point x="389" y="0" type="line"/>
    </contour>
  </outline>
</glyph>
<glyph name="uni027D" format="2">
  <advance width="467" height="467"/>
  <unicode hex="027D"/>
  <outline>
    <contour>
      <point x="156" y="254" type="qcurve" smooth="yes"/>
      <point x="156" y="-58" type="line" smooth="yes"/>
      <point x="156" y="-121"/>
      <point x="202" y="-174"/>
      <point x="256" y="-174" type="qcurve" smooth="yes"/>
      <point x="295" y="-174"/>
      <point x="329" y="-159" type="qcurve"/>
      <point x="345" y="-220" type="line"/>
      <point x="296" y="-235"/>
      <point x="250" y="-236" type="qcurve" smooth="yes"/>
      <point x="162" y="-236"/>
      <point x="79" y="-152"/>
      <point x="79" y="-58" type="qcurve" smooth="yes"/>
      <point x="79" y="532" type="line"/>
      <point x="152" y="532" type="line"/>
      <point x="154" y="419" type="line"/>
      <point x="156" y="419" type="line"/>
      <point x="245" y="543"/>
      <point x="410" y="543" type="qcurve"/>
      <point x="410" y="478" type="line"/>
      <point x="296" y="478"/>
      <point x="156" y="353"/>
    </contour>
  </outline>
</glyph>
<glyph name="uni0285" format="2">
  <advance width="572" height="572"/>
  <unicode hex="0285"/>
  <outline>
    <contour>
      <point x="248" y="366" type="line" smooth="yes"/>
      <point x="248" y="429"/>
      <point x="202" y="481"/>
      <point x="147" y="481" type="qcurve" smooth="yes"/>
      <point x="108" y="481"/>
      <point x="75" y="466" type="qcurve"/>
      <point x="58" y="527" type="line"/>
      <point x="107" y="542"/>
      <point x="154" y="543" type="qcurve" smooth="yes"/>
      <point x="325" y="543"/>
      <point x="325" y="366" type="qcurve" smooth="yes"/>
      <point x="325" y="167" type="line" smooth="yes"/>
      <point x="325" y="104"/>
      <point x="371" y="51"/>
      <point x="426" y="51" type="qcurve" smooth="yes"/>
      <point x="463" y="51"/>
      <point x="499" y="67" type="qcurve"/>
      <point x="514" y="5" type="line"/>
      <point x="467" y="-10"/>
      <point x="419" y="-10" type="qcurve" smooth="yes"/>
      <point x="331" y="-10"/>
      <point x="248" y="74"/>
      <point x="248" y="167" type="qcurve" smooth="yes"/>
    </contour>
  </outline>
</glyph>
<glyph name="uni0295" format="2">
  <advance width="588" height="588"/>
  <unicode hex="0295"/>
  <outline>
    <contour>
      <point x="58" y="550" type="qcurve" smooth="yes"/>
      <point x="58" y="645"/>
      <point x="196" y="758"/>
      <point x="314" y="758" type="qcurve" smooth="yes"/>
      <point x="430" y="758"/>
      <point x="542" y="695" type="qcurve"/>
      <point x="520" y="631" type="line"/>
      <point x="422" y="689"/>
      <point x="325" y="689" type="qcurve" smooth="yes"/>
      <point x="234" y="689"/>
      <point x="137" y="615"/>
      <point x="137" y="548" type="qcurve" smooth="yes"/>
      <point x="137" y="470"/>
      <point x="247" y="387"/>
      <point x="354" y="387" type="qcurve"/>
      <point x="354" y="0" type="line"/>
      <point x="274" y="0" type="line"/>
      <point x="274" y="333" type="line"/>
      <point x="58" y="363"/>
    </contour>
  </outline>
</glyph>
<glyph name="uni0296" format="2">
  <advance width="588" height="588"/>
  <unicode hex="0296"/>
  <outline>
    <contour>
      <point x="315" y="415" type="line"/>
      <point x="531" y="385"/>
      <point x="531" y="198" type="qcurve" smooth="yes"/>
      <point x="531" y="103"/>
      <point x="394" y="-10"/>
      <point x="275" y="-10" type="qcurve" smooth="yes"/>
      <point x="159" y="-10"/>
      <point x="48" y="52" type="qcurve"/>
      <point x="69" y="117" type="line"/>
      <point x="168" y="59"/>
      <point x="265" y="58" type="qcurve" smooth="yes"/>
      <point x="356" y="58"/>
      <point x="453" y="132"/>
      <point x="453" y="200" type="qcurve" smooth="yes"/>
      <point x="453" y="278"/>
      <point x="343" y="360"/>
      <point x="236" y="360" type="qcurve"/>
      <point x="236" y="748" type="line"/>
      <point x="315" y="748" type="line"/>
    </contour>
  </outline>
</glyph>
<glyph name="uni029A" format="2">
  <advance width="632" height="632"/>
  <unicode hex="029A"/>
  <outline>
    <contour>
      <point x="591" y="134"/>
      <point x="435" y="-10"/>
      <point x="291" y="-10" type="qcurve" smooth="yes"/>
      <point x="173" y="-10"/>
      <point x="48" y="72"/>
      <point x="48" y="143" type="qcurve" smooth="yes"/>
      <point x="48" y="192"/>
      <point x="119" y="271"/>
      <point x="189" y="284" type="qcurve"/>
      <point x="189" y="286" type="line"/>
      <point x="124" y="300"/>
      <point x="56" y="370"/>
      <point x="56" y="412" type="qcurve" smooth="yes"/>
      <point x="56" y="469"/>
      <point x="181" y="543"/>
      <point x="291" y="543" type="qcurve" smooth="yes"/>
      <point x="436" y="543"/>
      <point x="591" y="398"/>
    </contour>
    <contour>
      <point x="514" y="266" type="qcurve" smooth="yes"/>
      <point x="514" y="370"/>
      <point x="399" y="483"/>
      <point x="297" y="483" type="qcurve" smooth="yes"/>
      <point x="217" y="483"/>
      <point x="135" y="439"/>
      <point x="135" y="401" type="qcurve" smooth="yes"/>
      <point x="135" y="314"/>
      <point x="352" y="314" type="qcurve" smooth="yes"/>
      <point x="396" y="314" type="line"/>
      <point x="396" y="254" type="line"/>
      <point x="352" y="254" type="line" smooth="yes"/>
      <point x="232" y="254"/>
      <point x="127" y="203"/>
      <point x="127" y="152" type="qcurve" smooth="yes"/>
      <point x="127" y="52"/>
      <point x="294" y="51" type="qcurve" smooth="yes"/>
      <point x="397" y="51"/>
      <point x="514" y="163"/>
    </contour>
  </outline>
</glyph>
<glyph name="uni02A2" format="2">
  <advance width="599" height="599"/>
  <unicode hex="02A2"/>
  <outline>
    <contour>
      <point x="97" y="202" type="line"/>
      <point x="97" y="263" type="line"/>
      <point x="280" y="263" type="line"/>
      <point x="280" y="333" type="line"/>
      <point x="64" y="363"/>
      <point x="63" y="550" type="qcurve" smooth="yes"/>
      <point x="63" y="645"/>
      <point x="201" y="758"/>
      <point x="319" y="758" type="qcurve" smooth="yes"/>
      <point x="435" y="758"/>
      <point x="547" y="695" type="qcurve"/>
      <point x="525" y="631" type="line"/>
      <point x="427" y="689"/>
      <point x="330" y="689" type="qcurve" smooth="yes"/>
      <point x="239" y="689"/>
      <point x="142" y="615"/>
      <point x="142" y="548" type="qcurve" smooth="yes"/>
      <point x="142" y="470"/>
      <point x="252" y="387"/>
      <point x="359" y="387" type="qcurve"/>
      <point x="359" y="263" type="line"/>
      <point x="542" y="263" type="line"/>
      <point x="542" y="202" type="line"/>
      <point x="359" y="202" type="line"/>
      <point x="359" y="0" type="line"/>
      <point x="280" y="0" type="line"/>
      <point x="280" y="202" type="line"/>
    </contour>
  </outline>
</glyph>
<glyph name="uni02A4" format="2">
  <advance width="1002" height="1002"/>
  <unicode hex="02A4"/>
  <outline>
    <contour>
      <point x="512" y="471" type="line"/>
      <point x="512" y="0" type="line"/>
      <point x="440" y="0" type="line"/>
      <point x="439" y="90" type="line"/>
      <point x="437" y="90" type="line"/>
      <point x="381" y="-10"/>
      <point x="263" y="-10" type="qcurve" smooth="yes"/>
      <point x="165" y="-10"/>
      <point x="48" y="134"/>
      <point x="48" y="266" type="qcurve" smooth="yes"/>
      <point x="48" y="400"/>
      <point x="163" y="543"/>
      <point x="263" y="543" type="qcurve" smooth="yes"/>
      <point x="380" y="543"/>
      <point x="435" y="445" type="qcurve"/>
      <point x="437" y="445" type="line"/>
      <point x="437" y="748" type="line"/>
      <point x="512" y="748" type="line"/>
      <point x="512" y="532" type="line"/>
      <point x="913" y="532" type="line"/>
      <point x="913" y="471" type="line"/>
      <point x="676" y="210" type="line"/>
      <point x="676" y="208" type="line"/>
      <point x="716" y="208" type="line" smooth="yes"/>
      <point x="817" y="208"/>
      <point x="924" y="105"/>
      <point x="924" y="7" type="qcurve" smooth="yes"/>
      <point x="924" y="-111"/>
      <point x="794" y="-236"/>
      <point x="675" y="-236" type="qcurve" smooth="yes"/>
      <point x="573" y="-236"/>
      <point x="494" y="-182" type="qcurve"/>
      <point x="515" y="-121" type="line"/>
      <point x="595" y="-172"/>
      <point x="675" y="-172" type="qcurve" smooth="yes"/>
      <point x="758" y="-172"/>
      <point x="849" y="-79"/>
      <point x="849" y="7" type="qcurve" smooth="yes"/>
      <point x="849" y="80"/>
      <point x="756" y="151"/>
      <point x="657" y="151" type="qcurve" smooth="yes"/>
      <point x="588" y="151" type="line"/>
      <point x="588" y="211" type="line"/>
      <point x="821" y="469" type="line"/>
      <point x="821" y="471" type="line"/>
    </contour>
    <contour>
      <point x="122" y="163"/>
      <point x="208" y="51"/>
      <point x="281" y="51" type="qcurve" smooth="yes"/>
      <point x="351" y="51"/>
      <point x="437" y="161"/>
      <point x="437" y="259" type="qcurve" smooth="yes"/>
      <point x="437" y="273" type="line" smooth="yes"/>
      <point x="437" y="370"/>
      <point x="350" y="481"/>
      <point x="281" y="481" type="qcurve" smooth="yes"/>
      <point x="206" y="481"/>
      <point x="122" y="370"/>
    </contour>
  </outline>
</glyph>
<glyph name="uni02A6" format="2">
  <advance width="882" height="882"/>
  <unicode hex="02A6"/>
  <outline>
    <contour>
      <point x="806" y="502" type="qcurve"/>
      <point x="790" y="441" type="line"/>
      <point x="711" y="481"/>
      <point x="625" y="481" type="qcurve" smooth="yes"/>
      <point x="566" y="481"/>
      <point x="504" y="438"/>
      <point x="504" y="399" type="qcurve" smooth="yes"/>
      <point x="504" y="362"/>
      <point x="558" y="318"/>
      <point x="629" y="307" type="qcurve" smooth="yes"/>
      <point x="733" y="289"/>
      <point x="824" y="210"/>
      <point x="824" y="140" type="qcurve" smooth="yes"/>
      <point x="824" y="69"/>
      <point x="719" y="-10"/>
      <point x="625" y="-10" type="qcurve" smooth="yes"/>
      <point x="540" y="-10"/>
      <point x="467" y="22" type="qcurve"/>
      <point x="400" y="-10"/>
      <point x="330" y="-10" type="qcurve" smooth="yes"/>
      <point x="243" y="-10"/>
      <point x="171" y="65"/>
      <point x="171" y="157" type="qcurve" smooth="yes"/>
      <point x="171" y="451" type="line"/>
      <point x="53" y="451" type="line"/>
      <point x="53" y="512" type="line"/>
      <point x="171" y="512" type="line"/>
      <point x="171" y="707" type="line"/>
      <point x="248" y="707" type="line"/>
      <point x="248" y="512" type="line"/>
      <point x="442" y="512" type="line"/>
      <point x="442" y="460" type="line"/>
      <point x="483" y="543"/>
      <point x="625" y="543" type="qcurve" smooth="yes"/>
      <point x="723" y="543"/>
    </contour>
    <contour>
      <point x="438" y="75" type="qcurve"/>
      <point x="445" y="101" type="line"/>
      <point x="530" y="51"/>
      <point x="625" y="51" type="qcurve" smooth="yes"/>
      <point x="684" y="51"/>
      <point x="749" y="98"/>
      <point x="749" y="140" type="qcurve" smooth="yes"/>
      <point x="749" y="181"/>
      <point x="691" y="226"/>
      <point x="621" y="239" type="qcurve" smooth="yes"/>
      <point x="520" y="257"/>
      <point x="429" y="334"/>
      <point x="429" y="399" type="qcurve" smooth="yes"/>
      <point x="429" y="428"/>
      <point x="438" y="451" type="qcurve"/>
      <point x="248" y="451" type="line"/>
      <point x="248" y="171" type="line" smooth="yes"/>
      <point x="248" y="99"/>
      <point x="287" y="51"/>
      <point x="340" y="51" type="qcurve" smooth="yes"/>
      <point x="391" y="51"/>
    </contour>
  </outline>
</glyph>
<glyph name="uni02CB" format="2">
  <advance width="281" height="281"/>
  <unicode hex="02CB"/>
  <outline>
    <contour>
      <point x="43" y="756" type="line"/>
      <point x="185" y="582" type="line"/>
      <point x="246" y="582" type="line"/>
      <point x="143" y="756" type="line"/>
    </contour>
  </outline>
</glyph>
<glyph name="hungarumlaut" format="2">
  <advance width="512" height="512"/>
  <unicode hex="02DD"/>
  <outline>
    <contour>
      <point x="456" y="756" type="line"/>
      <point x="333" y="582" type="line"/>
      <point x="285" y="582" type="line"/>
      <point x="368" y="756" type="line"/>
    </contour>
    <contour>
      <point x="313" y="756" type="line"/>
      <point x="204" y="582" type="line"/>
      <point x="156" y="582" type="line"/>
      <point x="224" y="756" type="line"/>
    </contour>
  </outline>
</glyph>
<glyph name="Upsilontonos" format="2">
  <advance width="672" height="672"/>
  <unicode hex="038E"/>
  <outline>
    <contour>
      <point x="664" y="737" type="line"/>
      <point x="388" y="291" type="line"/>
      <point x="388" y="0" type="line"/>
      <point x="290" y="0" type="line"/>
      <point x="290" y="291" type="line"/>
      <point x="9" y="737" type="line"/>
      <point x="131" y="737" type="line"/>
      <point x="344" y="378" type="line"/>
      <point x="551" y="737" type="line"/>
    </contour>
    <contour>
      <point x="-33" y="782" type="line"/>
      <point x="-48" y="608" type="line"/>
      <point x="-115" y="608" type="line"/>
      <point x="-129" y="782" type="line"/>
    </contour>
  </outline>
</glyph>
<glyph name="Gamma" format="2">
  <advance width="544" height="544"/>
  <unicode hex="0393"/>
  <outline>
    <contour>
      <point x="537" y="649" type="line"/>
      <point x="182" y="649" type="line"/>
      <point x="182" y="0" type="line"/>
      <point x="85" y="0" type="line"/>
      <point x="85" y="737" type="line"/>
      <point x="537" y="737" type="line"/>
    </contour>
  </outline>
</glyph>
<glyph name="Rho" format="2">
  <advance width="617" height="617"/>
  <unicode hex="03A1"/>
  <outline>
    <contour>
      <point x="583" y="535" type="qcurve" smooth="yes"/>
      <point x="583" y="376"/>
      <point x="428" y="338" type="qcurve" smooth="yes"/>
      <point x="364" y="323"/>
      <point x="210" y="324" type="qcurve" smooth="yes"/>
      <point x="194" y="324"/>
      <point x="183" y="324" type="qcurve"/>
      <point x="183" y="0" type="line"/>
      <point x="85" y="0" type="line"/>
      <point x="85" y="737" type="line"/>
      <point x="342" y="737" type="line" smooth="yes"/>
      <point x="583" y="737"/>
    </contour>
    <contour>
      <point x="478" y="532" type="qcurve" smooth="yes"/>
      <point x="478" y="626"/>
      <point x="399" y="645" type="qcurve" smooth="yes"/>
      <point x="372" y="652"/>
      <point x="326" y="652" type="qcurve" smooth="yes"/>
      <point x="183" y="652" type="line"/>
      <point x="183" y="415" type="line"/>
      <point x="326" y="415" type="line" smooth="yes"/>
      <point x="436" y="415"/>
      <point x="465" y="470" type="qcurve" smooth="yes"/>
      <point x="478" y="496"/>
    </contour>
  </outline>
</glyph>
<glyph name="Phi" format="2">
  <advance width="831" height="831"/>
  <unicode hex="03A6"/>
  <outline>
    <contour>
      <point x="784" y="370" type="qcurve" smooth="yes"/>
      <point x="784" y="179"/>
      <point x="631" y="100" type="qcurve" smooth="yes"/>
      <point x="560" y="65"/>
      <point x="466" y="57" type="qcurve"/>
      <point x="466" y="-73" type="line"/>
      <point x="366" y="-73" type="line"/>
      <point x="366" y="57" type="line"/>
      <point x="176" y="70"/>
      <point x="95" y="193" type="qcurve" smooth="yes"/>
      <point x="47" y="266"/>
      <point x="47" y="370" type="qcurve" smooth="yes"/>
      <point x="47" y="548"/>
      <point x="187" y="629" type="qcurve" smooth="yes"/>
      <point x="262" y="672"/>
      <point x="366" y="679" type="qcurve"/>
      <point x="366" y="809" type="line"/>
      <point x="466" y="809" type="line"/>
      <point x="466" y="679" type="line"/>
      <point x="649" y="667"/>
      <point x="732" y="550" type="qcurve" smooth="yes"/>
      <point x="784" y="476"/>
    </contour>
    <contour>
      <point x="685" y="369" type="qcurve" smooth="yes"/>
      <point x="685" y="542"/>
      <point x="544" y="593" type="qcurve"/>
      <point x="498" y="605" type="line" smooth="yes"/>
      <point x="482" y="608"/>
      <point x="466" y="609" type="qcurve"/>
      <point x="466" y="130" type="line"/>
      <point x="629" y="145"/>
      <point x="672" y="276" type="qcurve" smooth="yes"/>
      <point x="685" y="318"/>
    </contour>
    <contour>
      <point x="366" y="130" type="qcurve"/>
      <point x="366" y="609" type="line"/>
      <point x="194" y="593"/>
      <point x="157" y="447" type="qcurve" smooth="yes"/>
      <point x="147" y="412"/>
      <point x="147" y="369" type="qcurve" smooth="yes"/>
      <point x="147" y="190"/>
      <point x="297" y="143" type="qcurve" smooth="yes"/>
      <point x="329" y="133"/>
    </contour>
  </outline>
</glyph>
<glyph name="upsilondieresistonos" format="2">
  <advance width="585" height="585"/>
  <unicode hex="03B0"/>
  <outline>
    <contour>
      <point x="458" y="608" type="line"/>
      <point x="378" y="608" type="line"/>
      <point x="378" y="698" type="line"/>
      <point x="458" y="698" type="line"/>
    </contour>
    <contour>
      <point x="341" y="782" type="line"/>
      <point x="327" y="608" type="line"/>
      <point x="260" y="608" type="line"/>
      <point x="245" y="782" type="line"/>
    </contour>
    <contour>
      <point x="209" y="608" type="line"/>
      <point x="129" y="608" type="line"/>
      <point x="129" y="698" type="line"/>
      <point x="209" y="698" type="line"/>
    </contour>
    <contour>
      <point x="508" y="191" type="line" smooth="yes"/>
      <point x="508" y="31"/>
      <point x="377" y="-1" type="qcurve" smooth="yes"/>
      <point x="341" y="-9"/>
      <point x="293" y="-9" type="qcurve" smooth="yes"/>
      <point x="131" y="-9"/>
      <point x="92" y="99" type="qcurve" smooth="yes"/>
      <point x="79" y="137"/>
      <point x="79" y="191" type="qcurve" smooth="yes"/>
      <point x="79" y="514" type="line"/>
      <point x="173" y="514" type="line"/>
      <point x="173" y="186" type="line" smooth="yes"/>
      <point x="173" y="61"/>
      <point x="413" y="61"/>
      <point x="413" y="186" type="qcurve" smooth="yes"/>
      <point x="413" y="514" type="line"/>
      <point x="508" y="514" type="line"/>
    </contour>
  </outline>
</glyph>
<glyph name="afii10051" format="2">
  <advance width="838" height="838"/>
  <unicode hex="0402"/>
  <outline>
    <contour>
      <point x="771" y="247" type="qcurve" smooth="yes"/>
      <point x="771" y="34"/>
      <point x="625" y="-2" type="qcurve" smooth="yes"/>
      <point x="593" y="-10"/>
      <point x="554" y="-10" type="qcurve" smooth="yes"/>
      <point x="507" y="-10"/>
      <point x="447" y="7" type="qcurve"/>
      <point x="447" y="80" type="line"/>
      <point x="502" y="63"/>
      <point x="543" y="63" type="qcurve" smooth="yes"/>
      <point x="648" y="63"/>
      <point x="668" y="167" type="qcurve" smooth="yes"/>
      <point x="673" y="196"/>
      <point x="673" y="237" type="qcurve" smooth="yes"/>
      <point x="673" y="351"/>
      <point x="625" y="389" type="qcurve" smooth="yes"/>
      <point x="589" y="418"/>
      <point x="517" y="418" type="qcurve" smooth="yes"/>
      <point x="427" y="418"/>
      <point x="375" y="375" type="qcurve" smooth="yes"/>
      <point x="339" y="344"/>
      <point x="339" y="299" type="qcurve" smooth="yes"/>
      <point x="339" y="0" type="line"/>
      <point x="241" y="0" type="line"/>
      <point x="241" y="649" type="line"/>
      <point x="12" y="649" type="line"/>
      <point x="12" y="737" type="line"/>
      <point x="586" y="737" type="line"/>
      <point x="586" y="649" type="line"/>
      <point x="339" y="649" type="line"/>
      <point x="339" y="398" type="line"/>
      <point x="386" y="483"/>
      <point x="525" y="489" type="qcurve" smooth="yes"/>
      <point x="535" y="489"/>
      <point x="543" y="489" type="qcurve" smooth="yes"/>
      <point x="716" y="489"/>
      <point x="757" y="359" type="qcurve" smooth="yes"/>
      <point x="770" y="307"/>
    </contour>
  </outline>
</glyph>
<glyph name="afii10053" format="2">
  <advance width="677" height="677"/>
  <unicode hex="0404"/>
  <outline>
    <contour>
      <point x="634" y="199" type="line"/>
      <point x="607" y="-1"/>
      <point x="389" y="-10" type="qcurve" smooth="yes"/>
      <point x="377" y="-11"/>
      <point x="365" y="-11" type="qcurve" smooth="yes"/>
      <point x="132" y="-11"/>
      <point x="75" y="213" type="qcurve" smooth="yes"/>
      <point x="57" y="280"/>
      <point x="57" y="365" type="qcurve" smooth="yes"/>
      <point x="57" y="590"/>
      <point x="180" y="688" type="qcurve" smooth="yes"/>
      <point x="257" y="749"/>
      <point x="375" y="749" type="qcurve" smooth="yes"/>
      <point x="558" y="749"/>
      <point x="612" y="623" type="qcurve" smooth="yes"/>
      <point x="628" y="588"/>
      <point x="632" y="544" type="qcurve"/>
      <point x="527" y="544" type="line"/>
      <point x="511" y="645"/>
      <point x="417" y="666" type="qcurve" smooth="yes"/>
      <point x="396" y="671"/>
      <point x="372" y="671" type="qcurve" smooth="yes"/>
      <point x="237" y="671"/>
      <point x="186" y="538" type="qcurve"/>
      <point x="172" y="489" type="line" smooth="yes"/>
      <point x="166" y="459"/>
      <point x="164" y="426" type="qcurve"/>
      <point x="469" y="426" type="line"/>
      <point x="469" y="339" type="line"/>
      <point x="163" y="339" type="line"/>
      <point x="179" y="73"/>
      <point x="374" y="73" type="qcurve" smooth="yes"/>
      <point x="502" y="73"/>
      <point x="528" y="194" type="qcurve" smooth="yes"/>
      <point x="529" y="197"/>
      <point x="529" y="199" type="qcurve"/>
    </contour>
  </outline>
</glyph>
<glyph name="afii10019" format="2">
  <advance width="656" height="656"/>
  <unicode hex="0412"/>
  <outline>
    <contour>
      <point x="603" y="196" type="qcurve" smooth="yes"/>
      <point x="603" y="52"/>
      <point x="485" y="15" type="qcurve" smooth="yes"/>
      <point x="434" y="0"/>
      <point x="349" y="0" type="qcurve" smooth="yes"/>
      <point x="85" y="0" type="line"/>
      <point x="85" y="737" type="line"/>
      <point x="336" y="737" type="line" smooth="yes"/>
      <point x="436" y="737"/>
      <point x="482" y="716" type="qcurve" smooth="yes"/>
      <point x="577" y="672"/>
      <point x="584" y="563" type="qcurve"/>
      <point x="584" y="549" type="line" smooth="yes"/>
      <point x="584" y="433"/>
      <point x="476" y="391" type="qcurve"/>
      <point x="476" y="391"/>
      <point x="464" y="387" type="qcurve"/>
      <point x="603" y="346"/>
    </contour>
    <contour>
      <point x="478" y="538" type="qcurve" smooth="yes"/>
      <point x="478" y="655"/>
      <point x="326" y="655" type="qcurve" smooth="yes"/>
      <point x="183" y="655" type="line"/>
      <point x="183" y="424" type="line"/>
      <point x="326" y="424" type="line" smooth="yes"/>
      <point x="430" y="424"/>
      <point x="461" y="469" type="qcurve" smooth="yes"/>
      <point x="478" y="495"/>
    </contour>
    <contour>
      <point x="499" y="211" type="qcurve" smooth="yes"/>
      <point x="499" y="342"/>
      <point x="335" y="342" type="qcurve" smooth="yes"/>
      <point x="183" y="342" type="line"/>
      <point x="183" y="82" type="line"/>
      <point x="335" y="82" type="line" smooth="yes"/>
      <point x="454" y="82"/>
      <point x="485" y="143" type="qcurve" smooth="yes"/>
      <point x="499" y="170"/>
    </contour>
  </outline>
</glyph>
<glyph name="afii10043" format="2">
  <advance width="934" height="934"/>
  <unicode hex="0429"/>
  <outline>
    <contour>
      <point x="913" y="-108" type="line"/>
      <point x="834" y="-108" type="line"/>
      <point x="828" y="0" type="line"/>
      <point x="85" y="0" type="line"/>
      <point x="85" y="737" type="line"/>
      <point x="185" y="737" type="line"/>
      <point x="185" y="87" type="line"/>
      <point x="413" y="87" type="line"/>
      <point x="413" y="737" type="line"/>
      <point x="511" y="737" type="line"/>
      <point x="511" y="87" type="line"/>
      <point x="737" y="87" type="line"/>
      <point x="737" y="737" type="line"/>
      <point x="838" y="737" type="line"/>
      <point x="838" y="87" type="line"/>
      <point x="913" y="87" type="line"/>
    </contour>
  </outline>
</glyph>
<glyph name="afii10048" format="2">
  <advance width="994" height="994"/>
  <unicode hex="042E"/>
  <outline>
    <contour>
      <point x="936" y="367" type="qcurve" smooth="yes"/>
      <point x="936" y="132"/>
      <point x="799" y="40" type="qcurve" smooth="yes"/>
      <point x="723" y="-11"/>
      <point x="610" y="-11" type="qcurve" smooth="yes"/>
      <point x="409" y="-11"/>
      <point x="327" y="153" type="qcurve" smooth="yes"/>
      <point x="289" y="229"/>
      <point x="284" y="335" type="qcurve"/>
      <point x="185" y="335" type="line"/>
      <point x="185" y="0" type="line"/>
      <point x="85" y="0" type="line"/>
      <point x="85" y="737" type="line"/>
      <point x="185" y="737" type="line"/>
      <point x="185" y="423" type="line"/>
      <point x="285" y="423" type="line"/>
      <point x="301" y="627"/>
      <point x="438" y="707" type="qcurve" smooth="yes"/>
      <point x="510" y="749"/>
      <point x="610" y="749" type="qcurve" smooth="yes"/>
      <point x="836" y="749"/>
      <point x="907" y="553" type="qcurve" smooth="yes"/>
      <point x="936" y="473"/>
    </contour>
    <contour>
      <point x="829" y="370" type="qcurve" smooth="yes"/>
      <point x="829" y="583"/>
      <point x="711" y="645" type="qcurve" smooth="yes"/>
      <point x="663" y="667"/>
      <point x="609" y="668" type="qcurve" smooth="yes"/>
      <point x="441" y="668"/>
      <point x="400" y="486" type="qcurve" smooth="yes"/>
      <point x="389" y="435"/>
      <point x="389" y="372" type="qcurve" smooth="yes"/>
      <point x="389" y="161"/>
      <point x="506" y="97" type="qcurve" smooth="yes"/>
      <point x="550" y="73"/>
      <point x="609" y="73" type="qcurve" smooth="yes"/>
      <point x="779" y="73"/>
      <point x="819" y="259" type="qcurve" smooth="yes"/>
      <point x="829" y="309"/>
    </contour>
  </outline>
</glyph>
<glyph name="afii10067" format="2">
  <advance width="557" height="557"/>
  <unicode hex="0432"/>
  <outline>
    <contour>
      <point x="508" y="144" type="qcurve" smooth="yes"/>
      <point x="508" y="34"/>
      <point x="411" y="9" type="qcurve" smooth="yes"/>
      <point x="376" y="0"/>
      <point x="321" y="0" type="qcurve" smooth="yes"/>
      <point x="83" y="0" type="line"/>
      <point x="83" y="514" type="line"/>
      <point x="310" y="514" type="line" smooth="yes"/>
      <point x="472" y="514"/>
      <point x="490" y="413" type="qcurve" smooth="yes"/>
      <point x="493" y="399"/>
      <point x="493" y="384" type="qcurve" smooth="yes"/>
      <point x="493" y="301"/>
      <point x="415" y="273" type="qcurve" smooth="yes"/>
      <point x="410" y="271"/>
      <point x="404" y="270" type="qcurve"/>
      <point x="483" y="253"/>
      <point x="503" y="183" type="qcurve" smooth="yes"/>
      <point x="508" y="165"/>
    </contour>
    <contour>
      <point x="400" y="372" type="qcurve" smooth="yes"/>
      <point x="400" y="445"/>
      <point x="310" y="445" type="qcurve" smooth="yes"/>
      <point x="179" y="445" type="line"/>
      <point x="179" y="301" type="line"/>
      <point x="310" y="301" type="line" smooth="yes"/>
      <point x="386" y="301"/>
      <point x="398" y="349" type="qcurve" smooth="yes"/>
      <point x="400" y="359"/>
    </contour>
    <contour>
      <point x="413" y="151" type="qcurve" smooth="yes"/>
      <point x="413" y="233"/>
      <point x="315" y="233" type="qcurve" smooth="yes"/>
      <point x="179" y="233" type="line"/>
      <point x="179" y="68" type="line"/>
      <point x="315" y="68" type="line" smooth="yes"/>
      <point x="393" y="68"/>
      <point x="409" y="117" type="qcurve" smooth="yes"/>
      <point x="413" y="131"/>
    </contour>
  </outline>
</glyph>
<glyph name="afii10075" format="2">
  <advance width="610" height="610"/>
  <unicode hex="0439"/>
  <outline>
    <contour>
      <point x="470" y="738" type="line"/>
      <point x="460" y="599"/>
      <point x="312" y="599" type="qcurve" smooth="yes"/>
      <point x="165" y="599"/>
      <point x="155" y="738" type="qcurve"/>
      <point x="231" y="738" type="line"/>
      <point x="237" y="654"/>
      <point x="312" y="654" type="qcurve" smooth="yes"/>
      <point x="388" y="654"/>
      <point x="393" y="738" type="qcurve"/>
    </contour>
    <contour>
      <point x="527" y="0" type="line"/>
      <point x="441" y="0" type="line"/>
      <point x="441" y="410" type="line"/>
      <point x="181" y="0" type="line"/>
      <point x="83" y="0" type="line"/>
      <point x="83" y="514" type="line"/>
      <point x="170" y="514" type="line"/>
      <point x="170" y="117" type="line"/>
      <point x="416" y="514" type="line"/>
      <point x="527" y="514" type="line"/>
    </contour>
  </outline>
</glyph>
<glyph name="afii10077" format="2">
  <advance width="589" height="589"/>
  <unicode hex="043B"/>
  <outline>
    <contour>
      <point x="507" y="0" type="line"/>
      <point x="412" y="0" type="line"/>
      <point x="412" y="446" type="line"/>
      <point x="195" y="446" type="line"/>
      <point x="195" y="161" type="line" smooth="yes"/>
      <point x="195" y="66"/>
      <point x="169" y="35" type="qcurve" smooth="yes"/>
      <point x="154" y="20" type="line"/>
      <point x="130" y="9" type="line" smooth="yes"/>
      <point x="104" y="0"/>
      <point x="65" y="0" type="qcurve" smooth="yes"/>
      <point x="36" y="0"/>
      <point x="22" y="4" type="qcurve"/>
      <point x="22" y="86" type="line"/>
      <point x="40" y="85" type="line"/>
      <point x="41" y="85" type="line" smooth="yes"/>
      <point x="87" y="85"/>
      <point x="95" y="115" type="qcurve" smooth="yes"/>
      <point x="99" y="127"/>
      <point x="99" y="161" type="qcurve" smooth="yes"/>
      <point x="99" y="514" type="line"/>
      <point x="507" y="514" type="line"/>
    </contour>
  </outline>
</glyph>
<glyph name="afii10091" format="2">
  <advance width="831" height="831"/>
  <unicode hex="0449"/>
  <outline>
    <contour>
      <point x="809" y="-93" type="line"/>
      <point x="732" y="-93" type="line"/>
      <point x="728" y="0" type="line"/>
      <point x="83" y="0" type="line"/>
      <point x="83" y="514" type="line"/>
      <point x="179" y="514" type="line"/>
      <point x="179" y="68" type="line"/>
      <point x="366" y="68" type="line"/>
      <point x="366" y="514" type="line"/>
      <point x="460" y="514" type="line"/>
      <point x="460" y="68" type="line"/>
      <point x="646" y="68" type="line"/>
      <point x="646" y="514" type="line"/>
      <point x="740" y="514" type="line"/>
      <point x="740" y="68" type="line"/>
      <point x="809" y="68" type="line"/>
    </contour>
  </outline>
</glyph>
<glyph name="afii10094" format="2">
  <advance width="509" height="509"/>
  <unicode hex="044C"/>
  <outline>
    <contour>
      <point x="480" y="164" type="qcurve" smooth="yes"/>
      <point x="480" y="41"/>
      <point x="384" y="11" type="qcurve" smooth="yes"/>
      <point x="345" y="0"/>
      <point x="285" y="0" type="qcurve" smooth="yes"/>
      <point x="83" y="0" type="line"/>
      <point x="83" y="514" type="line"/>
      <point x="179" y="514" type="line"/>
      <point x="179" y="334" type="line"/>
      <point x="303" y="334"/>
      <point x="332" y="331" type="qcurve" smooth="yes"/>
      <point x="446" y="316"/>
      <point x="472" y="230" type="qcurve" smooth="yes"/>
      <point x="480" y="202"/>
    </contour>
    <contour>
      <point x="385" y="167" type="qcurve" smooth="yes"/>
      <point x="385" y="267"/>
      <point x="283" y="267" type="qcurve" smooth="yes"/>
      <point x="179" y="267" type="line"/>
      <point x="179" y="67" type="line"/>
      <point x="283" y="67" type="line" smooth="yes"/>
      <point x="367" y="67"/>
      <point x="381" y="129" type="qcurve" smooth="yes"/>
      <point x="385" y="145"/>
    </contour>
  </outline>
</glyph>
<glyph name="afii10096" format="2">
  <advance width="825" height="825"/>
  <unicode hex="044E"/>
  <outline>
    <contour>
      <point x="771" y="261" type="qcurve" smooth="yes"/>
      <point x="771" y="99"/>
      <point x="666" y="29" type="qcurve" smooth="yes"/>
      <point x="604" y="-11"/>
      <point x="515" y="-11" type="qcurve" smooth="yes"/>
      <point x="326" y="-11"/>
      <point x="276" y="146" type="qcurve" smooth="yes"/>
      <point x="265" y="184"/>
      <point x="262" y="230" type="qcurve"/>
      <point x="179" y="230" type="line"/>
      <point x="179" y="0" type="line"/>
      <point x="83" y="0" type="line"/>
      <point x="83" y="514" type="line"/>
      <point x="179" y="514" type="line"/>
      <point x="179" y="299" type="line"/>
      <point x="265" y="299" type="line"/>
      <point x="290" y="470"/>
      <point x="428" y="513" type="qcurve" smooth="yes"/>
      <point x="469" y="525"/>
      <point x="518" y="525" type="qcurve" smooth="yes"/>
      <point x="680" y="525"/>
      <point x="741" y="402" type="qcurve" smooth="yes"/>
      <point x="771" y="343"/>
    </contour>
    <contour>
      <point x="674" y="260" type="qcurve" smooth="yes"/>
      <point x="674" y="398"/>
      <point x="591" y="441" type="qcurve"/>
      <point x="560" y="453" type="line" smooth="yes"/>
      <point x="541" y="458"/>
      <point x="517" y="458" type="qcurve" smooth="yes"/>
      <point x="411" y="458"/>
      <point x="374" y="348" type="qcurve" smooth="yes"/>
      <point x="359" y="305"/>
      <point x="359" y="252" type="qcurve" smooth="yes"/>
      <point x="359" y="117"/>
      <point x="443" y="75" type="qcurve" smooth="yes"/>
      <point x="474" y="59"/>
      <point x="516" y="59" type="qcurve" smooth="yes"/>
      <point x="630" y="59"/>
      <point x="663" y="175" type="qcurve" smooth="yes"/>
      <point x="674" y="214"/>
    </contour>
  </outline>
</glyph>
<glyph name="afii10071" format="2">
  <advance width="564" height="564"/>
  <unicode hex="0451"/>
  <outline>
    <contour>
      <point x="418" y="611" type="line"/>
      <point x="326" y="611" type="line"/>
      <point x="326" y="716" type="line"/>
      <point x="418" y="716" type="line"/>
    </contour>
    <contour>
      <point x="253" y="611" type="line"/>
      <point x="161" y="611" type="line"/>
      <point x="161" y="716" type="line"/>
      <point x="253" y="716" type="line"/>
    </contour>
    <contour>
      <point x="513" y="294" type="qcurve" smooth="yes"/>
      <point x="513" y="259"/>
      <point x="510" y="242" type="qcurve"/>
      <point x="145" y="242" type="line"/>
      <point x="144" y="213" type="line"/>
      <point x="144" y="212" type="line" smooth="yes"/>
      <point x="144" y="93"/>
      <point x="237" y="66" type="qcurve" smooth="yes"/>
      <point x="260" y="58"/>
      <point x="289" y="58" type="qcurve" smooth="yes"/>
      <point x="374" y="58"/>
      <point x="401" y="117" type="qcurve" smooth="yes"/>
      <point x="413" y="137"/>
      <point x="413" y="165" type="qcurve"/>
      <point x="503" y="165" type="line"/>
      <point x="500" y="43"/>
      <point x="385" y="4" type="qcurve" smooth="yes"/>
      <point x="342" y="-11"/>
      <point x="288" y="-11" type="qcurve" smooth="yes"/>
      <point x="110" y="-11"/>
      <point x="65" y="142" type="qcurve" smooth="yes"/>
      <point x="51" y="188"/>
      <point x="51" y="247" type="qcurve" smooth="yes"/>
      <point x="51" y="441"/>
      <point x="174" y="503" type="qcurve" smooth="yes"/>
      <point x="222" y="526"/>
      <point x="288" y="526" type="qcurve" smooth="yes"/>
      <point x="444" y="526"/>
      <point x="494" y="403" type="qcurve" smooth="yes"/>
      <point x="513" y="356"/>
    </contour>
    <contour>
      <point x="416" y="308" type="line"/>
      <point x="416" y="321" type="line" smooth="yes"/>
      <point x="416" y="407"/>
      <point x="357" y="443" type="qcurve" smooth="yes"/>
      <point x="328" y="462"/>
      <point x="289" y="462" type="qcurve" smooth="yes"/>
      <point x="203" y="462"/>
      <point x="167" y="385" type="qcurve" smooth="yes"/>
      <point x="152" y="351"/>
      <point x="151" y="308" type="qcurve"/>
    </contour>
  </outline>
</glyph>
<glyph name="afii10099" format="2">
  <advance width="594" height="594"/>
  <unicode hex="0452"/>
  <outline>
    <contour>
      <point x="516" y="-54" type="line" smooth="yes"/>
      <point x="516" y="-170"/>
      <point x="434" y="-194" type="qcurve"/>
      <point x="396" y="-199" type="line" smooth="yes"/>
      <point x="388" y="-200"/>
      <point x="379" y="-200" type="qcurve" smooth="yes"/>
      <point x="378" y="-200"/>
      <point x="329" y="-197" type="qcurve"/>
      <point x="329" y="-127" type="line"/>
      <point x="393" y="-127"/>
      <point x="410" y="-103" type="qcurve" smooth="yes"/>
      <point x="422" y="-85"/>
      <point x="422" y="-35" type="qcurve" smooth="yes"/>
      <point x="422" y="325" type="line"/>
      <point x="416" y="447"/>
      <point x="309" y="451" type="qcurve" smooth="yes"/>
      <point x="239" y="451"/>
      <point x="201" y="401" type="qcurve"/>
      <point x="187" y="379" type="line" smooth="yes"/>
      <point x="178" y="358"/>
      <point x="178" y="334" type="qcurve" smooth="yes"/>
      <point x="178" y="0" type="line"/>
      <point x="83" y="0" type="line"/>
      <point x="83" y="595" type="line"/>
      <point x="0" y="595" type="line"/>
      <point x="0" y="662" type="line"/>
      <point x="83" y="662" type="line"/>
      <point x="83" y="737" type="line"/>
      <point x="178" y="737" type="line"/>
      <point x="178" y="662" type="line"/>
      <point x="341" y="662" type="line"/>
      <point x="341" y="595" type="line"/>
      <point x="178" y="595" type="line"/>
      <point x="178" y="429" type="line"/>
      <point x="208" y="500"/>
      <point x="296" y="516" type="qcurve" smooth="yes"/>
      <point x="315" y="520"/>
      <point x="336" y="520" type="qcurve" smooth="yes"/>
      <point x="424" y="520"/>
      <point x="476" y="468" type="qcurve" smooth="yes"/>
      <point x="502" y="442"/>
      <point x="510" y="407" type="qcurve" smooth="yes"/>
      <point x="516" y="378"/>
      <point x="516" y="318" type="qcurve" smooth="yes"/>
    </contour>
  </outline>
</glyph>
<glyph name="afii10103" format="2">
  <advance width="256" height="256"/>
  <unicode hex="0456"/>
  <outline>
    <contour>
      <point x="183" y="633" type="line"/>
      <point x="73" y="633" type="line"/>
      <point x="73" y="737" type="line"/>
      <point x="183" y="737" type="line"/>
    </contour>
    <contour>
      <point x="176" y="0" type="line"/>
      <point x="81" y="0" type="line"/>
      <point x="81" y="514" type="line"/>
      <point x="176" y="514" type="line"/>
    </contour>
  </outline>
</glyph>
<glyph name="afii10109" format="2">
  <advance width="541" height="541"/>
  <unicode hex="045C"/>
  <outline>
    <contour>
      <point x="402" y="756" type="line"/>
      <point x="260" y="582" type="line"/>
      <point x="200" y="582" type="line"/>
      <point x="302" y="756" type="line"/>
    </contour>
    <contour>
      <point x="538" y="0" type="line"/>
      <point x="423" y="0" type="line"/>
      <point x="271" y="195" type="line" smooth="yes"/>
      <point x="241" y="234"/>
      <point x="199" y="239" type="qcurve" smooth="yes"/>
      <point x="190" y="240"/>
      <point x="179" y="240" type="qcurve"/>
      <point x="179" y="0" type="line"/>
      <point x="83" y="0" type="line"/>
      <point x="83" y="514" type="line"/>
      <point x="179" y="514" type="line"/>
      <point x="179" y="302" type="line"/>
      <point x="186" y="301" type="line"/>
      <point x="187" y="301" type="line" smooth="yes"/>
      <point x="224" y="301"/>
      <point x="285" y="370" type="qcurve" smooth="yes"/>
      <point x="354" y="451" type="line"/>
      <point x="418" y="516"/>
      <point x="470" y="516" type="qcurve"/>
      <point x="495" y="513" type="line"/>
      <point x="496" y="513" type="line"/>
      <point x="496" y="439" type="line"/>
      <point x="492" y="440"/>
      <point x="482" y="440" type="qcurve" smooth="yes"/>
      <point x="451" y="440"/>
      <point x="397" y="380" type="qcurve" smooth="yes"/>
      <point x="341" y="316"/>
      <point x="326" y="303" type="qcurve" smooth="yes"/>
      <point x="300" y="281"/>
      <point x="276" y="275" type="qcurve"/>
      <point x="318" y="272"/>
      <point x="369" y="209" type="qcurve" smooth="yes"/>
      <point x="371" y="207"/>
      <point x="377" y="200" type="qcurve" smooth="yes"/>
    </contour>
  </outline>
</glyph>
<glyph name="uni1113" format="2">
  <advance width="1024" height="1024"/>
  <unicode hex="1113"/>
  <outline>
    <contour>
      <point x="881" y="113" type="line"/>
      <point x="817" y="113" type="line"/>
      <point x="817" y="551" type="line"/>
      <point x="547" y="551" type="line"/>
      <point x="547" y="607" type="line"/>
      <point x="881" y="607" type="line"/>
    </contour>
    <contour>
      <point x="511" y="153" type="line"/>
      <point x="359" y="125"/>
      <point x="251" y="125" type="qcurve" smooth="yes"/>
      <point x="159" y="125" type="line"/>
      <point x="159" y="607" type="line"/>
      <point x="226" y="607"/>
      <point x="234" y="593" type="qcurve" smooth="yes"/>
      <point x="234" y="590"/>
      <point x="225" y="571" type="qcurve" smooth="yes"/>
      <point x="223" y="566"/>
      <point x="223" y="562" type="qcurve" smooth="yes"/>
      <point x="223" y="179" type="line"/>
      <point x="262" y="179" type="line" smooth="yes"/>
      <point x="385" y="179"/>
      <point x="511" y="210" type="qcurve"/>
    </contour>
  </outline>
</glyph>
<glyph name="uni111A" format="2">
  <advance width="1024" height="1024"/>
  <unicode hex="111A"/>
  <outline>
    <contour>
      <point x="795" y="591" type="line"/>
      <point x="585" y="591" type="line"/>
      <point x="585" y="638" type="line"/>
      <point x="795" y="638" type="line"/>
    </contour>
    <contour>
      <point x="932" y="454" type="line"/>
      <point x="465" y="454" type="line"/>
      <point x="465" y="505" type="line"/>
      <point x="932" y="505" type="line"/>
    </contour>
    <contour>
      <point x="862" y="224" type="qcurve" smooth="yes"/>
      <point x="862" y="147"/>
      <point x="782" y="109" type="qcurve" smooth="yes"/>
      <point x="738" y="88"/>
      <point x="689" y="88" type="qcurve" smooth="yes"/>
      <point x="598" y="88"/>
      <point x="549" y="140" type="qcurve" smooth="yes"/>
      <point x="515" y="175"/>
      <point x="515" y="226" type="qcurve" smooth="yes"/>
      <point x="515" y="334"/>
      <point x="611" y="369" type="qcurve" smooth="yes"/>
      <point x="636" y="377"/>
      <point x="665" y="380" type="qcurve"/>
      <point x="665" y="424" type="line"/>
      <point x="733" y="424"/>
      <point x="733" y="414" type="qcurve" smooth="yes"/>
      <point x="733" y="410"/>
      <point x="721" y="397" type="qcurve"/>
      <point x="719" y="382" type="line"/>
      <point x="719" y="380" type="line"/>
      <point x="814" y="370"/>
      <point x="848" y="294" type="qcurve" smooth="yes"/>
      <point x="862" y="263"/>
    </contour>
    <contour>
      <point x="802" y="232" type="qcurve" smooth="yes"/>
      <point x="802" y="306"/>
      <point x="734" y="328" type="qcurve" smooth="yes"/>
      <point x="714" y="334"/>
      <point x="689" y="334" type="qcurve" smooth="yes"/>
      <point x="610" y="334"/>
      <point x="586" y="276" type="qcurve" smooth="yes"/>
      <point x="578" y="257"/>
      <point x="578" y="232" type="qcurve" smooth="yes"/>
      <point x="578" y="159"/>
      <point x="645" y="137" type="qcurve" smooth="yes"/>
      <point x="666" y="131"/>
      <point x="689" y="131" type="qcurve" smooth="yes"/>
      <point x="767" y="131"/>
      <point x="793" y="187" type="qcurve" smooth="yes"/>
      <point x="802" y="207"/>
    </contour>
    <contour>
      <point x="472" y="142" type="line"/>
      <point x="339" y="125"/>
      <point x="142" y="125" type="qcurve"/>
      <point x="142" y="418" type="line"/>
      <point x="375" y="418" type="line"/>
      <point x="375" y="551" type="line"/>
      <point x="142" y="551" type="line"/>
      <point x="142" y="607" type="line"/>
      <point x="439" y="607" type="line"/>
      <point x="439" y="362" type="line"/>
      <point x="206" y="362" type="line"/>
      <point x="206" y="180" type="line"/>
      <point x="381" y="184"/>
      <point x="466" y="200" type="qcurve"/>
    </contour>
  </outline>
</glyph>
<glyph name="uni1128" format="2">
  <advance width="1024" height="1024"/>
  <unicode hex="1128"/>
  <outline>
    <contour>
      <point x="818" y="601" type="line"/>
      <point x="620" y="601" type="line"/>
      <point x="620" y="657" type="line"/>
      <point x="818" y="657" type="line"/>
    </contour>
    <contour>
      <point x="944" y="172" type="qcurve"/>
      <point x="907" y="114" type="line"/>
      <point x="759" y="196"/>
      <point x="713" y="377" type="qcurve"/>
      <point x="662" y="195"/>
      <point x="521" y="114" type="qcurve"/>
      <point x="484" y="171" type="line"/>
      <point x="545" y="198"/>
      <point x="595" y="271" type="qcurve" smooth="yes"/>
      <point x="602" y="282"/>
      <point x="624" y="315" type="qcurve" smooth="yes"/>
      <point x="669" y="386"/>
      <point x="678" y="455" type="qcurve" smooth="yes"/>
      <point x="678" y="460"/>
      <point x="679" y="466" type="qcurve"/>
      <point x="526" y="466" type="line"/>
      <point x="526" y="522" type="line"/>
      <point x="902" y="522" type="line"/>
      <point x="902" y="466" type="line"/>
      <point x="746" y="466" type="line"/>
      <point x="758" y="359"/>
      <point x="830" y="265" type="qcurve" smooth="yes"/>
      <point x="882" y="199"/>
    </contour>
    <contour>
      <point x="462" y="599" type="qcurve" smooth="yes"/>
      <point x="454" y="573" type="line"/>
      <point x="454" y="572" type="line"/>
      <point x="454" y="113" type="line"/>
      <point x="390" y="113" type="line"/>
      <point x="390" y="141" type="line"/>
      <point x="155" y="141" type="line"/>
      <point x="155" y="113" type="line"/>
      <point x="91" y="113" type="line"/>
      <point x="91" y="607" type="line"/>
      <point x="145" y="607" type="line" smooth="yes"/>
      <point x="163" y="607"/>
      <point x="166" y="604" type="qcurve" smooth="yes"/>
      <point x="166" y="600"/>
      <point x="158" y="588" type="qcurve" smooth="yes"/>
      <point x="155" y="583"/>
      <point x="155" y="577" type="qcurve" smooth="yes"/>
      <point x="155" y="450" type="line"/>
      <point x="390" y="450" type="line"/>
      <point x="390" y="607" type="line"/>
      <point x="433" y="607" type="line" smooth="yes"/>
      <point x="462" y="607"/>
    </contour>
    <contour>
      <point x="390" y="196" type="line"/>
      <point x="390" y="394" type="line"/>
      <point x="155" y="394" type="line"/>
      <point x="155" y="196" type="line"/>
    </contour>
  </outline>
</glyph>
<glyph name="uni1133" format="2">
  <advance width="1024" height="1024"/>
  <unicode hex="1133"/>
  <outline>
    <contour>
      <point x="930" y="113" type="line"/>
      <point x="864" y="113" type="line"/>
      <point x="864" y="550" type="line"/>
      <point x="672" y="550" type="line"/>
      <point x="672" y="607" type="line"/>
      <point x="930" y="607" type="line"/>
    </contour>
    <contour>
      <point x="649" y="597" type="qcurve" smooth="yes"/>
      <point x="642" y="571" type="line"/>
      <point x="642" y="570" type="line"/>
      <point x="642" y="111" type="line"/>
      <point x="578" y="111" type="line"/>
      <point x="578" y="139" type="line"/>
      <point x="447" y="139" type="line"/>
      <point x="447" y="111" type="line"/>
      <point x="384" y="111" type="line"/>
      <point x="384" y="605" type="line"/>
      <point x="437" y="605" type="line" smooth="yes"/>
      <point x="456" y="605"/>
      <point x="459" y="602" type="qcurve" smooth="yes"/>
      <point x="459" y="598"/>
      <point x="451" y="586" type="qcurve" smooth="yes"/>
      <point x="447" y="581"/>
      <point x="447" y="574" type="qcurve" smooth="yes"/>
      <point x="447" y="447" type="line"/>
      <point x="578" y="447" type="line"/>
      <point x="578" y="605" type="line"/>
      <point x="621" y="605" type="line" smooth="yes"/>
      <point x="649" y="605"/>
    </contour>
    <contour>
      <point x="578" y="194" type="line"/>
      <point x="578" y="392" type="line"/>
      <point x="447" y="392" type="line"/>
      <point x="447" y="194" type="line"/>
    </contour>
    <contour>
      <point x="370" y="166" type="qcurve"/>
      <point x="325" y="121" type="line"/>
      <point x="247" y="246"/>
      <point x="227" y="317" type="qcurve" smooth="yes"/>
      <point x="222" y="337"/>
      <point x="219" y="355" type="qcurve"/>
      <point x="202" y="251"/>
      <point x="124" y="144" type="qcurve" smooth="yes"/>
      <point x="115" y="132"/>
      <point x="104" y="120" type="qcurve"/>
      <point x="59" y="165" type="line"/>
      <point x="133" y="228"/>
      <point x="171" y="360" type="qcurve" smooth="yes"/>
      <point x="189" y="426"/>
      <point x="189" y="481" type="qcurve" smooth="yes"/>
      <point x="189" y="620" type="line"/>
      <point x="265" y="612"/>
      <point x="265" y="600" type="qcurve"/>
      <point x="252" y="573" type="line"/>
      <point x="251" y="566" type="line"/>
      <point x="251" y="481" type="line" smooth="yes"/>
      <point x="251" y="364"/>
      <point x="322" y="238" type="qcurve" smooth="yes"/>
      <point x="344" y="198"/>
    </contour>
  </outline>
</glyph>
<glyph name="uni1134" format="2">
  <advance width="1024" height="1024"/>
  <unicode hex="1134"/>
  <outline>
    <contour>
      <point x="940" y="169" type="qcurve"/>
      <point x="895" y="124" type="line"/>
      <point x="817" y="249"/>
      <point x="798" y="321" type="qcurve" smooth="yes"/>
      <point x="793" y="340"/>
      <point x="790" y="358" type="qcurve"/>
      <point x="772" y="254"/>
      <point x="694" y="147" type="qcurve" smooth="yes"/>
      <point x="685" y="135"/>
      <point x="675" y="123" type="qcurve"/>
      <point x="644" y="153" type="line"/>
      <point x="612" y="121" type="line"/>
      <point x="535" y="246"/>
      <point x="515" y="317" type="qcurve" smooth="yes"/>
      <point x="510" y="337"/>
      <point x="507" y="355" type="qcurve"/>
      <point x="489" y="251"/>
      <point x="412" y="144" type="qcurve"/>
      <point x="412" y="144"/>
      <point x="392" y="120" type="qcurve"/>
      <point x="357" y="154" type="line"/>
      <point x="325" y="121" type="line"/>
      <point x="247" y="246"/>
      <point x="227" y="317" type="qcurve" smooth="yes"/>
      <point x="222" y="337"/>
      <point x="219" y="355" type="qcurve"/>
      <point x="202" y="251"/>
      <point x="124" y="144" type="qcurve" smooth="yes"/>
      <point x="115" y="132"/>
      <point x="104" y="120" type="qcurve"/>
      <point x="59" y="165" type="line"/>
      <point x="133" y="228"/>
      <point x="171" y="360" type="qcurve" smooth="yes"/>
      <point x="189" y="426"/>
      <point x="189" y="481" type="qcurve" smooth="yes"/>
      <point x="189" y="620" type="line"/>
      <point x="265" y="612"/>
      <point x="265" y="600" type="qcurve"/>
      <point x="252" y="573" type="line"/>
      <point x="251" y="566" type="line"/>
      <point x="251" y="481" type="line" smooth="yes"/>
      <point x="251" y="368"/>
      <point x="316" y="246" type="qcurve" smooth="yes"/>
      <point x="337" y="207"/>
      <point x="360" y="177" type="qcurve"/>
      <point x="430" y="247"/>
      <point x="463" y="376" type="qcurve" smooth="yes"/>
      <point x="477" y="433"/>
      <point x="477" y="481" type="qcurve" smooth="yes"/>
      <point x="477" y="620" type="line"/>
      <point x="553" y="612"/>
      <point x="553" y="600" type="qcurve"/>
      <point x="540" y="573" type="line"/>
      <point x="539" y="566" type="line"/>
      <point x="539" y="481" type="line" smooth="yes"/>
      <point x="539" y="367"/>
      <point x="607" y="241" type="qcurve" smooth="yes"/>
      <point x="625" y="208"/>
      <point x="644" y="181" type="qcurve"/>
      <point x="715" y="255"/>
      <point x="746" y="384" type="qcurve" smooth="yes"/>
      <point x="760" y="438"/>
      <point x="760" y="484" type="qcurve" smooth="yes"/>
      <point x="760" y="623" type="line"/>
      <point x="836" y="615"/>
      <point x="836" y="603" type="qcurve"/>
      <point x="822" y="577" type="line"/>
      <point x="821" y="569" type="line"/>
      <point x="821" y="484" type="line" smooth="yes"/>
      <point x="821" y="367"/>
      <point x="892" y="241" type="qcurve" smooth="yes"/>
      <point x="914" y="201"/>
    </contour>
  </outline>
</glyph>
<glyph name="uni1137" format="2">
  <advance width="1024" height="1024"/>
  <unicode hex="1137"/>
  <outline>
    <contour>
      <point x="818" y="601" type="line"/>
      <point x="620" y="601" type="line"/>
      <point x="620" y="657" type="line"/>
      <point x="818" y="657" type="line"/>
    </contour>
    <contour>
      <point x="944" y="172" type="qcurve"/>
      <point x="907" y="114" type="line"/>
      <point x="759" y="196"/>
      <point x="713" y="377" type="qcurve"/>
      <point x="662" y="195"/>
      <point x="521" y="114" type="qcurve"/>
      <point x="488" y="165" type="line"/>
      <point x="465" y="123" type="line"/>
      <point x="378" y="167"/>
      <point x="307" y="279" type="qcurve" smooth="yes"/>
      <point x="285" y="314"/>
      <point x="270" y="349" type="qcurve"/>
      <point x="244" y="261"/>
      <point x="167" y="177" type="qcurve" smooth="yes"/>
      <point x="133" y="140"/>
      <point x="99" y="119" type="qcurve"/>
      <point x="55" y="167" type="line"/>
      <point x="176" y="226"/>
      <point x="220" y="401" type="qcurve" smooth="yes"/>
      <point x="239" y="473"/>
      <point x="239" y="548" type="qcurve" smooth="yes"/>
      <point x="239" y="582"/>
      <point x="236" y="617" type="qcurve"/>
      <point x="289" y="614" type="line" smooth="yes"/>
      <point x="311" y="610"/>
      <point x="311" y="601" type="qcurve" smooth="yes"/>
      <point x="311" y="598"/>
      <point x="304" y="582" type="qcurve" smooth="yes"/>
      <point x="303" y="580"/>
      <point x="303" y="578" type="qcurve" smooth="yes"/>
      <point x="300" y="567"/>
      <point x="300" y="529" type="qcurve" smooth="yes"/>
      <point x="300" y="373"/>
      <point x="388" y="263" type="qcurve" smooth="yes"/>
      <point x="433" y="208"/>
      <point x="495" y="176" type="qcurve"/>
      <point x="494" y="175" type="line"/>
      <point x="550" y="204"/>
      <point x="598" y="276" type="qcurve" smooth="yes"/>
      <point x="604" y="285"/>
      <point x="624" y="315" type="qcurve" smooth="yes"/>
      <point x="669" y="386"/>
      <point x="678" y="455" type="qcurve" smooth="yes"/>
      <point x="678" y="460"/>
      <point x="679" y="466" type="qcurve"/>
      <point x="526" y="466" type="line"/>
      <point x="526" y="522" type="line"/>
      <point x="902" y="522" type="line"/>
      <point x="902" y="466" type="line"/>
      <point x="746" y="466" type="line"/>
      <point x="758" y="359"/>
      <point x="830" y="265" type="qcurve" smooth="yes"/>
      <point x="882" y="199"/>
    </contour>
  </outline>
</glyph>
<glyph name="uni1148" format="2">
  <advance width="1024" height="1024"/>
  <unicode hex="1148"/>
  <outline>
    <contour>
      <point x="971" y="172" type="qcurve"/>
      <point x="934" y="114" type="line"/>
      <point x="804" y="187"/>
      <point x="755" y="331" type="qcurve" smooth="yes"/>
      <point x="746" y="353"/>
      <point x="741" y="377" type="qcurve"/>
      <point x="688" y="194"/>
      <point x="549" y="114" type="qcurve"/>
      <point x="511" y="171" type="line"/>
      <point x="613" y="215"/>
      <point x="671" y="361" type="qcurve" smooth="yes"/>
      <point x="708" y="458"/>
      <point x="708" y="551" type="qcurve"/>
      <point x="553" y="551" type="line"/>
      <point x="553" y="607" type="line"/>
      <point x="929" y="607" type="line"/>
      <point x="929" y="551" type="line"/>
      <point x="773" y="551" type="line"/>
      <point x="773" y="420"/>
      <point x="835" y="306" type="qcurve" smooth="yes"/>
      <point x="889" y="207"/>
    </contour>
    <contour>
      <point x="287" y="115" type="qcurve" smooth="yes"/>
      <point x="176" y="115"/>
      <point x="126" y="221" type="qcurve" smooth="yes"/>
      <point x="98" y="281"/>
      <point x="98" y="353" type="qcurve" smooth="yes"/>
      <point x="98" y="463"/>
      <point x="159" y="530" type="qcurve" smooth="yes"/>
      <point x="200" y="575"/>
      <point x="259" y="584" type="qcurve"/>
      <point x="259" y="643" type="line"/>
      <point x="315" y="639"/>
      <point x="325" y="631" type="qcurve"/>
      <point x="325" y="628" type="line"/>
      <point x="316" y="609" type="line"/>
      <point x="316" y="584" type="line"/>
      <point x="408" y="571"/>
      <point x="451" y="471" type="qcurve" smooth="yes"/>
      <point x="474" y="416"/>
      <point x="474" y="354" type="qcurve" smooth="yes"/>
      <point x="474" y="243"/>
      <point x="415" y="173" type="qcurve" smooth="yes"/>
      <point x="365" y="115"/>
    </contour>
    <contour>
      <point x="411" y="351" type="qcurve" smooth="yes"/>
      <point x="411" y="443"/>
      <point x="366" y="497" type="qcurve" smooth="yes"/>
      <point x="345" y="520"/>
      <point x="317" y="529" type="qcurve" smooth="yes"/>
      <point x="303" y="534"/>
      <point x="287" y="534" type="qcurve" smooth="yes"/>
      <point x="207" y="534"/>
      <point x="175" y="437" type="qcurve" smooth="yes"/>
      <point x="162" y="396"/>
      <point x="162" y="351" type="qcurve" smooth="yes"/>
      <point x="162" y="259"/>
      <point x="207" y="206" type="qcurve" smooth="yes"/>
      <point x="239" y="168"/>
      <point x="287" y="168" type="qcurve" smooth="yes"/>
      <point x="366" y="168"/>
      <point x="397" y="264" type="qcurve" smooth="yes"/>
      <point x="411" y="306"/>
    </contour>
  </outline>
</glyph>
<glyph name="uni1149" format="2">
  <advance width="1024" height="1024"/>
  <unicode hex="1149"/>
  <outline>
    <contour>
      <point x="818" y="601" type="line"/>
      <point x="620" y="601" type="line"/>
      <point x="620" y="657" type="line"/>
      <point x="818" y="657" type="line"/>
    </contour>
    <contour>
      <point x="944" y="172" type="qcurve"/>
      <point x="907" y="114" type="line"/>
      <point x="759" y="196"/>
      <point x="713" y="377" type="qcurve"/>
      <point x="662" y="195"/>
      <point x="521" y="114" type="qcurve"/>
      <point x="484" y="171" type="line"/>
      <point x="545" y="198"/>
      <point x="595" y="271" type="qcurve" smooth="yes"/>
      <point x="602" y="282"/>
      <point x="624" y="315" type="qcurve" smooth="yes"/>
      <point x="669" y="386"/>
      <point x="678" y="455" type="qcurve" smooth="yes"/>
      <point x="678" y="460"/>
      <point x="679" y="466" type="qcurve"/>
      <point x="526" y="466" type="line"/>
      <point x="526" y="522" type="line"/>
      <point x="902" y="522" type="line"/>
      <point x="902" y="466" type="line"/>
      <point x="746" y="466" type="line"/>
      <point x="758" y="359"/>
      <point x="830" y="265" type="qcurve" smooth="yes"/>
      <point x="882" y="199"/>
    </contour>
    <contour>
      <point x="287" y="115" type="qcurve" smooth="yes"/>
      <point x="176" y="115"/>
      <point x="126" y="221" type="qcurve" smooth="yes"/>
      <point x="98" y="281"/>
      <point x="98" y="353" type="qcurve" smooth="yes"/>
      <point x="98" y="463"/>
      <point x="159" y="530" type="qcurve" smooth="yes"/>
      <point x="200" y="575"/>
      <point x="259" y="584" type="qcurve"/>
      <point x="259" y="643" type="line"/>
      <point x="315" y="639"/>
      <point x="325" y="631" type="qcurve"/>
      <point x="325" y="628" type="line"/>
      <point x="316" y="609" type="line"/>
      <point x="316" y="584" type="line"/>
      <point x="408" y="571"/>
      <point x="451" y="471" type="qcurve" smooth="yes"/>
      <point x="474" y="416"/>
      <point x="474" y="354" type="qcurve" smooth="yes"/>
      <point x="474" y="243"/>
      <point x="415" y="173" type="qcurve" smooth="yes"/>
      <point x="365" y="115"/>
    </contour>
    <contour>
      <point x="411" y="351" type="qcurve" smooth="yes"/>
      <point x="411" y="443"/>
      <point x="366" y="497" type="qcurve" smooth="yes"/>
      <point x="345" y="520"/>
      <point x="317" y="529" type="qcurve" smooth="yes"/>
      <point x="303" y="534"/>
      <point x="287" y="534" type="qcurve" smooth="yes"/>
      <point x="207" y="534"/>
      <point x="175" y="437" type="qcurve" smooth="yes"/>
      <point x="162" y="396"/>
      <point x="162" y="351" type="qcurve" smooth="yes"/>
      <point x="162" y="259"/>
      <point x="207" y="206" type="qcurve" smooth="yes"/>
      <point x="239" y="168"/>
      <point x="287" y="168" type="qcurve" smooth="yes"/>
      <point x="366" y="168"/>
      <point x="397" y="264" type="qcurve" smooth="yes"/>
      <point x="411" y="306"/>
    </contour>
  </outline>
</glyph>
<glyph name="uni114E" format="2">
  <advance width="1024" height="1024"/>
  <unicode hex="114E"/>
  <outline>
    <contour>
      <point x="775" y="569" type="line"/>
      <point x="565" y="569" type="line"/>
      <point x="565" y="558" type="line" smooth="yes"/>
      <point x="565" y="444"/>
      <point x="651" y="327" type="qcurve" smooth="yes"/>
      <point x="689" y="274"/>
      <point x="736" y="237" type="qcurve"/>
      <point x="696" y="190" type="line"/>
      <point x="585" y="278"/>
      <point x="534" y="413" type="qcurve"/>
      <point x="534" y="413"/>
      <point x="529" y="423" type="qcurve"/>
      <point x="477" y="306"/>
      <point x="343" y="182" type="qcurve" smooth="yes"/>
      <point x="249" y="94"/>
      <point x="164" y="54" type="qcurve"/>
      <point x="133" y="114" type="line"/>
      <point x="229" y="140"/>
      <point x="341" y="263" type="qcurve" smooth="yes"/>
      <point x="455" y="388"/>
      <point x="489" y="506" type="qcurve" smooth="yes"/>
      <point x="500" y="541"/>
      <point x="501" y="569" type="qcurve"/>
      <point x="204" y="569" type="line"/>
      <point x="204" y="626" type="line"/>
      <point x="775" y="626" type="line"/>
    </contour>
  </outline>
</glyph>
<glyph name="uni1155" format="2">
  <advance width="1024" height="1024"/>
  <unicode hex="1155"/>
  <outline>
    <contour>
      <point x="536" y="618" type="line"/>
      <point x="211" y="618" type="line"/>
      <point x="211" y="667" type="line"/>
      <point x="536" y="667" type="line"/>
    </contour>
    <contour>
      <point x="791" y="63" type="qcurve"/>
      <point x="741" y="14" type="line"/>
      <point x="618" y="79"/>
      <point x="567" y="120" type="qcurve" smooth="yes"/>
      <point x="567" y="120"/>
      <point x="559" y="126" type="qcurve" smooth="yes"/>
      <point x="489" y="183"/>
      <point x="420" y="276" type="qcurve" smooth="yes"/>
      <point x="388" y="319"/>
      <point x="374" y="350" type="qcurve"/>
      <point x="327" y="253"/>
      <point x="203" y="177" type="qcurve"/>
      <point x="163" y="223" type="line"/>
      <point x="291" y="298"/>
      <point x="326" y="382" type="qcurve" smooth="yes"/>
      <point x="342" y="421"/>
      <point x="342" y="465" type="qcurve"/>
      <point x="99" y="465" type="line"/>
      <point x="99" y="517" type="line"/>
      <point x="682" y="517" type="line"/>
      <point x="682" y="465" type="line"/>
      <point x="406" y="465" type="line"/>
      <point x="406" y="449" type="line" smooth="yes"/>
      <point x="406" y="413"/>
      <point x="447" y="353" type="qcurve" smooth="yes"/>
      <point x="540" y="221"/>
      <point x="620" y="156" type="qcurve" smooth="yes"/>
      <point x="648" y="133"/>
      <point x="679" y="114" type="qcurve" smooth="yes"/>
      <point x="751" y="70"/>
    </contour>
  </outline>
</glyph>
<glyph name="uni1178" format="2">
  <advance width="1024" height="1024"/>
  <unicode hex="1178"/>
  <outline>
    <contour>
      <point x="968" y="335" type="line"/>
      <point x="808" y="335" type="line"/>
      <point x="808" y="169" type="line"/>
      <point x="737" y="169" type="line"/>
      <point x="737" y="796" type="line"/>
      <point x="808" y="796" type="line"/>
      <point x="808" y="620" type="line"/>
      <point x="968" y="620" type="line"/>
      <point x="968" y="554" type="line"/>
      <point x="808" y="554" type="line"/>
      <point x="808" y="400" type="line"/>
      <point x="968" y="400" type="line"/>
    </contour>
    <contour>
      <point x="915" y="22" type="line"/>
      <point x="109" y="22" type="line"/>
      <point x="109" y="88" type="line"/>
      <point x="477" y="88" type="line"/>
      <point x="477" y="278" type="line"/>
      <point x="548" y="278" type="line"/>
      <point x="548" y="88" type="line"/>
      <point x="915" y="88" type="line"/>
    </contour>
  </outline>
</glyph>
<glyph name="uni1180" format="2">
  <advance width="1024" height="1024"/>
  <unicode hex="1180"/>
  <outline>
    <contour>
      <point x="915" y="-63" type="line"/>
      <point x="843" y="-63" type="line"/>
      <point x="843" y="798" type="line"/>
      <point x="915" y="798" type="line"/>
    </contour>
    <contour>
      <point x="743" y="-3" type="line"/>
      <point x="671" y="-3" type="line"/>
      <point x="671" y="382" type="line"/>
      <point x="526" y="382" type="line"/>
      <point x="526" y="449" type="line"/>
      <point x="671" y="449" type="line"/>
      <point x="671" y="766" type="line"/>
      <point x="743" y="766" type="line"/>
    </contour>
    <contour>
      <point x="644" y="138" type="line"/>
      <point x="98" y="85" type="line"/>
      <point x="73" y="156" type="line"/>
      <point x="314" y="171" type="line"/>
      <point x="314" y="364" type="line"/>
      <point x="386" y="364" type="line"/>
      <point x="386" y="176" type="line"/>
      <point x="638" y="199" type="line"/>
    </contour>
  </outline>
</glyph>
<glyph name="uni1181" format="2">
  <advance width="1024" height="1024"/>
  <unicode hex="1181"/>
  <outline>
    <contour>
      <point x="915" y="-72" type="line"/>
      <point x="843" y="-72" type="line"/>
      <point x="843" y="799" type="line"/>
      <point x="915" y="799" type="line"/>
    </contour>
    <contour>
      <point x="743" y="-9" type="line"/>
      <point x="671" y="-9" type="line"/>
      <point x="671" y="335" type="line"/>
      <point x="526" y="335" type="line"/>
      <point x="526" y="400" type="line"/>
      <point x="671" y="400" type="line"/>
      <point x="671" y="504" type="line"/>
      <point x="526" y="504" type="line"/>
      <point x="526" y="570" type="line"/>
      <point x="671" y="570" type="line"/>
      <point x="671" y="781" type="line"/>
      <point x="743" y="781" type="line"/>
    </contour>
    <contour>
      <point x="644" y="138" type="line"/>
      <point x="98" y="85" type="line"/>
      <point x="73" y="156" type="line"/>
      <point x="314" y="171" type="line"/>
      <point x="314" y="364" type="line"/>
      <point x="386" y="364" type="line"/>
      <point x="386" y="176" type="line"/>
      <point x="638" y="199" type="line"/>
    </contour>
  </outline>
</glyph>
<glyph name="uni1183" format="2">
  <advance width="1024" height="1024"/>
  <unicode hex="1183"/>
  <outline>
    <contour>
      <point x="914" y="358" type="line"/>
      <point x="108" y="358" type="line"/>
      <point x="108" y="425" type="line"/>
      <point x="476" y="425" type="line"/>
      <point x="476" y="614" type="line"/>
      <point x="547" y="614" type="line"/>
      <point x="547" y="425" type="line"/>
      <point x="914" y="425" type="line"/>
    </contour>
    <contour>
      <point x="920" y="157" type="line"/>
      <point x="549" y="157" type="line"/>
      <point x="549" y="-72" type="line"/>
      <point x="478" y="-72" type="line"/>
      <point x="478" y="157" type="line"/>
      <point x="114" y="157" type="line"/>
      <point x="114" y="222" type="line"/>
      <point x="920" y="222" type="line"/>
    </contour>
  </outline>
</glyph>
<glyph name="uni1189" format="2">
  <advance width="1024" height="1024"/>
  <unicode hex="1189"/>
  <outline>
    <contour>
      <point x="880" y="344" type="line"/>
      <point x="716" y="344" type="line"/>
      <point x="716" y="-51" type="line"/>
      <point x="644" y="-51" type="line"/>
      <point x="644" y="815" type="line"/>
      <point x="716" y="815" type="line"/>
      <point x="716" y="411" type="line"/>
      <point x="880" y="411" type="line"/>
    </contour>
    <contour>
      <point x="595" y="338" type="line"/>
      <point x="378" y="331" type="line"/>
      <point x="378" y="-8" type="line"/>
      <point x="306" y="-8" type="line"/>
      <point x="306" y="327" type="line"/>
      <point x="108" y="321" type="line"/>
      <point x="93" y="389" type="line"/>
      <point x="591" y="401" type="line"/>
    </contour>
  </outline>
</glyph>
<glyph name="uni1197" format="2">
  <advance width="1024" height="1024"/>
  <unicode hex="1197"/>
  <outline>
    <contour>
      <point x="882" y="258" type="line"/>
      <point x="811" y="258" type="line"/>
      <point x="811" y="799" type="line"/>
      <point x="882" y="799" type="line"/>
    </contour>
    <contour>
      <point x="766" y="370" type="line"/>
      <point x="148" y="316" type="line"/>
      <point x="123" y="388" type="line"/>
      <point x="759" y="434" type="line"/>
    </contour>
    <contour>
      <point x="920" y="157" type="line"/>
      <point x="549" y="157" type="line"/>
      <point x="549" y="-72" type="line"/>
      <point x="478" y="-72" type="line"/>
      <point x="478" y="157" type="line"/>
      <point x="114" y="157" type="line"/>
      <point x="114" y="222" type="line"/>
      <point x="920" y="222" type="line"/>
    </contour>
  </outline>
</glyph>
<glyph name="uni11A9" format="2">
  <advance width="1024" height="1024"/>
  <unicode hex="11A9"/>
  <outline>
    <contour>
      <point x="867" y="551" type="line"/>
      <point x="861" y="337"/>
      <point x="829" y="150" type="qcurve"/>
      <point x="757" y="159" type="line"/>
      <point x="793" y="310"/>
      <point x="796" y="485" type="qcurve"/>
      <point x="542" y="485" type="line"/>
      <point x="542" y="551" type="line"/>
    </contour>
    <contour>
      <point x="488" y="551" type="line"/>
      <point x="487" y="461" type="line"/>
      <point x="487" y="460" type="line" smooth="yes"/>
      <point x="484" y="337"/>
      <point x="443" y="152" type="qcurve"/>
      <point x="368" y="165" type="line"/>
      <point x="404" y="286"/>
      <point x="415" y="419" type="qcurve" smooth="yes"/>
      <point x="416" y="442"/>
      <point x="419" y="485" type="qcurve"/>
      <point x="157" y="485" type="line"/>
      <point x="157" y="551" type="line"/>
    </contour>
  </outline>
</glyph>
<glyph name="uni11BE" format="2">
  <advance width="1024" height="1024"/>
  <unicode hex="11BE"/>
  <outline>
    <contour>
      <point x="634" y="591" type="line"/>
      <point x="389" y="591" type="line"/>
      <point x="389" y="658" type="line"/>
      <point x="634" y="658" type="line"/>
    </contour>
    <contour>
      <point x="765" y="163" type="qcurve"/>
      <point x="708" y="114" type="line"/>
      <point x="609" y="200"/>
      <point x="563" y="261" type="qcurve" smooth="yes"/>
      <point x="537" y="299"/>
      <point x="507" y="351" type="qcurve"/>
      <point x="441" y="244"/>
      <point x="383" y="188" type="qcurve" smooth="yes"/>
      <point x="352" y="159"/>
      <point x="305" y="122" type="qcurve"/>
      <point x="248" y="172" type="line"/>
      <point x="360" y="256"/>
      <point x="407" y="318" type="qcurve" smooth="yes"/>
      <point x="454" y="384"/>
      <point x="469" y="468" type="qcurve"/>
      <point x="278" y="468" type="line"/>
      <point x="278" y="535" type="line"/>
      <point x="744" y="535" type="line"/>
      <point x="744" y="468" type="line"/>
      <point x="546" y="468" type="line"/>
      <point x="561" y="345"/>
      <point x="675" y="238" type="qcurve" smooth="yes"/>
      <point x="708" y="208"/>
    </contour>
  </outline>
</glyph>
<glyph name="uni11C0" format="2">
  <advance width="1024" height="1024"/>
  <unicode hex="11C0"/>
  <outline>
    <contour>
      <point x="760" y="106" type="line"/>
      <point x="267" y="106" type="line"/>
      <point x="267" y="639" type="line"/>
      <point x="741" y="639" type="line"/>
      <point x="741" y="573" type="line"/>
      <point x="339" y="573" type="line"/>
      <point x="339" y="404" type="line"/>
      <point x="728" y="404" type="line"/>
      <point x="728" y="337" type="line"/>
      <point x="339" y="337" type="line"/>
      <point x="339" y="174" type="line"/>
      <point x="760" y="174" type="line"/>
    </contour>
  </outline>
</glyph>
<glyph name="uni11C2" format="2">
  <advance width="1024" height="1024"/>
  <unicode hex="11C2"/>
  <outline>
    <contour>
      <point x="634" y="587" type="line"/>
      <point x="388" y="587" type="line"/>
      <point x="388" y="654" type="line"/>
      <point x="634" y="654" type="line"/>
    </contour>
    <contour>
      <point x="767" y="470" type="line"/>
      <point x="258" y="470" type="line"/>
      <point x="258" y="537" type="line"/>
      <point x="767" y="537" type="line"/>
    </contour>
    <contour>
      <point x="719" y="268" type="qcurve" smooth="yes"/>
      <point x="719" y="184"/>
      <point x="633" y="137" type="qcurve" smooth="yes"/>
      <point x="578" y="106"/>
      <point x="514" y="106" type="qcurve" smooth="yes"/>
      <point x="425" y="106"/>
      <point x="362" y="159" type="qcurve" smooth="yes"/>
      <point x="309" y="203"/>
      <point x="309" y="268" type="qcurve" smooth="yes"/>
      <point x="309" y="354"/>
      <point x="398" y="400" type="qcurve" smooth="yes"/>
      <point x="453" y="428"/>
      <point x="514" y="428" type="qcurve" smooth="yes"/>
      <point x="602" y="428"/>
      <point x="665" y="377" type="qcurve" smooth="yes"/>
      <point x="719" y="333"/>
    </contour>
    <contour>
      <point x="647" y="268" type="qcurve" smooth="yes"/>
      <point x="647" y="323"/>
      <point x="579" y="350" type="qcurve" smooth="yes"/>
      <point x="547" y="362"/>
      <point x="514" y="362" type="qcurve" smooth="yes"/>
      <point x="453" y="362"/>
      <point x="411" y="327" type="qcurve" smooth="yes"/>
      <point x="381" y="302"/>
      <point x="381" y="268" type="qcurve" smooth="yes"/>
      <point x="381" y="212"/>
      <point x="451" y="185" type="qcurve" smooth="yes"/>
      <point x="482" y="173"/>
      <point x="514" y="173" type="qcurve" smooth="yes"/>
      <point x="577" y="173"/>
      <point x="618" y="209" type="qcurve" smooth="yes"/>
      <point x="647" y="233"/>
    </contour>
  </outline>
</glyph>
<glyph name="uni11C4" format="2">
  <advance width="1024" height="1024"/>
  <unicode hex="11C4"/>
  <outline>
    <contour>
      <point x="895" y="159" type="line"/>
      <point x="828" y="159" type="line"/>
      <point x="828" y="486" type="line"/>
      <point x="663" y="486" type="line"/>
      <point x="663" y="553" type="line"/>
      <point x="895" y="553" type="line"/>
    </contour>
    <contour>
      <point x="691" y="180" type="qcurve"/>
      <point x="631" y="151" type="line"/>
      <point x="584" y="237"/>
      <point x="554" y="339" type="qcurve"/>
      <point x="527" y="243"/>
      <point x="478" y="147" type="qcurve"/>
      <point x="420" y="177" type="line"/>
      <point x="517" y="355"/>
      <point x="517" y="503" type="qcurve" smooth="yes"/>
      <point x="517" y="521"/>
      <point x="515" y="560" type="qcurve"/>
      <point x="588" y="560" type="line"/>
      <point x="587" y="545"/>
      <point x="587" y="513" type="qcurve" smooth="yes"/>
      <point x="587" y="379"/>
    </contour>
    <contour>
      <point x="362" y="160" type="line"/>
      <point x="296" y="160" type="line"/>
      <point x="296" y="487" type="line"/>
      <point x="130" y="487" type="line"/>
      <point x="130" y="554" type="line"/>
      <point x="362" y="554" type="line"/>
    </contour>
  </outline>
</glyph>
<glyph name="uni11C6" format="2">
  <advance width="1024" height="1024"/>
  <unicode hex="11C6"/>
  <outline>
    <contour>
      <point x="863" y="169" type="line"/>
      <point x="695" y="161"/>
      <point x="610" y="161" type="qcurve" smooth="yes"/>
      <point x="552" y="161" type="line"/>
      <point x="552" y="555" type="line"/>
      <point x="863" y="555" type="line"/>
      <point x="863" y="488" type="line"/>
      <point x="624" y="488" type="line"/>
      <point x="624" y="226" type="line"/>
      <point x="665" y="226" type="line"/>
      <point x="863" y="233" type="line"/>
    </contour>
    <contour>
      <point x="490" y="174" type="line"/>
      <point x="438" y="170"/>
      <point x="190" y="162" type="qcurve" smooth="yes"/>
      <point x="176" y="161"/>
      <point x="163" y="161" type="qcurve"/>
      <point x="163" y="559" type="line"/>
      <point x="234" y="559" type="line"/>
      <point x="234" y="234" type="line"/>
      <point x="335" y="234" type="line" smooth="yes"/>
      <point x="418" y="234"/>
      <point x="490" y="242" type="qcurve"/>
    </contour>
  </outline>
</glyph>
<glyph name="uni11C9" format="2">
  <advance width="1024" height="1024"/>
  <unicode hex="11C9"/>
  <outline>
    <contour>
      <point x="866" y="159" type="line"/>
      <point x="548" y="159" type="line"/>
      <point x="548" y="553" type="line"/>
      <point x="862" y="553" type="line"/>
      <point x="862" y="486" type="line"/>
      <point x="618" y="486" type="line"/>
      <point x="618" y="393" type="line"/>
      <point x="844" y="393" type="line"/>
      <point x="844" y="327" type="line"/>
      <point x="618" y="327" type="line"/>
      <point x="618" y="225" type="line"/>
      <point x="866" y="225" type="line"/>
    </contour>
    <contour>
      <point x="490" y="174" type="line"/>
      <point x="438" y="170"/>
      <point x="190" y="162" type="qcurve" smooth="yes"/>
      <point x="176" y="161"/>
      <point x="163" y="161" type="qcurve"/>
      <point x="163" y="559" type="line"/>
      <point x="234" y="559" type="line"/>
      <point x="234" y="234" type="line"/>
      <point x="335" y="234" type="line" smooth="yes"/>
      <point x="418" y="234"/>
      <point x="490" y="242" type="qcurve"/>
    </contour>
  </outline>
</glyph>
<glyph name="uni11CF" format="2">
  <advance width="1024" height="1024"/>
  <unicode hex="11CF"/>
  <outline>
    <contour>
      <point x="883" y="521" type="line"/>
      <point x="697" y="521" type="line"/>
      <point x="697" y="588" type="line"/>
      <point x="883" y="588" type="line"/>
    </contour>
    <contour>
      <point x="932" y="425" type="line"/>
      <point x="645" y="425" type="line"/>
      <point x="645" y="492" type="line"/>
      <point x="932" y="492" type="line"/>
    </contour>
    <contour>
      <point x="919" y="278" type="qcurve" smooth="yes"/>
      <point x="919" y="211"/>
      <point x="858" y="176" type="qcurve" smooth="yes"/>
      <point x="826" y="158"/>
      <point x="788" y="158" type="qcurve" smooth="yes"/>
      <point x="722" y="158"/>
      <point x="683" y="208" type="qcurve" smooth="yes"/>
      <point x="659" y="239"/>
      <point x="659" y="278" type="qcurve" smooth="yes"/>
      <point x="659" y="347"/>
      <point x="720" y="380" type="qcurve" smooth="yes"/>
      <point x="751" y="397"/>
      <point x="788" y="397" type="qcurve" smooth="yes"/>
      <point x="856" y="397"/>
      <point x="895" y="347" type="qcurve" smooth="yes"/>
      <point x="919" y="316"/>
    </contour>
    <contour>
      <point x="856" y="278" type="qcurve" smooth="yes"/>
      <point x="856" y="331"/>
      <point x="788" y="331" type="qcurve" smooth="yes"/>
      <point x="748" y="331"/>
      <point x="728" y="303" type="qcurve" smooth="yes"/>
      <point x="720" y="292"/>
      <point x="720" y="278" type="qcurve" smooth="yes"/>
      <point x="720" y="224"/>
      <point x="856" y="224"/>
    </contour>
    <contour>
      <point x="620" y="168" type="line"/>
      <point x="551" y="162"/>
      <point x="445" y="162" type="qcurve" smooth="yes"/>
      <point x="390" y="162" type="line"/>
      <point x="390" y="557" type="line"/>
      <point x="612" y="557" type="line"/>
      <point x="612" y="490" type="line"/>
      <point x="457" y="490" type="line"/>
      <point x="457" y="227" type="line"/>
      <point x="500" y="227" type="line" smooth="yes"/>
      <point x="520" y="227"/>
      <point x="617" y="232" type="qcurve"/>
    </contour>
    <contour>
      <point x="344" y="168" type="line"/>
      <point x="263" y="165"/>
      <point x="109" y="161" type="qcurve"/>
      <point x="109" y="391" type="line"/>
      <point x="275" y="391" type="line"/>
      <point x="275" y="487" type="line"/>
      <point x="109" y="487" type="line"/>
      <point x="109" y="554" type="line"/>
      <point x="342" y="554" type="line"/>
      <point x="342" y="325" type="line"/>
      <point x="176" y="325" type="line"/>
      <point x="176" y="226" type="line"/>
      <point x="246" y="227"/>
      <point x="342" y="237" type="qcurve"/>
    </contour>
  </outline>
</glyph>
<glyph name="uni11E7" format="2">
  <advance width="1024" height="1024"/>
  <unicode hex="11E7"/>
  <outline>
    <contour>
      <point x="891" y="159" type="line"/>
      <point x="820" y="159" type="line"/>
      <point x="820" y="487" type="line"/>
      <point x="566" y="487" type="line"/>
      <point x="566" y="554" type="line"/>
      <point x="891" y="554" type="line"/>
    </contour>
    <contour>
      <point x="573" y="193" type="qcurve"/>
      <point x="490" y="155" type="line"/>
      <point x="406" y="259"/>
      <point x="373" y="345" type="qcurve" smooth="yes"/>
      <point x="368" y="359"/>
      <point x="362" y="376" type="qcurve"/>
      <point x="312" y="264"/>
      <point x="208" y="150" type="qcurve"/>
      <point x="131" y="183" type="line"/>
      <point x="326" y="359"/>
      <point x="325" y="558" type="qcurve"/>
      <point x="407" y="558" type="line"/>
      <point x="404" y="525"/>
      <point x="404" y="510" type="qcurve" smooth="yes"/>
      <point x="404" y="366"/>
    </contour>
  </outline>
</glyph>
<glyph name="uni11E8" format="2">
  <advance width="1024" height="1024"/>
  <unicode hex="11E8"/>
  <outline>
    <contour>
      <point x="890" y="175" type="line"/>
      <point x="754" y="163"/>
      <point x="614" y="163" type="qcurve" smooth="yes"/>
      <point x="577" y="163" type="line"/>
      <point x="577" y="556" type="line"/>
      <point x="881" y="556" type="line"/>
      <point x="881" y="489" type="line"/>
      <point x="649" y="489" type="line"/>
      <point x="649" y="226" type="line"/>
      <point x="727" y="226" type="line" smooth="yes"/>
      <point x="788" y="226"/>
      <point x="884" y="238" type="qcurve"/>
    </contour>
    <contour>
      <point x="554" y="199" type="qcurve"/>
      <point x="485" y="152" type="line"/>
      <point x="397" y="246"/>
      <point x="348" y="373" type="qcurve"/>
      <point x="300" y="256"/>
      <point x="201" y="154" type="qcurve"/>
      <point x="132" y="190" type="line"/>
      <point x="311" y="367"/>
      <point x="310" y="559" type="qcurve"/>
      <point x="383" y="559" type="line"/>
      <point x="382" y="548"/>
      <point x="382" y="524" type="qcurve" smooth="yes"/>
      <point x="382" y="369"/>
    </contour>
  </outline>
</glyph>
<glyph name="uni11EC" format="2">
  <advance width="1024" height="1024"/>
  <unicode hex="11EC"/>
  <outline>
    <contour>
      <point x="868" y="168" type="line"/>
      <point x="798" y="168" type="line"/>
      <point x="798" y="497" type="line"/>
      <point x="544" y="497" type="line"/>
      <point x="544" y="563" type="line"/>
      <point x="868" y="563" type="line"/>
    </contour>
    <contour>
      <point x="518" y="329" type="qcurve" smooth="yes"/>
      <point x="518" y="238"/>
      <point x="446" y="184" type="qcurve" smooth="yes"/>
      <point x="397" y="147"/>
      <point x="333" y="147" type="qcurve" smooth="yes"/>
      <point x="242" y="147"/>
      <point x="187" y="215" type="qcurve" smooth="yes"/>
      <point x="148" y="264"/>
      <point x="148" y="329" type="qcurve" smooth="yes"/>
      <point x="148" y="480"/>
      <point x="306" y="509" type="qcurve"/>
      <point x="306" y="562" type="line"/>
      <point x="357" y="562" type="line"/>
      <point x="357" y="509" type="line"/>
      <point x="362" y="508" type="line" smooth="yes"/>
      <point x="486" y="483"/>
      <point x="511" y="389" type="qcurve"/>
      <point x="517" y="348" type="line" smooth="yes"/>
      <point x="518" y="339"/>
    </contour>
    <contour>
      <point x="452" y="329" type="qcurve" smooth="yes"/>
      <point x="452" y="443"/>
      <point x="333" y="443" type="qcurve" smooth="yes"/>
      <point x="265" y="443"/>
      <point x="232" y="390" type="qcurve" smooth="yes"/>
      <point x="215" y="362"/>
      <point x="215" y="329" type="qcurve" smooth="yes"/>
      <point x="215" y="214"/>
      <point x="333" y="214" type="qcurve" smooth="yes"/>
      <point x="452" y="214"/>
    </contour>
  </outline>
</glyph>
<glyph name="uni11ED" format="2">
  <advance width="1024" height="1024"/>
  <unicode hex="11ED"/>
  <outline>
    <contour>
      <point x="895" y="159" type="line"/>
      <point x="828" y="159" type="line"/>
      <point x="828" y="486" type="line"/>
      <point x="663" y="486" type="line"/>
      <point x="663" y="553" type="line"/>
      <point x="895" y="553" type="line"/>
    </contour>
    <contour>
      <point x="618" y="156" type="line"/>
      <point x="551" y="156" type="line"/>
      <point x="551" y="483" type="line"/>
      <point x="386" y="483" type="line"/>
      <point x="386" y="550" type="line"/>
      <point x="618" y="550" type="line"/>
    </contour>
    <contour>
      <point x="402" y="331" type="qcurve" smooth="yes"/>
      <point x="402" y="243"/>
      <point x="343" y="188" type="qcurve" smooth="yes"/>
      <point x="299" y="148"/>
      <point x="240" y="148" type="qcurve" smooth="yes"/>
      <point x="153" y="148"/>
      <point x="106" y="225" type="qcurve" smooth="yes"/>
      <point x="78" y="272"/>
      <point x="78" y="331" type="qcurve" smooth="yes"/>
      <point x="78" y="482"/>
      <point x="216" y="512" type="qcurve"/>
      <point x="216" y="565" type="line"/>
      <point x="261" y="565" type="line"/>
      <point x="261" y="512" type="line"/>
      <point x="375" y="489"/>
      <point x="396" y="392" type="qcurve" smooth="yes"/>
      <point x="402" y="366"/>
    </contour>
    <contour>
      <point x="344" y="331" type="qcurve" smooth="yes"/>
      <point x="344" y="445"/>
      <point x="240" y="445" type="qcurve" smooth="yes"/>
      <point x="179" y="445"/>
      <point x="151" y="389" type="qcurve" smooth="yes"/>
      <point x="136" y="362"/>
      <point x="136" y="331" type="qcurve" smooth="yes"/>
      <point x="136" y="215"/>
      <point x="344" y="215"/>
    </contour>
  </outline>
</glyph>
<glyph name="uni11F1" format="2">
  <advance width="1024" height="1024"/>
  <unicode hex="11F1"/>
  <outline>
    <contour>
      <point x="919" y="193" type="qcurve"/>
      <point x="846" y="150" type="line"/>
      <point x="740" y="250"/>
      <point x="706" y="355" type="qcurve"/>
      <point x="663" y="250"/>
      <point x="557" y="146" type="qcurve"/>
      <point x="495" y="193" type="line"/>
      <point x="671" y="362"/>
      <point x="671" y="517" type="qcurve" smooth="yes"/>
      <point x="671" y="535"/>
      <point x="667" y="569" type="qcurve"/>
      <point x="745" y="569" type="line"/>
      <point x="744" y="518" type="line"/>
      <point x="744" y="517" type="line" smooth="yes"/>
      <point x="744" y="348"/>
    </contour>
    <contour>
      <point x="518" y="329" type="qcurve" smooth="yes"/>
      <point x="518" y="238"/>
      <point x="446" y="184" type="qcurve" smooth="yes"/>
      <point x="397" y="147"/>
      <point x="333" y="147" type="qcurve" smooth="yes"/>
      <point x="242" y="147"/>
      <point x="187" y="215" type="qcurve" smooth="yes"/>
      <point x="148" y="264"/>
      <point x="148" y="329" type="qcurve" smooth="yes"/>
      <point x="148" y="480"/>
      <point x="306" y="509" type="qcurve"/>
      <point x="306" y="562" type="line"/>
      <point x="357" y="562" type="line"/>
      <point x="357" y="509" type="line"/>
      <point x="362" y="508" type="line" smooth="yes"/>
      <point x="486" y="483"/>
      <point x="511" y="389" type="qcurve"/>
      <point x="517" y="348" type="line" smooth="yes"/>
      <point x="518" y="339"/>
    </contour>
    <contour>
      <point x="452" y="329" type="qcurve" smooth="yes"/>
      <point x="452" y="443"/>
      <point x="333" y="443" type="qcurve" smooth="yes"/>
      <point x="265" y="443"/>
      <point x="232" y="390" type="qcurve" smooth="yes"/>
      <point x="215" y="362"/>
      <point x="215" y="329" type="qcurve" smooth="yes"/>
      <point x="215" y="214"/>
      <point x="333" y="214" type="qcurve" smooth="yes"/>
      <point x="452" y="214"/>
    </contour>
  </outline>
</glyph>
<glyph name="uni11F6" format="2">
  <advance width="1024" height="1024"/>
  <unicode hex="11F6"/>
  <outline>
    <contour>
      <point x="870" y="162" type="line"/>
      <point x="531" y="162" type="line"/>
      <point x="531" y="394" type="line"/>
      <point x="799" y="394" type="line"/>
      <point x="799" y="497" type="line"/>
      <point x="536" y="497" type="line"/>
      <point x="536" y="563" type="line"/>
      <point x="870" y="563" type="line"/>
      <point x="870" y="328" type="line"/>
      <point x="604" y="328" type="line"/>
      <point x="604" y="228" type="line"/>
      <point x="870" y="228" type="line"/>
    </contour>
    <contour>
      <point x="444" y="494" type="line"/>
      <point x="197" y="494" type="line"/>
      <point x="197" y="561" type="line"/>
      <point x="444" y="561" type="line"/>
    </contour>
    <contour>
      <point x="511" y="397" type="line"/>
      <point x="128" y="397" type="line"/>
      <point x="128" y="464" type="line"/>
      <point x="511" y="464" type="line"/>
    </contour>
    <contour>
      <point x="477" y="250" type="qcurve" smooth="yes"/>
      <point x="477" y="183"/>
      <point x="407" y="147" type="qcurve" smooth="yes"/>
      <point x="369" y="129"/>
      <point x="327" y="129" type="qcurve" smooth="yes"/>
      <point x="249" y="129"/>
      <point x="201" y="173" type="qcurve" smooth="yes"/>
      <point x="166" y="205"/>
      <point x="166" y="250" type="qcurve" smooth="yes"/>
      <point x="166" y="318"/>
      <point x="240" y="353" type="qcurve" smooth="yes"/>
      <point x="279" y="372"/>
      <point x="322" y="372" type="qcurve" smooth="yes"/>
      <point x="399" y="372"/>
      <point x="445" y="326" type="qcurve"/>
      <point x="462" y="305" type="line"/>
      <point x="473" y="281" type="line" smooth="yes"/>
      <point x="477" y="266"/>
    </contour>
    <contour>
      <point x="406" y="251" type="qcurve" smooth="yes"/>
      <point x="406" y="289"/>
      <point x="356" y="305" type="qcurve" smooth="yes"/>
      <point x="339" y="311"/>
      <point x="322" y="311" type="qcurve" smooth="yes"/>
      <point x="280" y="311"/>
      <point x="253" y="285" type="qcurve"/>
      <point x="242" y="270" type="line" smooth="yes"/>
      <point x="238" y="261"/>
      <point x="238" y="251" type="qcurve" smooth="yes"/>
      <point x="238" y="211"/>
      <point x="288" y="195" type="qcurve" smooth="yes"/>
      <point x="304" y="189"/>
      <point x="322" y="189" type="qcurve" smooth="yes"/>
      <point x="373" y="189"/>
      <point x="395" y="220" type="qcurve" smooth="yes"/>
      <point x="406" y="233"/>
    </contour>
  </outline>
</glyph>
<glyph name="afii00208" format="2">
  <advance width="1024" height="1024"/>
  <unicode hex="2015"/>
  <outline>
    <contour>
      <point x="0" y="228" type="line"/>
      <point x="0" y="302" type="line"/>
      <point x="1024" y="302" type="line"/>
      <point x="1024" y="228" type="line"/>
    </contour>
  </outline>
</glyph>
<glyph name="quoteright" format="2">
  <advance width="227" height="227"/>
  <unicode hex="2019"/>
  <outline>
    <contour>
      <point x="66" y="629" type="line"/>
      <point x="66" y="733" type="line"/>
      <point x="162" y="733" type="line"/>
      <point x="162" y="651" type="line" smooth="yes"/>
      <point x="162" y="574"/>
      <point x="136" y="539" type="qcurve" smooth="yes"/>
      <point x="117" y="510"/>
      <point x="80" y="494" type="qcurve"/>
      <point x="57" y="528" type="line"/>
      <point x="110" y="550"/>
      <point x="113" y="625" type="qcurve" smooth="yes"/>
      <point x="113" y="626"/>
      <point x="113" y="629" type="qcurve"/>
    </contour>
  </outline>
</glyph>
<glyph name="quotedblleft" format="2">
  <advance width="340" height="340"/>
  <unicode hex="201C"/>
  <outline>
    <contour>
      <point x="296" y="610" type="line"/>
      <point x="296" y="506" type="line"/>
      <point x="200" y="506" type="line"/>
      <point x="200" y="588" type="line" smooth="yes"/>
      <point x="200" y="665"/>
      <point x="225" y="700" type="qcurve" smooth="yes"/>
      <point x="245" y="729"/>
      <point x="282" y="745" type="qcurve"/>
      <point x="304" y="711" type="line"/>
      <point x="252" y="689"/>
      <point x="249" y="614" type="qcurve" smooth="yes"/>
      <point x="249" y="610" type="line"/>
    </contour>
    <contour>
      <point x="140" y="610" type="line"/>
      <point x="140" y="506" type="line"/>
      <point x="44" y="506" type="line"/>
      <point x="44" y="588" type="line" smooth="yes"/>
      <point x="44" y="665"/>
      <point x="70" y="700" type="qcurve" smooth="yes"/>
      <point x="89" y="729"/>
      <point x="126" y="745" type="qcurve"/>
      <point x="148" y="711" type="line"/>
      <point x="96" y="689"/>
      <point x="93" y="614" type="qcurve" smooth="yes"/>
      <point x="93" y="610" type="line"/>
    </contour>
  </outline>
</glyph>
<glyph name="twodotenleader" format="2">
  <advance width="1024" height="1024"/>
  <unicode hex="2025"/>
  <outline>
    <contour>
      <point x="827" y="369" type="qcurve" smooth="yes"/>
      <point x="827" y="296"/>
      <point x="755" y="296" type="qcurve" smooth="yes"/>
      <point x="681" y="296"/>
      <point x="681" y="368" type="qcurve" smooth="yes"/>
      <point x="681" y="442"/>
      <point x="755" y="442" type="qcurve" smooth="yes"/>
      <point x="811" y="442"/>
      <point x="824" y="393" type="qcurve" smooth="yes"/>
      <point x="827" y="382"/>
    </contour>
    <contour>
      <point x="343" y="369" type="qcurve" smooth="yes"/>
      <point x="343" y="296"/>
      <point x="271" y="296" type="qcurve" smooth="yes"/>
      <point x="196" y="296"/>
      <point x="196" y="368" type="qcurve" smooth="yes"/>
      <point x="196" y="442"/>
      <point x="271" y="442" type="qcurve" smooth="yes"/>
      <point x="323" y="442"/>
      <point x="339" y="397" type="qcurve" smooth="yes"/>
      <point x="343" y="384"/>
    </contour>
  </outline>
</glyph>
<glyph name="ellipsis" format="2">
  <advance width="1024" height="1024"/>
  <unicode hex="2026"/>
  <outline>
    <contour>
      <point x="911" y="366" type="qcurve" smooth="yes"/>
      <point x="911" y="297"/>
      <point x="841" y="297" type="qcurve" smooth="yes"/>
      <point x="773" y="297"/>
      <point x="773" y="435"/>
      <point x="846" y="435" type="qcurve" smooth="yes"/>
      <point x="887" y="435"/>
      <point x="904" y="396" type="qcurve" smooth="yes"/>
      <point x="911" y="382"/>
    </contour>
    <contour>
      <point x="580" y="366" type="qcurve" smooth="yes"/>
      <point x="580" y="297"/>
      <point x="442" y="297"/>
      <point x="442" y="435"/>
      <point x="515" y="435" type="qcurve" smooth="yes"/>
      <point x="554" y="435"/>
      <point x="572" y="397" type="qcurve" smooth="yes"/>
      <point x="580" y="382"/>
    </contour>
    <contour>
      <point x="250" y="366" type="qcurve" smooth="yes"/>
      <point x="250" y="297"/>
      <point x="112" y="297"/>
      <point x="112" y="435"/>
      <point x="185" y="435" type="qcurve" smooth="yes"/>
      <point x="224" y="435"/>
      <point x="243" y="397" type="qcurve" smooth="yes"/>
      <point x="250" y="382"/>
    </contour>
  </outline>
</glyph>
<glyph name="franc" format="2">
  <advance width="1024" height="1024"/>
  <unicode hex="20A3"/>
  <outline>
    <contour>
      <point x="646" y="417" type="qcurve"/>
      <point x="644" y="398"/>
      <point x="644" y="359"/>
      <point x="646" y="340" type="qcurve"/>
      <point x="574" y="343"/>
      <point x="503" y="343" type="qcurve" smooth="yes"/>
      <point x="355" y="343" type="line"/>
      <point x="386" y="-76" type="line"/>
      <point x="316" y="-76" type="line"/>
      <point x="350" y="352" type="line"/>
      <point x="350" y="414" type="line"/>
      <point x="352" y="382" type="line"/>
      <point x="355" y="414" type="line"/>
      <point x="503" y="414" type="line" smooth="yes"/>
      <point x="574" y="414"/>
    </contour>
    <contour>
      <point x="665" y="883" type="qcurve"/>
      <point x="663" y="862"/>
      <point x="663" y="820"/>
      <point x="665" y="799" type="qcurve"/>
      <point x="587" y="803"/>
      <point x="509" y="803" type="qcurve"/>
      <point x="434" y="833" type="line"/>
      <point x="509" y="880" type="line"/>
      <point x="587" y="880"/>
    </contour>
    <contour>
      <point x="355" y="414" type="line"/>
      <point x="350" y="414" type="line"/>
      <point x="316" y="880" type="line"/>
      <point x="434" y="833" type="line"/>
      <point x="386" y="803" type="line"/>
    </contour>
  </outline>
</glyph>
<glyph name="Euro" format="2">
  <advance width="1024" height="1024"/>
  <unicode hex="20AC"/>
  <outline>
    <contour>
      <point x="337" y="420" type="qcurve"/>
      <point x="550" y="420" type="line"/>
      <point x="550" y="377" type="line"/>
      <point x="333" y="377" type="line"/>
      <point x="332" y="356"/>
      <point x="332" y="333" type="qcurve" smooth="yes"/>
      <point x="332" y="315"/>
      <point x="333" y="298" type="qcurve"/>
      <point x="501" y="298" type="line"/>
      <point x="501" y="256" type="line"/>
      <point x="338" y="256" type="line"/>
      <point x="350" y="136"/>
      <point x="452" y="87" type="qcurve" smooth="yes"/>
      <point x="497" y="65"/>
      <point x="543" y="66" type="qcurve" smooth="yes"/>
      <point x="600" y="67"/>
      <point x="653" y="119" type="qcurve" smooth="yes"/>
      <point x="694" y="159"/>
      <point x="703" y="206" type="qcurve"/>
      <point x="774" y="187" type="line"/>
      <point x="748" y="79"/>
      <point x="651" y="25" type="qcurve" smooth="yes"/>
      <point x="597" y="-6"/>
      <point x="540" y="-6" type="qcurve" smooth="yes"/>
      <point x="389" y="-7"/>
      <point x="305" y="95" type="qcurve" smooth="yes"/>
      <point x="253" y="159"/>
      <point x="236" y="256" type="qcurve"/>
      <point x="170" y="256" type="line"/>
      <point x="169" y="298" type="line"/>
      <point x="230" y="298" type="line"/>
      <point x="229" y="311"/>
      <point x="229" y="340" type="qcurve" smooth="yes"/>
      <point x="229" y="367"/>
      <point x="230" y="377" type="qcurve"/>
      <point x="170" y="377" type="line"/>
      <point x="170" y="420" type="line"/>
      <point x="234" y="420" type="line"/>
      <point x="262" y="620"/>
      <point x="411" y="683" type="qcurve" smooth="yes"/>
      <point x="468" y="708"/>
      <point x="540" y="708" type="qcurve" smooth="yes"/>
      <point x="664" y="708"/>
      <point x="740" y="598" type="qcurve" smooth="yes"/>
      <point x="781" y="540"/>
      <point x="783" y="492" type="qcurve"/>
      <point x="710" y="479" type="line"/>
      <point x="702" y="528"/>
      <point x="662" y="578" type="qcurve" smooth="yes"/>
      <point x="611" y="639"/>
      <point x="543" y="639" type="qcurve" smooth="yes"/>
      <point x="432" y="639"/>
      <point x="375" y="543" type="qcurve" smooth="yes"/>
      <point x="343" y="490"/>
    </contour>
  </outline>
</glyph>
<glyph name="uni20B1" format="2">
  <advance width="1024"/>
  <unicode hex="20B1"/>
  <outline>
    <contour>
      <point x="384" y="293" type="qcurve"/>
      <point x="664" y="293"/>
      <point x="717" y="412" type="qcurve"/>
      <point x="384" y="412" type="line"/>
      <point x="384" y="353"/>
    </contour>
    <contour>
      <point x="247" y="629" type="qcurve"/>
      <point x="273" y="627"/>
      <point x="297" y="627" type="qcurve"/>
      <point x="297" y="750" type="line"/>
      <point x="276" y="750"/>
      <point x="255" y="749" type="qcurve"/>
      <point x="257" y="765"/>
      <point x="257" y="801"/>
      <point x="255" y="818" type="qcurve"/>
      <point x="326" y="810" type="line"/>
      <point x="387" y="810"/>
      <point x="472" y="819" type="qcurve" smooth="yes"/>
      <point x="510" y="823" type="line"/>
      <point x="649" y="821"/>
      <point x="719" y="754" type="qcurve" smooth="yes"/>
      <point x="765" y="711"/>
      <point x="798" y="639" type="qcurve" smooth="yes"/>
      <point x="820" y="589"/>
      <point x="820" y="524" type="qcurve" smooth="yes"/>
      <point x="820" y="412"/>
      <point x="781" y="361" type="qcurve" smooth="yes"/>
      <point x="670" y="220"/>
      <point x="384" y="217" type="qcurve"/>
      <point x="384" y="26" type="line"/>
      <point x="408" y="27"/>
      <point x="428" y="28" type="qcurve"/>
      <point x="427" y="11"/>
      <point x="427" y="-21"/>
      <point x="428" y="-37" type="qcurve"/>
      <point x="385" y="-35"/>
      <point x="343" y="-35" type="qcurve" smooth="yes"/>
      <point x="300" y="-36"/>
      <point x="257" y="-37" type="qcurve"/>
      <point x="259" y="-21"/>
      <point x="259.5" y="-5" type="qcurve" smooth="yes"/>
      <point x="259.571" y="-2.71429"/>
      <point x="259.571" y="-0.408163" type="qcurve" smooth="yes"/>
      <point x="259.571" y="13.4286"/>
      <point x="257" y="28" type="qcurve"/>
      <point x="277" y="27"/>
      <point x="297" y="26" type="qcurve"/>
      <point x="297" y="411" type="line"/>
      <point x="271" y="410"/>
      <point x="247" y="409" type="qcurve"/>
      <point x="249" y="426"/>
      <point x="249" y="458"/>
      <point x="247" y="474" type="qcurve"/>
      <point x="273" y="473"/>
      <point x="297" y="472" type="qcurve"/>
      <point x="297" y="567" type="line"/>
      <point x="271" y="566"/>
      <point x="247" y="565" type="qcurve"/>
      <point x="249" y="581"/>
      <point x="249" y="612"/>
    </contour>
    <contour>
      <point x="384" y="568" type="line"/>
      <point x="384" y="471" type="line"/>
      <point x="558" y="471"/>
      <point x="731" y="471" type="qcurve"/>
      <point x="738" y="501"/>
      <point x="738" y="546"/>
      <point x="731" y="568" type="qcurve"/>
    </contour>
    <contour>
      <point x="381" y="750" type="qcurve"/>
      <point x="384" y="626" type="line"/>
      <point x="717" y="626" type="line"/>
      <point x="717" y="638"/>
      <point x="704" y="663" type="qcurve" smooth="yes"/>
      <point x="659.469" y="757.01"/>
      <point x="530.72" y="757.01" type="qcurve" smooth="yes"/>
      <point x="529.365" y="757.01"/>
      <point x="528" y="757" type="qcurve" smooth="yes"/>
      <point x="521" y="757.111"/>
      <point x="513.741" y="757.111" type="qcurve" smooth="yes"/>
      <point x="455.667" y="757.111"/>
    </contour>
  </outline>
</glyph>
<glyph name="uni2103" format="2">
  <advance width="944" height="944"/>
  <unicode hex="2103"/>
  <outline>
    <contour>
      <point x="888" y="38" type="line"/>
      <point x="780" y="-17"/>
      <point x="649" y="-17" type="qcurve" smooth="yes"/>
      <point x="414" y="-17"/>
      <point x="330" y="163" type="qcurve" smooth="yes"/>
      <point x="289" y="249"/>
      <point x="289" y="370" type="qcurve" smooth="yes"/>
      <point x="289" y="597"/>
      <point x="430" y="696" type="qcurve" smooth="yes"/>
      <point x="519" y="759"/>
      <point x="654" y="759" type="qcurve" smooth="yes"/>
      <point x="752" y="759"/>
      <point x="887" y="726" type="qcurve"/>
      <point x="887" y="628" type="line"/>
      <point x="734" y="680"/>
      <point x="652" y="680" type="qcurve" smooth="yes"/>
      <point x="481" y="680"/>
      <point x="424" y="521" type="qcurve" smooth="yes"/>
      <point x="400" y="455"/>
      <point x="400" y="369" type="qcurve" smooth="yes"/>
      <point x="400" y="200"/>
      <point x="497" y="119" type="qcurve" smooth="yes"/>
      <point x="563" y="63"/>
      <point x="664" y="63" type="qcurve" smooth="yes"/>
      <point x="768" y="63"/>
      <point x="888" y="128" type="qcurve"/>
    </contour>
    <contour>
      <point x="271" y="648" type="qcurve" smooth="yes"/>
      <point x="271" y="588"/>
      <point x="222" y="555" type="qcurve" smooth="yes"/>
      <point x="195" y="537"/>
      <point x="161" y="537" type="qcurve" smooth="yes"/>
      <point x="100" y="537"/>
      <point x="68" y="587" type="qcurve" smooth="yes"/>
      <point x="49" y="614"/>
      <point x="49" y="648" type="qcurve" smooth="yes"/>
      <point x="49" y="709"/>
      <point x="99" y="741" type="qcurve" smooth="yes"/>
      <point x="127" y="759"/>
      <point x="161" y="759" type="qcurve" smooth="yes"/>
      <point x="220" y="759"/>
      <point x="253" y="710" type="qcurve" smooth="yes"/>
      <point x="271" y="682"/>
    </contour>
    <contour>
      <point x="222" y="647" type="qcurve" smooth="yes"/>
      <point x="222" y="683"/>
      <point x="189" y="701" type="qcurve" smooth="yes"/>
      <point x="176" y="710"/>
      <point x="161" y="710" type="qcurve" smooth="yes"/>
      <point x="125" y="710"/>
      <point x="106" y="676" type="qcurve" smooth="yes"/>
      <point x="99" y="663"/>
      <point x="99" y="647" type="qcurve" smooth="yes"/>
      <point x="99" y="612"/>
      <point x="132" y="594" type="qcurve" smooth="yes"/>
      <point x="145" y="586"/>
      <point x="161" y="586" type="qcurve" smooth="yes"/>
      <point x="196" y="586"/>
      <point x="214" y="618" type="qcurve" smooth="yes"/>
      <point x="222" y="632"/>
    </contour>
  </outline>
</glyph>
<glyph name="uni2160" format="2">
  <advance width="1024" height="1024"/>
  <unicode hex="2160"/>
  <outline>
    <contour>
      <point x="552" y="-14" type="line"/>
      <point x="470" y="-14" type="line"/>
      <point x="470" y="731" type="line"/>
      <point x="552" y="731" type="line"/>
    </contour>
  </outline>
</glyph>
<glyph name="suchthat" format="2">
  <advance width="814" height="814"/>
  <unicode hex="220B"/>
  <outline>
    <contour>
      <point x="703" y="296" type="qcurve" smooth="yes"/>
      <point x="703" y="167"/>
      <point x="611" y="80" type="qcurve"/>
      <point x="579" y="53" type="line"/>
      <point x="502" y="0"/>
      <point x="407" y="0" type="qcurve" smooth="yes"/>
      <point x="111" y="0" type="line"/>
      <point x="111" y="49" type="line"/>
      <point x="407" y="49" type="line" smooth="yes"/>
      <point x="513" y="49"/>
      <point x="587" y="126" type="qcurve" smooth="yes"/>
      <point x="645" y="187"/>
      <point x="652" y="271" type="qcurve"/>
      <point x="111" y="271" type="line"/>
      <point x="111" y="321" type="line"/>
      <point x="652" y="321" type="line"/>
      <point x="644" y="424"/>
      <point x="560" y="489" type="qcurve" smooth="yes"/>
      <point x="492" y="543"/>
      <point x="407" y="543" type="qcurve" smooth="yes"/>
      <point x="111" y="543" type="line"/>
      <point x="111" y="592" type="line"/>
      <point x="407" y="592" type="line" smooth="yes"/>
      <point x="532" y="592"/>
      <point x="620" y="503" type="qcurve" smooth="yes"/>
      <point x="703" y="417"/>
    </contour>
  </outline>
</glyph>
